<?xml version="1.0" encoding="utf-8" standalone="no"?>
<!DOCTYPE svg PUBLIC "-//W3C//DTD SVG 1.1//EN"
  "http://www.w3.org/Graphics/SVG/1.1/DTD/svg11.dtd">
<svg xmlns:xlink="http://www.w3.org/1999/xlink" width="720pt" height="360pt" viewBox="0 0 720 360" xmlns="http://www.w3.org/2000/svg" version="1.1">
 <metadata>
  <rdf:RDF xmlns:dc="http://purl.org/dc/elements/1.1/" xmlns:cc="http://creativecommons.org/ns#" xmlns:rdf="http://www.w3.org/1999/02/22-rdf-syntax-ns#">
   <cc:Work>
    <dc:type rdf:resource="http://purl.org/dc/dcmitype/StillImage"/>
    <dc:date>2026-07-20T04:13:39.796020</dc:date>
    <dc:format>image/svg+xml</dc:format>
    <dc:creator>
     <cc:Agent>
      <dc:title>Matplotlib v3.11.1, https://matplotlib.org/</dc:title>
     </cc:Agent>
    </dc:creator>
   </cc:Work>
  </rdf:RDF>
 </metadata>
 <defs>
  <style type="text/css">*{stroke-linejoin: round; stroke-linecap: butt}</style>
 </defs>
 <g id="figure_1">
  <g id="patch_1">
   <path d="M 0 360 
L 720 360 
L 720 0 
L 0 0 
z
" style="fill: #0d1117"/>
  </g>
  <g id="axes_1">
   <g id="patch_2">
    <path d="M 30.76 160.6 
L 709.2 160.6 
L 709.2 26.16 
L 30.76 26.16 
z
" style="fill: #0d1117"/>
   </g>
   <g id="matplotlib.axis_1">
    <g id="xtick_1">
     <g id="line2d_1">
      <defs>
       <path id="mc1f1bb1535" d="M 0 0 
L 0 3.5 
" style="stroke: #ffffff; stroke-width: 0.8"/>
      </defs>
      <g>
       <use xlink:href="#mc1f1bb1535" x="61.598182" y="160.6" style="fill: #ffffff; stroke: #ffffff; stroke-width: 0.8"/>
      </g>
     </g>
     <g id="text_1">
      <!-- 0 -->
      <g style="fill: #ffffff" transform="translate(59.371307 172.918359) scale(0.07 -0.07)">
       <defs>
        <path id="DejaVuSans-13" d="M 2034 4250 
Q 1547 4250 1301 3770 
Q 1056 3291 1056 2328 
Q 1056 1369 1301 889 
Q 1547 409 2034 409 
Q 2525 409 2770 889 
Q 3016 1369 3016 2328 
Q 3016 3291 2770 3770 
Q 2525 4250 2034 4250 
z
M 2034 4750 
Q 2819 4750 3233 4129 
Q 3647 3509 3647 2328 
Q 3647 1150 3233 529 
Q 2819 -91 2034 -91 
Q 1250 -91 836 529 
Q 422 1150 422 2328 
Q 422 3509 836 4129 
Q 1250 4750 2034 4750 
z
" transform="scale(0.015625)"/>
       </defs>
       <use xlink:href="#DejaVuSans-13"/>
      </g>
     </g>
    </g>
    <g id="xtick_2">
     <g id="line2d_2">
      <g>
       <use xlink:href="#mc1f1bb1535" x="147.49841" y="160.6" style="fill: #ffffff; stroke: #ffffff; stroke-width: 0.8"/>
      </g>
     </g>
     <g id="text_2">
      <!-- 50 -->
      <g style="fill: #ffffff" transform="translate(143.04466 172.918359) scale(0.07 -0.07)">
       <defs>
        <path id="DejaVuSans-18" d="M 691 4666 
L 3169 4666 
L 3169 4134 
L 1269 4134 
L 1269 2991 
Q 1406 3038 1543 3061 
Q 1681 3084 1819 3084 
Q 2600 3084 3056 2656 
Q 3513 2228 3513 1497 
Q 3513 744 3044 326 
Q 2575 -91 1722 -91 
Q 1428 -91 1123 -41 
Q 819 9 494 109 
L 494 744 
Q 775 591 1075 516 
Q 1375 441 1709 441 
Q 2250 441 2565 725 
Q 2881 1009 2881 1497 
Q 2881 1984 2565 2268 
Q 2250 2553 1709 2553 
Q 1456 2553 1204 2497 
Q 953 2441 691 2322 
L 691 4666 
z
" transform="scale(0.015625)"/>
       </defs>
       <use xlink:href="#DejaVuSans-18"/>
       <use xlink:href="#DejaVuSans-13" transform="translate(63.625 0)"/>
      </g>
     </g>
    </g>
    <g id="xtick_3">
     <g id="line2d_3">
      <g>
       <use xlink:href="#mc1f1bb1535" x="233.398638" y="160.6" style="fill: #ffffff; stroke: #ffffff; stroke-width: 0.8"/>
      </g>
     </g>
     <g id="text_3">
      <!-- 100 -->
      <g style="fill: #ffffff" transform="translate(226.718013 172.918359) scale(0.07 -0.07)">
       <defs>
        <path id="DejaVuSans-14" d="M 794 531 
L 1825 531 
L 1825 4091 
L 703 3866 
L 703 4441 
L 1819 4666 
L 2450 4666 
L 2450 531 
L 3481 531 
L 3481 0 
L 794 0 
L 794 531 
z
" transform="scale(0.015625)"/>
       </defs>
       <use xlink:href="#DejaVuSans-14"/>
       <use xlink:href="#DejaVuSans-13" transform="translate(63.625 0)"/>
       <use xlink:href="#DejaVuSans-13" transform="translate(127.25 0)"/>
      </g>
     </g>
    </g>
    <g id="xtick_4">
     <g id="line2d_4">
      <g>
       <use xlink:href="#mc1f1bb1535" x="319.298866" y="160.6" style="fill: #ffffff; stroke: #ffffff; stroke-width: 0.8"/>
      </g>
     </g>
     <g id="text_4">
      <!-- 150 -->
      <g style="fill: #ffffff" transform="translate(312.618241 172.918359) scale(0.07 -0.07)">
       <use xlink:href="#DejaVuSans-14"/>
       <use xlink:href="#DejaVuSans-18" transform="translate(63.625 0)"/>
       <use xlink:href="#DejaVuSans-13" transform="translate(127.25 0)"/>
      </g>
     </g>
    </g>
    <g id="xtick_5">
     <g id="line2d_5">
      <g>
       <use xlink:href="#mc1f1bb1535" x="405.199093" y="160.6" style="fill: #ffffff; stroke: #ffffff; stroke-width: 0.8"/>
      </g>
     </g>
     <g id="text_5">
      <!-- 200 -->
      <g style="fill: #ffffff" transform="translate(398.518468 172.918359) scale(0.07 -0.07)">
       <defs>
        <path id="DejaVuSans-15" d="M 1228 531 
L 3431 531 
L 3431 0 
L 469 0 
L 469 531 
Q 828 903 1448 1529 
Q 2069 2156 2228 2338 
Q 2531 2678 2651 2914 
Q 2772 3150 2772 3378 
Q 2772 3750 2511 3984 
Q 2250 4219 1831 4219 
Q 1534 4219 1204 4116 
Q 875 4013 500 3803 
L 500 4441 
Q 881 4594 1212 4672 
Q 1544 4750 1819 4750 
Q 2544 4750 2975 4387 
Q 3406 4025 3406 3419 
Q 3406 3131 3298 2873 
Q 3191 2616 2906 2266 
Q 2828 2175 2409 1742 
Q 1991 1309 1228 531 
z
" transform="scale(0.015625)"/>
       </defs>
       <use xlink:href="#DejaVuSans-15"/>
       <use xlink:href="#DejaVuSans-13" transform="translate(63.625 0)"/>
       <use xlink:href="#DejaVuSans-13" transform="translate(127.25 0)"/>
      </g>
     </g>
    </g>
    <g id="xtick_6">
     <g id="line2d_6">
      <g>
       <use xlink:href="#mc1f1bb1535" x="491.099321" y="160.6" style="fill: #ffffff; stroke: #ffffff; stroke-width: 0.8"/>
      </g>
     </g>
     <g id="text_6">
      <!-- 250 -->
      <g style="fill: #ffffff" transform="translate(484.418696 172.918359) scale(0.07 -0.07)">
       <use xlink:href="#DejaVuSans-15"/>
       <use xlink:href="#DejaVuSans-18" transform="translate(63.625 0)"/>
       <use xlink:href="#DejaVuSans-13" transform="translate(127.25 0)"/>
      </g>
     </g>
    </g>
    <g id="xtick_7">
     <g id="line2d_7">
      <g>
       <use xlink:href="#mc1f1bb1535" x="576.999549" y="160.6" style="fill: #ffffff; stroke: #ffffff; stroke-width: 0.8"/>
      </g>
     </g>
     <g id="text_7">
      <!-- 300 -->
      <g style="fill: #ffffff" transform="translate(570.318924 172.918359) scale(0.07 -0.07)">
       <defs>
        <path id="DejaVuSans-16" d="M 2597 2516 
Q 3050 2419 3304 2112 
Q 3559 1806 3559 1356 
Q 3559 666 3084 287 
Q 2609 -91 1734 -91 
Q 1441 -91 1130 -33 
Q 819 25 488 141 
L 488 750 
Q 750 597 1062 519 
Q 1375 441 1716 441 
Q 2309 441 2620 675 
Q 2931 909 2931 1356 
Q 2931 1769 2642 2001 
Q 2353 2234 1838 2234 
L 1294 2234 
L 1294 2753 
L 1863 2753 
Q 2328 2753 2575 2939 
Q 2822 3125 2822 3475 
Q 2822 3834 2567 4026 
Q 2313 4219 1838 4219 
Q 1578 4219 1281 4162 
Q 984 4106 628 3988 
L 628 4550 
Q 988 4650 1302 4700 
Q 1616 4750 1894 4750 
Q 2613 4750 3031 4423 
Q 3450 4097 3450 3541 
Q 3450 3153 3228 2886 
Q 3006 2619 2597 2516 
z
" transform="scale(0.015625)"/>
       </defs>
       <use xlink:href="#DejaVuSans-16"/>
       <use xlink:href="#DejaVuSans-13" transform="translate(63.625 0)"/>
       <use xlink:href="#DejaVuSans-13" transform="translate(127.25 0)"/>
      </g>
     </g>
    </g>
    <g id="xtick_8">
     <g id="line2d_8">
      <g>
       <use xlink:href="#mc1f1bb1535" x="662.899777" y="160.6" style="fill: #ffffff; stroke: #ffffff; stroke-width: 0.8"/>
      </g>
     </g>
     <g id="text_8">
      <!-- 350 -->
      <g style="fill: #ffffff" transform="translate(656.219152 172.918359) scale(0.07 -0.07)">
       <use xlink:href="#DejaVuSans-16"/>
       <use xlink:href="#DejaVuSans-18" transform="translate(63.625 0)"/>
       <use xlink:href="#DejaVuSans-13" transform="translate(127.25 0)"/>
      </g>
     </g>
    </g>
   </g>
   <g id="matplotlib.axis_2">
    <g id="ytick_1">
     <g id="line2d_9">
      <defs>
       <path id="m6af1815ea7" d="M 0 0 
L -3.5 0 
" style="stroke: #ffffff; stroke-width: 0.8"/>
      </defs>
      <g>
       <use xlink:href="#m6af1815ea7" x="30.76" y="154.489091" style="fill: #ffffff; stroke: #ffffff; stroke-width: 0.8"/>
      </g>
     </g>
     <g id="text_9">
      <!-- 0 -->
      <g style="fill: #ffffff" transform="translate(19.30625 157.148271) scale(0.07 -0.07)">
       <use xlink:href="#DejaVuSans-13"/>
      </g>
     </g>
    </g>
    <g id="ytick_2">
     <g id="line2d_10">
      <g>
       <use xlink:href="#m6af1815ea7" x="30.76" y="131.366732" style="fill: #ffffff; stroke: #ffffff; stroke-width: 0.8"/>
      </g>
     </g>
     <g id="text_10">
      <!-- 1 -->
      <g style="fill: #ffffff" transform="translate(19.30625 134.025912) scale(0.07 -0.07)">
       <use xlink:href="#DejaVuSans-14"/>
      </g>
     </g>
    </g>
    <g id="ytick_3">
     <g id="line2d_11">
      <g>
       <use xlink:href="#m6af1815ea7" x="30.76" y="108.244373" style="fill: #ffffff; stroke: #ffffff; stroke-width: 0.8"/>
      </g>
     </g>
     <g id="text_11">
      <!-- 2 -->
      <g style="fill: #ffffff" transform="translate(19.30625 110.903553) scale(0.07 -0.07)">
       <use xlink:href="#DejaVuSans-15"/>
      </g>
     </g>
    </g>
    <g id="ytick_4">
     <g id="line2d_12">
      <g>
       <use xlink:href="#m6af1815ea7" x="30.76" y="85.122015" style="fill: #ffffff; stroke: #ffffff; stroke-width: 0.8"/>
      </g>
     </g>
     <g id="text_12">
      <!-- 3 -->
      <g style="fill: #ffffff" transform="translate(19.30625 87.781194) scale(0.07 -0.07)">
       <use xlink:href="#DejaVuSans-16"/>
      </g>
     </g>
    </g>
    <g id="ytick_5">
     <g id="line2d_13">
      <g>
       <use xlink:href="#m6af1815ea7" x="30.76" y="61.999656" style="fill: #ffffff; stroke: #ffffff; stroke-width: 0.8"/>
      </g>
     </g>
     <g id="text_13">
      <!-- 4 -->
      <g style="fill: #ffffff" transform="translate(19.30625 64.658836) scale(0.07 -0.07)">
       <defs>
        <path id="DejaVuSans-17" d="M 2419 4116 
L 825 1625 
L 2419 1625 
L 2419 4116 
z
M 2253 4666 
L 3047 4666 
L 3047 1625 
L 3713 1625 
L 3713 1100 
L 3047 1100 
L 3047 0 
L 2419 0 
L 2419 1100 
L 313 1100 
L 313 1709 
L 2253 4666 
z
" transform="scale(0.015625)"/>
       </defs>
       <use xlink:href="#DejaVuSans-17"/>
      </g>
     </g>
    </g>
    <g id="ytick_6">
     <g id="line2d_14">
      <g>
       <use xlink:href="#m6af1815ea7" x="30.76" y="38.877297" style="fill: #ffffff; stroke: #ffffff; stroke-width: 0.8"/>
      </g>
     </g>
     <g id="text_14">
      <!-- 5 -->
      <g style="fill: #ffffff" transform="translate(19.30625 41.536477) scale(0.07 -0.07)">
       <use xlink:href="#DejaVuSans-18"/>
      </g>
     </g>
    </g>
   </g>
   <g id="line2d_15">
    <path d="M 61.598182 141.276314 
L 63.316186 131.366732 
L 65.034191 128.063538 
L 71.906209 128.063538 
L 75.342218 147.882703 
L 77.060223 151.185897 
L 78.778227 147.882703 
L 80.496232 134.669926 
L 82.214237 134.669926 
L 83.932241 131.366732 
L 85.650246 134.669926 
L 89.086255 134.669926 
L 90.804259 137.97312 
L 92.522264 147.882703 
L 95.958273 147.882703 
L 97.676278 144.579509 
L 99.394282 144.579509 
L 101.112287 131.366732 
L 102.830291 131.366732 
L 104.548296 104.941179 
L 106.2663 101.637985 
L 107.984305 101.637985 
L 109.702309 91.728403 
L 111.420314 71.909238 
L 113.138319 85.122015 
L 114.856323 85.122015 
L 116.574328 111.547568 
L 120.010337 98.334791 
L 121.728341 98.334791 
L 123.446346 91.728403 
L 125.16435 91.728403 
L 126.882355 85.122015 
L 128.60036 85.122015 
L 130.318364 91.728403 
L 132.036369 91.728403 
L 133.754373 104.941179 
L 135.472378 111.547568 
L 137.190382 104.941179 
L 138.908387 88.425209 
L 140.626391 85.122015 
L 142.344396 85.122015 
L 144.062401 91.728403 
L 145.780405 75.212432 
L 147.49841 95.031597 
L 149.216414 95.031597 
L 150.934419 118.153956 
L 152.652423 111.547568 
L 156.088433 118.153956 
L 157.806437 124.760344 
L 159.524442 108.244373 
L 161.242446 111.547568 
L 162.960451 111.547568 
L 164.678455 124.760344 
L 166.39646 121.45715 
L 168.114464 101.637985 
L 169.832469 111.547568 
L 171.550474 128.063538 
L 173.268478 131.366732 
L 174.986483 124.760344 
L 176.704487 124.760344 
L 178.422492 128.063538 
L 180.140496 147.882703 
L 185.29451 147.882703 
L 187.012515 121.45715 
L 188.730519 101.637985 
L 190.448524 95.031597 
L 192.166528 91.728403 
L 193.884533 91.728403 
L 195.602537 78.515627 
L 197.320542 78.515627 
L 199.038546 111.547568 
L 200.756551 131.366732 
L 202.474556 137.97312 
L 204.19256 141.276314 
L 205.910565 141.276314 
L 207.628569 144.579509 
L 209.346574 137.97312 
L 211.064578 137.97312 
L 212.782583 104.941179 
L 216.218592 104.941179 
L 217.936597 101.637985 
L 219.654601 45.483686 
L 223.09061 45.483686 
L 224.808615 75.212432 
L 228.244624 75.212432 
L 229.962629 65.30285 
L 231.680633 131.366732 
L 233.398638 137.97312 
L 235.116642 111.547568 
L 236.834647 104.941179 
L 238.552651 101.637985 
L 240.270656 91.728403 
L 241.98866 104.941179 
L 245.42467 104.941179 
L 247.142674 131.366732 
L 248.860679 137.97312 
L 250.578683 141.276314 
L 252.296688 151.185897 
L 257.450701 151.185897 
L 259.168706 147.882703 
L 260.886711 151.185897 
L 269.476733 151.185897 
L 271.194738 154.489091 
L 310.708843 154.489091 
L 312.426847 134.669926 
L 314.144852 131.366732 
L 319.298866 131.366732 
L 321.01687 128.063538 
L 322.734875 128.063538 
L 324.452879 147.882703 
L 326.170884 151.185897 
L 327.888888 151.185897 
L 329.606893 141.276314 
L 331.324897 141.276314 
L 333.042902 144.579509 
L 339.91492 144.579509 
L 341.632925 151.185897 
L 351.940952 151.185897 
L 353.658957 154.489091 
L 355.376961 141.276314 
L 357.094966 141.276314 
L 358.81297 134.669926 
L 360.530975 134.669926 
L 362.248979 131.366732 
L 365.684989 131.366732 
L 367.402993 144.579509 
L 369.120998 144.579509 
L 370.839002 151.185897 
L 372.557007 151.185897 
L 374.275011 154.489091 
L 384.583039 154.489091 
L 386.301043 137.97312 
L 389.737052 137.97312 
L 391.455057 121.45715 
L 396.609071 121.45715 
L 398.327075 137.97312 
L 400.04508 131.366732 
L 401.763084 131.366732 
L 403.481089 144.579509 
L 406.917098 144.579509 
L 408.635103 128.063538 
L 410.353107 128.063538 
L 412.071112 134.669926 
L 413.789116 131.366732 
L 415.507121 134.669926 
L 417.225125 131.366732 
L 418.94313 131.366732 
L 420.661134 144.579509 
L 425.815148 144.579509 
L 427.533153 141.276314 
L 429.251157 131.366732 
L 434.405171 131.366732 
L 436.123175 114.850762 
L 439.559185 121.45715 
L 441.277189 134.669926 
L 442.995194 134.669926 
L 446.431203 121.45715 
L 448.149207 137.97312 
L 449.867212 137.97312 
L 451.585217 114.850762 
L 453.303221 104.941179 
L 455.021226 104.941179 
L 458.457235 111.547568 
L 460.175239 111.547568 
L 461.893244 91.728403 
L 463.611248 114.850762 
L 465.329253 124.760344 
L 467.047258 124.760344 
L 468.765262 131.366732 
L 470.483267 134.669926 
L 472.201271 134.669926 
L 473.919276 154.489091 
L 475.63728 154.489091 
L 477.355285 85.122015 
L 479.073289 85.122015 
L 480.791294 78.515627 
L 485.945308 78.515627 
L 487.663312 48.78688 
L 489.381317 85.122015 
L 491.099321 85.122015 
L 492.817326 81.818821 
L 496.253335 81.818821 
L 497.97134 75.212432 
L 499.689344 98.334791 
L 501.407349 131.366732 
L 503.125353 131.366732 
L 504.843358 134.669926 
L 506.561362 134.669926 
L 508.279367 124.760344 
L 509.997371 128.063538 
L 511.715376 134.669926 
L 513.433381 68.606044 
L 515.151385 68.606044 
L 516.86939 75.212432 
L 518.587394 68.606044 
L 520.305399 78.515627 
L 522.023403 81.818821 
L 523.741408 81.818821 
L 525.459413 137.97312 
L 527.177417 111.547568 
L 528.895422 111.547568 
L 530.613426 118.153956 
L 534.049435 118.153956 
L 535.76744 111.547568 
L 537.485444 121.45715 
L 539.203449 147.882703 
L 546.075467 147.882703 
L 547.793472 154.489091 
L 549.511476 154.489091 
L 551.229481 137.97312 
L 561.537508 137.97312 
L 563.255513 154.489091 
L 582.153563 154.489091 
L 583.871567 144.579509 
L 594.179595 144.579509 
L 595.897599 151.185897 
L 601.051613 151.185897 
L 602.769618 111.547568 
L 606.205627 111.547568 
L 607.923631 114.850762 
L 611.35964 114.850762 
L 613.077645 111.547568 
L 614.79565 151.185897 
L 616.513654 151.185897 
L 618.231659 144.579509 
L 619.949663 144.579509 
L 621.667668 141.276314 
L 623.385672 141.276314 
L 625.103677 144.579509 
L 628.539686 144.579509 
L 630.257691 151.185897 
L 631.975695 151.185897 
L 633.6937 154.489091 
L 654.309754 154.489091 
L 656.027759 98.334791 
L 657.745763 81.818821 
L 661.181773 81.818821 
L 662.899777 32.270909 
L 666.335786 32.270909 
L 668.053791 88.425209 
L 669.771795 104.941179 
L 673.207805 104.941179 
L 674.925809 154.489091 
L 678.361818 154.489091 
L 678.361818 154.489091 
" clip-path="url(#p9167993463)" style="fill: none; stroke: #39d353; stroke-width: 1.5; stroke-linecap: square"/>
   </g>
   <g id="patch_3">
    <path d="M 30.76 160.6 
L 30.76 26.16 
" style="fill: none; stroke: #30363d; stroke-width: 0.8; stroke-linejoin: miter; stroke-linecap: square"/>
   </g>
   <g id="patch_4">
    <path d="M 709.2 160.6 
L 709.2 26.16 
" style="fill: none; stroke: #30363d; stroke-width: 0.8; stroke-linejoin: miter; stroke-linecap: square"/>
   </g>
   <g id="patch_5">
    <path d="M 30.76 160.6 
L 709.2 160.6 
" style="fill: none; stroke: #30363d; stroke-width: 0.8; stroke-linejoin: miter; stroke-linecap: square"/>
   </g>
   <g id="patch_6">
    <path d="M 30.76 26.16 
L 709.2 26.16 
" style="fill: none; stroke: #30363d; stroke-width: 0.8; stroke-linejoin: miter; stroke-linecap: square"/>
   </g>
   <g id="text_15">
    <!-- Commit activity — 7-day rolling average -->
    <g style="fill: #ffffff" transform="translate(248.55875 20.16) scale(0.12 -0.12)">
     <defs>
      <path id="DejaVuSans-26" d="M 4122 4306 
L 4122 3641 
Q 3803 3938 3442 4084 
Q 3081 4231 2675 4231 
Q 1875 4231 1450 3742 
Q 1025 3253 1025 2328 
Q 1025 1406 1450 917 
Q 1875 428 2675 428 
Q 3081 428 3442 575 
Q 3803 722 4122 1019 
L 4122 359 
Q 3791 134 3420 21 
Q 3050 -91 2638 -91 
Q 1578 -91 968 557 
Q 359 1206 359 2328 
Q 359 3453 968 4101 
Q 1578 4750 2638 4750 
Q 3056 4750 3426 4639 
Q 3797 4528 4122 4306 
z
" transform="scale(0.015625)"/>
      <path id="DejaVuSans-52" d="M 1959 3097 
Q 1497 3097 1228 2736 
Q 959 2375 959 1747 
Q 959 1119 1226 758 
Q 1494 397 1959 397 
Q 2419 397 2687 759 
Q 2956 1122 2956 1747 
Q 2956 2369 2687 2733 
Q 2419 3097 1959 3097 
z
M 1959 3584 
Q 2709 3584 3137 3096 
Q 3566 2609 3566 1747 
Q 3566 888 3137 398 
Q 2709 -91 1959 -91 
Q 1206 -91 779 398 
Q 353 888 353 1747 
Q 353 2609 779 3096 
Q 1206 3584 1959 3584 
z
" transform="scale(0.015625)"/>
      <path id="DejaVuSans-50" d="M 3328 2828 
Q 3544 3216 3844 3400 
Q 4144 3584 4550 3584 
Q 5097 3584 5394 3201 
Q 5691 2819 5691 2113 
L 5691 0 
L 5113 0 
L 5113 2094 
Q 5113 2597 4934 2840 
Q 4756 3084 4391 3084 
Q 3944 3084 3684 2787 
Q 3425 2491 3425 1978 
L 3425 0 
L 2847 0 
L 2847 2094 
Q 2847 2600 2669 2842 
Q 2491 3084 2119 3084 
Q 1678 3084 1418 2786 
Q 1159 2488 1159 1978 
L 1159 0 
L 581 0 
L 581 3500 
L 1159 3500 
L 1159 2956 
Q 1356 3278 1631 3431 
Q 1906 3584 2284 3584 
Q 2666 3584 2933 3390 
Q 3200 3197 3328 2828 
z
" transform="scale(0.015625)"/>
      <path id="DejaVuSans-4c" d="M 603 3500 
L 1178 3500 
L 1178 0 
L 603 0 
L 603 3500 
z
M 603 4863 
L 1178 4863 
L 1178 4134 
L 603 4134 
L 603 4863 
z
" transform="scale(0.015625)"/>
      <path id="DejaVuSans-57" d="M 1172 4494 
L 1172 3500 
L 2356 3500 
L 2356 3053 
L 1172 3053 
L 1172 1153 
Q 1172 725 1289 603 
Q 1406 481 1766 481 
L 2356 481 
L 2356 0 
L 1766 0 
Q 1100 0 847 248 
Q 594 497 594 1153 
L 594 3053 
L 172 3053 
L 172 3500 
L 594 3500 
L 594 4494 
L 1172 4494 
z
" transform="scale(0.015625)"/>
      <path id="DejaVuSans-3" transform="scale(0.015625)"/>
      <path id="DejaVuSans-44" d="M 2194 1759 
Q 1497 1759 1228 1600 
Q 959 1441 959 1056 
Q 959 750 1161 570 
Q 1363 391 1709 391 
Q 2188 391 2477 730 
Q 2766 1069 2766 1631 
L 2766 1759 
L 2194 1759 
z
M 3341 1997 
L 3341 0 
L 2766 0 
L 2766 531 
Q 2569 213 2275 61 
Q 1981 -91 1556 -91 
Q 1019 -91 701 211 
Q 384 513 384 1019 
Q 384 1609 779 1909 
Q 1175 2209 1959 2209 
L 2766 2209 
L 2766 2266 
Q 2766 2663 2505 2880 
Q 2244 3097 1772 3097 
Q 1472 3097 1187 3025 
Q 903 2953 641 2809 
L 641 3341 
Q 956 3463 1253 3523 
Q 1550 3584 1831 3584 
Q 2591 3584 2966 3190 
Q 3341 2797 3341 1997 
z
" transform="scale(0.015625)"/>
      <path id="DejaVuSans-46" d="M 3122 3366 
L 3122 2828 
Q 2878 2963 2633 3030 
Q 2388 3097 2138 3097 
Q 1578 3097 1268 2742 
Q 959 2388 959 1747 
Q 959 1106 1268 751 
Q 1578 397 2138 397 
Q 2388 397 2633 464 
Q 2878 531 3122 666 
L 3122 134 
Q 2881 22 2623 -34 
Q 2366 -91 2075 -91 
Q 1284 -91 818 406 
Q 353 903 353 1747 
Q 353 2603 823 3093 
Q 1294 3584 2113 3584 
Q 2378 3584 2631 3529 
Q 2884 3475 3122 3366 
z
" transform="scale(0.015625)"/>
      <path id="DejaVuSans-59" d="M 191 3500 
L 800 3500 
L 1894 563 
L 2988 3500 
L 3597 3500 
L 2284 0 
L 1503 0 
L 191 3500 
z
" transform="scale(0.015625)"/>
      <path id="DejaVuSans-5c" d="M 2059 -325 
Q 1816 -950 1584 -1140 
Q 1353 -1331 966 -1331 
L 506 -1331 
L 506 -850 
L 844 -850 
Q 1081 -850 1212 -737 
Q 1344 -625 1503 -206 
L 1606 56 
L 191 3500 
L 800 3500 
L 1894 763 
L 2988 3500 
L 3597 3500 
L 2059 -325 
z
" transform="scale(0.015625)"/>
      <path id="DejaVuSans-af6" d="M 313 1978 
L 6088 1978 
L 6088 1528 
L 313 1528 
L 313 1978 
z
" transform="scale(0.015625)"/>
      <path id="DejaVuSans-1a" d="M 525 4666 
L 3525 4666 
L 3525 4397 
L 1831 0 
L 1172 0 
L 2766 4134 
L 525 4134 
L 525 4666 
z
" transform="scale(0.015625)"/>
      <path id="DejaVuSans-10" d="M 313 2009 
L 1997 2009 
L 1997 1497 
L 313 1497 
L 313 2009 
z
" transform="scale(0.015625)"/>
      <path id="DejaVuSans-47" d="M 2906 2969 
L 2906 4863 
L 3481 4863 
L 3481 0 
L 2906 0 
L 2906 525 
Q 2725 213 2448 61 
Q 2172 -91 1784 -91 
Q 1150 -91 751 415 
Q 353 922 353 1747 
Q 353 2572 751 3078 
Q 1150 3584 1784 3584 
Q 2172 3584 2448 3432 
Q 2725 3281 2906 2969 
z
M 947 1747 
Q 947 1113 1208 752 
Q 1469 391 1925 391 
Q 2381 391 2643 752 
Q 2906 1113 2906 1747 
Q 2906 2381 2643 2742 
Q 2381 3103 1925 3103 
Q 1469 3103 1208 2742 
Q 947 2381 947 1747 
z
" transform="scale(0.015625)"/>
      <path id="DejaVuSans-55" d="M 2631 2963 
Q 2534 3019 2420 3045 
Q 2306 3072 2169 3072 
Q 1681 3072 1420 2755 
Q 1159 2438 1159 1844 
L 1159 0 
L 581 0 
L 581 3500 
L 1159 3500 
L 1159 2956 
Q 1341 3275 1631 3429 
Q 1922 3584 2338 3584 
Q 2397 3584 2469 3576 
Q 2541 3569 2628 3553 
L 2631 2963 
z
" transform="scale(0.015625)"/>
      <path id="DejaVuSans-4f" d="M 603 4863 
L 1178 4863 
L 1178 0 
L 603 0 
L 603 4863 
z
" transform="scale(0.015625)"/>
      <path id="DejaVuSans-51" d="M 3513 2113 
L 3513 0 
L 2938 0 
L 2938 2094 
Q 2938 2591 2744 2837 
Q 2550 3084 2163 3084 
Q 1697 3084 1428 2787 
Q 1159 2491 1159 1978 
L 1159 0 
L 581 0 
L 581 3500 
L 1159 3500 
L 1159 2956 
Q 1366 3272 1645 3428 
Q 1925 3584 2291 3584 
Q 2894 3584 3203 3211 
Q 3513 2838 3513 2113 
z
" transform="scale(0.015625)"/>
      <path id="DejaVuSans-4a" d="M 2906 1791 
Q 2906 2416 2648 2759 
Q 2391 3103 1925 3103 
Q 1463 3103 1205 2759 
Q 947 2416 947 1791 
Q 947 1169 1205 825 
Q 1463 481 1925 481 
Q 2391 481 2648 825 
Q 2906 1169 2906 1791 
z
M 3481 434 
Q 3481 -459 3084 -895 
Q 2688 -1331 1869 -1331 
Q 1566 -1331 1297 -1286 
Q 1028 -1241 775 -1147 
L 775 -588 
Q 1028 -725 1275 -790 
Q 1522 -856 1778 -856 
Q 2344 -856 2625 -561 
Q 2906 -266 2906 331 
L 2906 616 
Q 2728 306 2450 153 
Q 2172 0 1784 0 
Q 1141 0 747 490 
Q 353 981 353 1791 
Q 353 2603 747 3093 
Q 1141 3584 1784 3584 
Q 2172 3584 2450 3431 
Q 2728 3278 2906 2969 
L 2906 3500 
L 3481 3500 
L 3481 434 
z
" transform="scale(0.015625)"/>
      <path id="DejaVuSans-48" d="M 3597 1894 
L 3597 1613 
L 953 1613 
Q 991 1019 1311 708 
Q 1631 397 2203 397 
Q 2534 397 2845 478 
Q 3156 559 3463 722 
L 3463 178 
Q 3153 47 2828 -22 
Q 2503 -91 2169 -91 
Q 1331 -91 842 396 
Q 353 884 353 1716 
Q 353 2575 817 3079 
Q 1281 3584 2069 3584 
Q 2775 3584 3186 3129 
Q 3597 2675 3597 1894 
z
M 3022 2063 
Q 3016 2534 2758 2815 
Q 2500 3097 2075 3097 
Q 1594 3097 1305 2825 
Q 1016 2553 972 2059 
L 3022 2063 
z
" transform="scale(0.015625)"/>
     </defs>
     <use xlink:href="#DejaVuSans-26"/>
     <use xlink:href="#DejaVuSans-52" transform="translate(69.828125 0)"/>
     <use xlink:href="#DejaVuSans-50" transform="translate(131.015625 0)"/>
     <use xlink:href="#DejaVuSans-50" transform="translate(228.421875 0)"/>
     <use xlink:href="#DejaVuSans-4c" transform="translate(325.828125 0)"/>
     <use xlink:href="#DejaVuSans-57" transform="translate(353.609375 0)"/>
     <use xlink:href="#DejaVuSans-3" transform="translate(392.8125 0)"/>
     <use xlink:href="#DejaVuSans-44" transform="translate(424.59375 0)"/>
     <use xlink:href="#DejaVuSans-46" transform="translate(485.875 0)"/>
     <use xlink:href="#DejaVuSans-57" transform="translate(540.859375 0)"/>
     <use xlink:href="#DejaVuSans-4c" transform="translate(580.0625 0)"/>
     <use xlink:href="#DejaVuSans-59" transform="translate(607.84375 0)"/>
     <use xlink:href="#DejaVuSans-4c" transform="translate(667.03125 0)"/>
     <use xlink:href="#DejaVuSans-57" transform="translate(694.8125 0)"/>
     <use xlink:href="#DejaVuSans-5c" transform="translate(734.015625 0)"/>
     <use xlink:href="#DejaVuSans-3" transform="translate(793.203125 0)"/>
     <use xlink:href="#DejaVuSans-af6" transform="translate(824.984375 0)"/>
     <use xlink:href="#DejaVuSans-3" transform="translate(924.984375 0)"/>
     <use xlink:href="#DejaVuSans-1a" transform="translate(956.765625 0)"/>
     <use xlink:href="#DejaVuSans-10" transform="translate(1020.390625 0)"/>
     <use xlink:href="#DejaVuSans-47" transform="translate(1056.46875 0)"/>
     <use xlink:href="#DejaVuSans-44" transform="translate(1119.953125 0)"/>
     <use xlink:href="#DejaVuSans-5c" transform="translate(1181.234375 0)"/>
     <use xlink:href="#DejaVuSans-3" transform="translate(1240.421875 0)"/>
     <use xlink:href="#DejaVuSans-55" transform="translate(1272.203125 0)"/>
     <use xlink:href="#DejaVuSans-52" transform="translate(1311.109375 0)"/>
     <use xlink:href="#DejaVuSans-4f" transform="translate(1372.296875 0)"/>
     <use xlink:href="#DejaVuSans-4f" transform="translate(1400.078125 0)"/>
     <use xlink:href="#DejaVuSans-4c" transform="translate(1427.859375 0)"/>
     <use xlink:href="#DejaVuSans-51" transform="translate(1455.640625 0)"/>
     <use xlink:href="#DejaVuSans-4a" transform="translate(1519.015625 0)"/>
     <use xlink:href="#DejaVuSans-3" transform="translate(1582.5 0)"/>
     <use xlink:href="#DejaVuSans-44" transform="translate(1614.28125 0)"/>
     <use xlink:href="#DejaVuSans-59" transform="translate(1675.5625 0)"/>
     <use xlink:href="#DejaVuSans-48" transform="translate(1734.75 0)"/>
     <use xlink:href="#DejaVuSans-55" transform="translate(1796.28125 0)"/>
     <use xlink:href="#DejaVuSans-44" transform="translate(1837.390625 0)"/>
     <use xlink:href="#DejaVuSans-4a" transform="translate(1898.671875 0)"/>
     <use xlink:href="#DejaVuSans-48" transform="translate(1962.15625 0)"/>
    </g>
   </g>
  </g>
  <g id="axes_2">
   <g id="patch_7">
    <path d="M 30.76 335.2 
L 709.2 335.2 
L 709.2 200.76 
L 30.76 200.76 
z
" style="fill: #0d1117"/>
   </g>
   <g id="matplotlib.axis_3">
    <g id="xtick_9">
     <g id="line2d_16">
      <g>
       <use xlink:href="#mc1f1bb1535" x="58.209371" y="335.2" style="fill: #ffffff; stroke: #ffffff; stroke-width: 0.8"/>
      </g>
     </g>
     <g id="text_16">
      <!-- 0.0 -->
      <g style="fill: #ffffff" transform="translate(52.643277 347.518359) scale(0.07 -0.07)">
       <defs>
        <path id="DejaVuSans-11" d="M 684 794 
L 1344 794 
L 1344 0 
L 684 0 
L 684 794 
z
" transform="scale(0.015625)"/>
       </defs>
       <use xlink:href="#DejaVuSans-13"/>
       <use xlink:href="#DejaVuSans-11" transform="translate(63.625 0)"/>
       <use xlink:href="#DejaVuSans-13" transform="translate(95.40625 0)"/>
      </g>
     </g>
    </g>
    <g id="xtick_10">
     <g id="line2d_17">
      <g>
       <use xlink:href="#mc1f1bb1535" x="182.23986" y="335.2" style="fill: #ffffff; stroke: #ffffff; stroke-width: 0.8"/>
      </g>
     </g>
     <g id="text_17">
      <!-- 0.1 -->
      <g style="fill: #ffffff" transform="translate(176.673766 347.518359) scale(0.07 -0.07)">
       <use xlink:href="#DejaVuSans-13"/>
       <use xlink:href="#DejaVuSans-11" transform="translate(63.625 0)"/>
       <use xlink:href="#DejaVuSans-14" transform="translate(95.40625 0)"/>
      </g>
     </g>
    </g>
    <g id="xtick_11">
     <g id="line2d_18">
      <g>
       <use xlink:href="#mc1f1bb1535" x="306.27035" y="335.2" style="fill: #ffffff; stroke: #ffffff; stroke-width: 0.8"/>
      </g>
     </g>
     <g id="text_18">
      <!-- 0.2 -->
      <g style="fill: #ffffff" transform="translate(300.704256 347.518359) scale(0.07 -0.07)">
       <use xlink:href="#DejaVuSans-13"/>
       <use xlink:href="#DejaVuSans-11" transform="translate(63.625 0)"/>
       <use xlink:href="#DejaVuSans-15" transform="translate(95.40625 0)"/>
      </g>
     </g>
    </g>
    <g id="xtick_12">
     <g id="line2d_19">
      <g>
       <use xlink:href="#mc1f1bb1535" x="430.300839" y="335.2" style="fill: #ffffff; stroke: #ffffff; stroke-width: 0.8"/>
      </g>
     </g>
     <g id="text_19">
      <!-- 0.3 -->
      <g style="fill: #ffffff" transform="translate(424.734745 347.518359) scale(0.07 -0.07)">
       <use xlink:href="#DejaVuSans-13"/>
       <use xlink:href="#DejaVuSans-11" transform="translate(63.625 0)"/>
       <use xlink:href="#DejaVuSans-16" transform="translate(95.40625 0)"/>
      </g>
     </g>
    </g>
    <g id="xtick_13">
     <g id="line2d_20">
      <g>
       <use xlink:href="#mc1f1bb1535" x="554.331329" y="335.2" style="fill: #ffffff; stroke: #ffffff; stroke-width: 0.8"/>
      </g>
     </g>
     <g id="text_20">
      <!-- 0.4 -->
      <g style="fill: #ffffff" transform="translate(548.765235 347.518359) scale(0.07 -0.07)">
       <use xlink:href="#DejaVuSans-13"/>
       <use xlink:href="#DejaVuSans-11" transform="translate(63.625 0)"/>
       <use xlink:href="#DejaVuSans-17" transform="translate(95.40625 0)"/>
      </g>
     </g>
    </g>
    <g id="xtick_14">
     <g id="line2d_21">
      <g>
       <use xlink:href="#mc1f1bb1535" x="678.361818" y="335.2" style="fill: #ffffff; stroke: #ffffff; stroke-width: 0.8"/>
      </g>
     </g>
     <g id="text_21">
      <!-- 0.5 -->
      <g style="fill: #ffffff" transform="translate(672.795724 347.518359) scale(0.07 -0.07)">
       <use xlink:href="#DejaVuSans-13"/>
       <use xlink:href="#DejaVuSans-11" transform="translate(63.625 0)"/>
       <use xlink:href="#DejaVuSans-18" transform="translate(95.40625 0)"/>
      </g>
     </g>
    </g>
   </g>
   <g id="matplotlib.axis_4">
    <g id="ytick_7">
     <g id="line2d_22">
      <g>
       <use xlink:href="#m6af1815ea7" x="30.76" y="332.346468" style="fill: #ffffff; stroke: #ffffff; stroke-width: 0.8"/>
      </g>
     </g>
     <g id="text_22">
      <!-- 0 -->
      <g style="fill: #ffffff" transform="translate(19.30625 335.005648) scale(0.07 -0.07)">
       <use xlink:href="#DejaVuSans-13"/>
      </g>
     </g>
    </g>
    <g id="ytick_8">
     <g id="line2d_23">
      <g>
       <use xlink:href="#m6af1815ea7" x="30.76" y="315.83254" style="fill: #ffffff; stroke: #ffffff; stroke-width: 0.8"/>
      </g>
     </g>
     <g id="text_23">
      <!-- 20 -->
      <g style="fill: #ffffff" transform="translate(14.8525 318.49172) scale(0.07 -0.07)">
       <use xlink:href="#DejaVuSans-15"/>
       <use xlink:href="#DejaVuSans-13" transform="translate(63.625 0)"/>
      </g>
     </g>
    </g>
    <g id="ytick_9">
     <g id="line2d_24">
      <g>
       <use xlink:href="#m6af1815ea7" x="30.76" y="299.318613" style="fill: #ffffff; stroke: #ffffff; stroke-width: 0.8"/>
      </g>
     </g>
     <g id="text_24">
      <!-- 40 -->
      <g style="fill: #ffffff" transform="translate(14.8525 301.977792) scale(0.07 -0.07)">
       <use xlink:href="#DejaVuSans-17"/>
       <use xlink:href="#DejaVuSans-13" transform="translate(63.625 0)"/>
      </g>
     </g>
    </g>
    <g id="ytick_10">
     <g id="line2d_25">
      <g>
       <use xlink:href="#m6af1815ea7" x="30.76" y="282.804685" style="fill: #ffffff; stroke: #ffffff; stroke-width: 0.8"/>
      </g>
     </g>
     <g id="text_25">
      <!-- 60 -->
      <g style="fill: #ffffff" transform="translate(14.8525 285.463865) scale(0.07 -0.07)">
       <defs>
        <path id="DejaVuSans-19" d="M 2113 2584 
Q 1688 2584 1439 2293 
Q 1191 2003 1191 1497 
Q 1191 994 1439 701 
Q 1688 409 2113 409 
Q 2538 409 2786 701 
Q 3034 994 3034 1497 
Q 3034 2003 2786 2293 
Q 2538 2584 2113 2584 
z
M 3366 4563 
L 3366 3988 
Q 3128 4100 2886 4159 
Q 2644 4219 2406 4219 
Q 1781 4219 1451 3797 
Q 1122 3375 1075 2522 
Q 1259 2794 1537 2939 
Q 1816 3084 2150 3084 
Q 2853 3084 3261 2657 
Q 3669 2231 3669 1497 
Q 3669 778 3244 343 
Q 2819 -91 2113 -91 
Q 1303 -91 875 529 
Q 447 1150 447 2328 
Q 447 3434 972 4092 
Q 1497 4750 2381 4750 
Q 2619 4750 2861 4703 
Q 3103 4656 3366 4563 
z
" transform="scale(0.015625)"/>
       </defs>
       <use xlink:href="#DejaVuSans-19"/>
       <use xlink:href="#DejaVuSans-13" transform="translate(63.625 0)"/>
      </g>
     </g>
    </g>
    <g id="ytick_11">
     <g id="line2d_26">
      <g>
       <use xlink:href="#m6af1815ea7" x="30.76" y="266.290757" style="fill: #ffffff; stroke: #ffffff; stroke-width: 0.8"/>
      </g>
     </g>
     <g id="text_26">
      <!-- 80 -->
      <g style="fill: #ffffff" transform="translate(14.8525 268.949937) scale(0.07 -0.07)">
       <defs>
        <path id="DejaVuSans-1b" d="M 2034 2216 
Q 1584 2216 1326 1975 
Q 1069 1734 1069 1313 
Q 1069 891 1326 650 
Q 1584 409 2034 409 
Q 2484 409 2743 651 
Q 3003 894 3003 1313 
Q 3003 1734 2745 1975 
Q 2488 2216 2034 2216 
z
M 1403 2484 
Q 997 2584 770 2862 
Q 544 3141 544 3541 
Q 544 4100 942 4425 
Q 1341 4750 2034 4750 
Q 2731 4750 3128 4425 
Q 3525 4100 3525 3541 
Q 3525 3141 3298 2862 
Q 3072 2584 2669 2484 
Q 3125 2378 3379 2068 
Q 3634 1759 3634 1313 
Q 3634 634 3220 271 
Q 2806 -91 2034 -91 
Q 1263 -91 848 271 
Q 434 634 434 1313 
Q 434 1759 690 2068 
Q 947 2378 1403 2484 
z
M 1172 3481 
Q 1172 3119 1398 2916 
Q 1625 2713 2034 2713 
Q 2441 2713 2670 2916 
Q 2900 3119 2900 3481 
Q 2900 3844 2670 4047 
Q 2441 4250 2034 4250 
Q 1625 4250 1398 4047 
Q 1172 3844 1172 3481 
z
" transform="scale(0.015625)"/>
       </defs>
       <use xlink:href="#DejaVuSans-1b"/>
       <use xlink:href="#DejaVuSans-13" transform="translate(63.625 0)"/>
      </g>
     </g>
    </g>
    <g id="ytick_12">
     <g id="line2d_27">
      <g>
       <use xlink:href="#m6af1815ea7" x="30.76" y="249.77683" style="fill: #ffffff; stroke: #ffffff; stroke-width: 0.8"/>
      </g>
     </g>
     <g id="text_27">
      <!-- 100 -->
      <g style="fill: #ffffff" transform="translate(10.39875 252.436009) scale(0.07 -0.07)">
       <use xlink:href="#DejaVuSans-14"/>
       <use xlink:href="#DejaVuSans-13" transform="translate(63.625 0)"/>
       <use xlink:href="#DejaVuSans-13" transform="translate(127.25 0)"/>
      </g>
     </g>
    </g>
    <g id="ytick_13">
     <g id="line2d_28">
      <g>
       <use xlink:href="#m6af1815ea7" x="30.76" y="233.262902" style="fill: #ffffff; stroke: #ffffff; stroke-width: 0.8"/>
      </g>
     </g>
     <g id="text_28">
      <!-- 120 -->
      <g style="fill: #ffffff" transform="translate(10.39875 235.922082) scale(0.07 -0.07)">
       <use xlink:href="#DejaVuSans-14"/>
       <use xlink:href="#DejaVuSans-15" transform="translate(63.625 0)"/>
       <use xlink:href="#DejaVuSans-13" transform="translate(127.25 0)"/>
      </g>
     </g>
    </g>
    <g id="ytick_14">
     <g id="line2d_29">
      <g>
       <use xlink:href="#m6af1815ea7" x="30.76" y="216.748974" style="fill: #ffffff; stroke: #ffffff; stroke-width: 0.8"/>
      </g>
     </g>
     <g id="text_29">
      <!-- 140 -->
      <g style="fill: #ffffff" transform="translate(10.39875 219.408154) scale(0.07 -0.07)">
       <use xlink:href="#DejaVuSans-14"/>
       <use xlink:href="#DejaVuSans-17" transform="translate(63.625 0)"/>
       <use xlink:href="#DejaVuSans-13" transform="translate(127.25 0)"/>
      </g>
     </g>
    </g>
   </g>
   <g id="line2d_30">
    <path d="M 61.598182 289.934342 
L 64.986993 206.870909 
L 68.375804 304.296459 
L 71.764615 282.951646 
L 75.153427 275.05321 
L 78.542238 286.645598 
L 81.931049 255.288231 
L 85.31986 300.58713 
L 88.708671 302.88906 
L 92.097483 296.132102 
L 95.486294 313.453021 
L 98.875105 301.841097 
L 102.263916 292.484832 
L 105.652727 296.54169 
L 109.041538 269.912349 
L 112.43035 310.356786 
L 115.819161 279.465717 
L 119.207972 291.005237 
L 122.596783 288.017344 
L 125.985594 305.429511 
L 129.374406 273.437972 
L 132.763217 304.300621 
L 136.152028 278.915163 
L 139.540839 276.392968 
L 142.92965 283.020053 
L 146.318462 282.307353 
L 149.707273 298.222433 
L 153.096084 300.145061 
L 156.484895 293.627911 
L 159.873706 312.898899 
L 163.262517 304.471299 
L 166.651329 303.653828 
L 170.04014 298.404403 
L 173.428951 274.342382 
L 176.817762 269.045348 
L 180.206573 303.603012 
L 183.595385 291.634106 
L 186.984196 321.243262 
L 190.373007 277.77893 
L 193.761818 299.996245 
L 197.150629 272.46655 
L 200.539441 304.666982 
L 203.928252 312.225362 
L 207.317063 305.13793 
L 210.705874 310.490268 
L 214.094685 295.679489 
L 217.483497 303.333569 
L 220.872308 280.86283 
L 224.261119 277.618679 
L 227.64993 255.477489 
L 231.038741 285.635343 
L 234.427552 270.662259 
L 237.816364 287.769141 
L 241.205175 281.034924 
L 244.593986 310.719006 
L 247.982797 286.610928 
L 251.371608 305.456127 
L 254.76042 305.098967 
L 258.149231 285.444102 
L 261.538042 301.456786 
L 264.926853 286.129593 
L 268.315664 307.457926 
L 271.704476 306.610784 
L 275.093287 293.044597 
L 278.482098 277.237435 
L 281.870909 314.59685 
L 285.25972 294.899951 
L 288.648531 286.392243 
L 292.037343 316.862847 
L 295.426154 321.79867 
L 298.814965 246.412424 
L 302.203776 270.791958 
L 305.592587 305.530731 
L 308.981399 278.667935 
L 312.37021 260.810744 
L 315.759021 280.232433 
L 319.147832 313.589318 
L 322.536643 298.32449 
L 325.925455 302.854527 
L 329.314266 320.609492 
L 332.703077 269.371752 
L 336.091888 284.397883 
L 339.480699 288.310328 
L 342.86951 243.259775 
L 346.258322 281.9709 
L 349.647133 297.17481 
L 353.035944 313.644449 
L 356.424755 283.791118 
L 359.813566 285.381735 
L 363.202378 313.831686 
L 366.591189 259.357991 
L 369.98 272.310752 
L 373.368811 329.089091 
L 376.757622 289.094448 
L 380.146434 280.746824 
L 383.535245 316.737622 
L 386.924056 284.07598 
L 390.312867 258.36922 
L 393.701678 319.086995 
L 397.09049 275.780443 
L 400.479301 290.80423 
L 403.868112 267.142262 
L 407.256923 288.214131 
L 410.645734 317.087775 
L 414.034545 240.759859 
L 417.423357 265.137011 
L 420.812168 325.221788 
L 424.200979 303.952615 
L 427.58979 289.369388 
L 430.978601 301.013026 
L 434.367413 313.563779 
L 437.756224 274.295719 
L 441.145035 281.407005 
L 444.533846 310.861747 
L 447.922657 276.941304 
L 451.311469 287.358404 
L 454.70028 280.270878 
L 458.089091 310.17061 
L 461.477902 247.204638 
L 468.255524 295.715297 
L 471.644336 257.617524 
L 475.033147 301.527359 
L 478.421958 286.734808 
L 481.810769 276.969765 
L 485.19958 279.12636 
L 488.588392 300.985661 
L 491.977203 312.874977 
L 495.366014 321.053165 
L 498.754825 293.755068 
L 502.143636 285.854384 
L 505.532448 327.620773 
L 508.921259 286.552164 
L 512.31007 302.279134 
L 515.698881 281.363448 
L 519.087692 313.859497 
L 522.476503 303.131522 
L 525.865315 295.978778 
L 529.254126 291.200512 
L 532.642937 283.352812 
L 536.031748 324.35048 
L 539.420559 306.015351 
L 542.809371 285.086589 
L 546.198182 312.042774 
L 549.586993 286.151853 
L 552.975804 317.358353 
L 556.364615 317.367376 
L 559.753427 298.850809 
L 563.142238 309.169958 
L 566.531049 293.280239 
L 569.91986 319.99865 
L 573.308671 290.61016 
L 576.697483 308.283024 
L 580.086294 265.792539 
L 583.475105 281.816839 
L 586.863916 261.12373 
L 590.252727 296.366312 
L 593.641538 308.996853 
L 597.03035 272.138744 
L 600.419161 291.628308 
L 603.807972 309.214438 
L 607.196783 306.421894 
L 610.585594 262.126167 
L 613.974406 319.041511 
L 617.363217 290.428735 
L 620.752028 288.298176 
L 624.140839 323.09836 
L 627.52965 308.608952 
L 630.918462 240.149134 
L 634.307273 300.617372 
L 637.696084 265.179311 
L 641.084895 312.257576 
L 644.473706 293.527435 
L 647.862517 315.721094 
L 651.251329 305.545081 
L 654.64014 257.561594 
L 658.028951 305.709648 
L 661.417762 295.45536 
L 664.806573 291.551238 
L 668.195385 248.875424 
L 671.584196 315.168303 
L 674.973007 316.027791 
L 678.361818 324.089504 
L 678.361818 324.089504 
" clip-path="url(#p638daca7b0)" style="fill: none; stroke: #58a6ff; stroke-width: 1.2; stroke-linecap: square"/>
   </g>
   <g id="patch_8">
    <path d="M 30.76 335.2 
L 30.76 200.76 
" style="fill: none; stroke: #30363d; stroke-width: 0.8; stroke-linejoin: miter; stroke-linecap: square"/>
   </g>
   <g id="patch_9">
    <path d="M 709.2 335.2 
L 709.2 200.76 
" style="fill: none; stroke: #30363d; stroke-width: 0.8; stroke-linejoin: miter; stroke-linecap: square"/>
   </g>
   <g id="patch_10">
    <path d="M 30.76 335.2 
L 709.2 335.2 
" style="fill: none; stroke: #30363d; stroke-width: 0.8; stroke-linejoin: miter; stroke-linecap: square"/>
   </g>
   <g id="patch_11">
    <path d="M 30.76 200.76 
L 709.2 200.76 
" style="fill: none; stroke: #30363d; stroke-width: 0.8; stroke-linejoin: miter; stroke-linecap: square"/>
   </g>
   <g id="text_30">
    <!-- Commit rhythm — frequency spectrum (FFT) -->
    <g style="fill: #ffffff" transform="translate(235.533125 194.76) scale(0.12 -0.12)">
     <defs>
      <path id="DejaVuSans-4b" d="M 3513 2113 
L 3513 0 
L 2938 0 
L 2938 2094 
Q 2938 2591 2744 2837 
Q 2550 3084 2163 3084 
Q 1697 3084 1428 2787 
Q 1159 2491 1159 1978 
L 1159 0 
L 581 0 
L 581 4863 
L 1159 4863 
L 1159 2956 
Q 1366 3272 1645 3428 
Q 1925 3584 2291 3584 
Q 2894 3584 3203 3211 
Q 3513 2838 3513 2113 
z
" transform="scale(0.015625)"/>
      <path id="DejaVuSans-49" d="M 2375 4863 
L 2375 4384 
L 1825 4384 
Q 1516 4384 1395 4259 
Q 1275 4134 1275 3809 
L 1275 3500 
L 2222 3500 
L 2222 3053 
L 1275 3053 
L 1275 0 
L 697 0 
L 697 3053 
L 147 3053 
L 147 3500 
L 697 3500 
L 697 3744 
Q 697 4328 969 4595 
Q 1241 4863 1831 4863 
L 2375 4863 
z
" transform="scale(0.015625)"/>
      <path id="DejaVuSans-54" d="M 947 1747 
Q 947 1113 1208 752 
Q 1469 391 1925 391 
Q 2381 391 2643 752 
Q 2906 1113 2906 1747 
Q 2906 2381 2643 2742 
Q 2381 3103 1925 3103 
Q 1469 3103 1208 2742 
Q 947 2381 947 1747 
z
M 2906 525 
Q 2725 213 2448 61 
Q 2172 -91 1784 -91 
Q 1150 -91 751 415 
Q 353 922 353 1747 
Q 353 2572 751 3078 
Q 1150 3584 1784 3584 
Q 2172 3584 2448 3432 
Q 2725 3281 2906 2969 
L 2906 3500 
L 3481 3500 
L 3481 -1331 
L 2906 -1331 
L 2906 525 
z
" transform="scale(0.015625)"/>
      <path id="DejaVuSans-58" d="M 544 1381 
L 544 3500 
L 1119 3500 
L 1119 1403 
Q 1119 906 1312 657 
Q 1506 409 1894 409 
Q 2359 409 2629 706 
Q 2900 1003 2900 1516 
L 2900 3500 
L 3475 3500 
L 3475 0 
L 2900 0 
L 2900 538 
Q 2691 219 2414 64 
Q 2138 -91 1772 -91 
Q 1169 -91 856 284 
Q 544 659 544 1381 
z
M 1991 3584 
L 1991 3584 
z
" transform="scale(0.015625)"/>
      <path id="DejaVuSans-56" d="M 2834 3397 
L 2834 2853 
Q 2591 2978 2328 3040 
Q 2066 3103 1784 3103 
Q 1356 3103 1142 2972 
Q 928 2841 928 2578 
Q 928 2378 1081 2264 
Q 1234 2150 1697 2047 
L 1894 2003 
Q 2506 1872 2764 1633 
Q 3022 1394 3022 966 
Q 3022 478 2636 193 
Q 2250 -91 1575 -91 
Q 1294 -91 989 -36 
Q 684 19 347 128 
L 347 722 
Q 666 556 975 473 
Q 1284 391 1588 391 
Q 1994 391 2212 530 
Q 2431 669 2431 922 
Q 2431 1156 2273 1281 
Q 2116 1406 1581 1522 
L 1381 1569 
Q 847 1681 609 1914 
Q 372 2147 372 2553 
Q 372 3047 722 3315 
Q 1072 3584 1716 3584 
Q 2034 3584 2315 3537 
Q 2597 3491 2834 3397 
z
" transform="scale(0.015625)"/>
      <path id="DejaVuSans-53" d="M 1159 525 
L 1159 -1331 
L 581 -1331 
L 581 3500 
L 1159 3500 
L 1159 2969 
Q 1341 3281 1617 3432 
Q 1894 3584 2278 3584 
Q 2916 3584 3314 3078 
Q 3713 2572 3713 1747 
Q 3713 922 3314 415 
Q 2916 -91 2278 -91 
Q 1894 -91 1617 61 
Q 1341 213 1159 525 
z
M 3116 1747 
Q 3116 2381 2855 2742 
Q 2594 3103 2138 3103 
Q 1681 3103 1420 2742 
Q 1159 2381 1159 1747 
Q 1159 1113 1420 752 
Q 1681 391 2138 391 
Q 2594 391 2855 752 
Q 3116 1113 3116 1747 
z
" transform="scale(0.015625)"/>
      <path id="DejaVuSans-b" d="M 1984 4856 
Q 1566 4138 1362 3434 
Q 1159 2731 1159 2009 
Q 1159 1288 1364 580 
Q 1569 -128 1984 -844 
L 1484 -844 
Q 1016 -109 783 600 
Q 550 1309 550 2009 
Q 550 2706 781 3412 
Q 1013 4119 1484 4856 
L 1984 4856 
z
" transform="scale(0.015625)"/>
      <path id="DejaVuSans-29" d="M 628 4666 
L 3309 4666 
L 3309 4134 
L 1259 4134 
L 1259 2759 
L 3109 2759 
L 3109 2228 
L 1259 2228 
L 1259 0 
L 628 0 
L 628 4666 
z
" transform="scale(0.015625)"/>
      <path id="DejaVuSans-37" d="M -19 4666 
L 3928 4666 
L 3928 4134 
L 2272 4134 
L 2272 0 
L 1638 0 
L 1638 4134 
L -19 4134 
L -19 4666 
z
" transform="scale(0.015625)"/>
      <path id="DejaVuSans-c" d="M 513 4856 
L 1013 4856 
Q 1481 4119 1714 3412 
Q 1947 2706 1947 2009 
Q 1947 1309 1714 600 
Q 1481 -109 1013 -844 
L 513 -844 
Q 928 -128 1133 580 
Q 1338 1288 1338 2009 
Q 1338 2731 1133 3434 
Q 928 4138 513 4856 
z
" transform="scale(0.015625)"/>
     </defs>
     <use xlink:href="#DejaVuSans-26"/>
     <use xlink:href="#DejaVuSans-52" transform="translate(69.828125 0)"/>
     <use xlink:href="#DejaVuSans-50" transform="translate(131.015625 0)"/>
     <use xlink:href="#DejaVuSans-50" transform="translate(228.421875 0)"/>
     <use xlink:href="#DejaVuSans-4c" transform="translate(325.828125 0)"/>
     <use xlink:href="#DejaVuSans-57" transform="translate(353.609375 0)"/>
     <use xlink:href="#DejaVuSans-3" transform="translate(392.8125 0)"/>
     <use xlink:href="#DejaVuSans-55" transform="translate(424.59375 0)"/>
     <use xlink:href="#DejaVuSans-4b" transform="translate(463.953125 0)"/>
     <use xlink:href="#DejaVuSans-5c" transform="translate(527.328125 0)"/>
     <use xlink:href="#DejaVuSans-57" transform="translate(586.515625 0)"/>
     <use xlink:href="#DejaVuSans-4b" transform="translate(625.71875 0)"/>
     <use xlink:href="#DejaVuSans-50" transform="translate(689.09375 0)"/>
     <use xlink:href="#DejaVuSans-3" transform="translate(786.5 0)"/>
     <use xlink:href="#DejaVuSans-af6" transform="translate(818.28125 0)"/>
     <use xlink:href="#DejaVuSans-3" transform="translate(918.28125 0)"/>
     <use xlink:href="#DejaVuSans-49" transform="translate(950.0625 0)"/>
     <use xlink:href="#DejaVuSans-55" transform="translate(985.265625 0)"/>
     <use xlink:href="#DejaVuSans-48" transform="translate(1024.171875 0)"/>
     <use xlink:href="#DejaVuSans-54" transform="translate(1085.703125 0)"/>
     <use xlink:href="#DejaVuSans-58" transform="translate(1149.1875 0)"/>
     <use xlink:href="#DejaVuSans-48" transform="translate(1212.5625 0)"/>
     <use xlink:href="#DejaVuSans-51" transform="translate(1274.09375 0)"/>
     <use xlink:href="#DejaVuSans-46" transform="translate(1337.46875 0)"/>
     <use xlink:href="#DejaVuSans-5c" transform="translate(1392.453125 0)"/>
     <use xlink:href="#DejaVuSans-3" transform="translate(1451.640625 0)"/>
     <use xlink:href="#DejaVuSans-56" transform="translate(1483.421875 0)"/>
     <use xlink:href="#DejaVuSans-53" transform="translate(1535.515625 0)"/>
     <use xlink:href="#DejaVuSans-48" transform="translate(1599 0)"/>
     <use xlink:href="#DejaVuSans-46" transform="translate(1660.53125 0)"/>
     <use xlink:href="#DejaVuSans-57" transform="translate(1715.515625 0)"/>
     <use xlink:href="#DejaVuSans-55" transform="translate(1754.71875 0)"/>
     <use xlink:href="#DejaVuSans-58" transform="translate(1795.828125 0)"/>
     <use xlink:href="#DejaVuSans-50" transform="translate(1859.203125 0)"/>
     <use xlink:href="#DejaVuSans-3" transform="translate(1956.609375 0)"/>
     <use xlink:href="#DejaVuSans-b" transform="translate(1988.390625 0)"/>
     <use xlink:href="#DejaVuSans-29" transform="translate(2027.40625 0)"/>
     <use xlink:href="#DejaVuSans-29" transform="translate(2084.921875 0)"/>
     <use xlink:href="#DejaVuSans-37" transform="translate(2140.6875 0)"/>
     <use xlink:href="#DejaVuSans-c" transform="translate(2201.765625 0)"/>
    </g>
   </g>
  </g>
 </g>
 <defs>
  <clipPath id="p9167993463">
   <rect x="30.76" y="26.16" width="678.44" height="134.44"/>
  </clipPath>
  <clipPath id="p638daca7b0">
   <rect x="30.76" y="200.76" width="678.44" height="134.44"/>
  </clipPath>
 </defs>
</svg>
