<?xml version="1.0" encoding="utf-8" standalone="no"?>
<!DOCTYPE svg PUBLIC "-//W3C//DTD SVG 1.1//EN"
  "http://www.w3.org/Graphics/SVG/1.1/DTD/svg11.dtd">
<svg xmlns:xlink="http://www.w3.org/1999/xlink" width="720pt" height="360pt" viewBox="0 0 720 360" xmlns="http://www.w3.org/2000/svg" version="1.1">
 <metadata>
  <rdf:RDF xmlns:dc="http://purl.org/dc/elements/1.1/" xmlns:cc="http://creativecommons.org/ns#" xmlns:rdf="http://www.w3.org/1999/02/22-rdf-syntax-ns#">
   <cc:Work>
    <dc:type rdf:resource="http://purl.org/dc/dcmitype/StillImage"/>
    <dc:date>2026-07-23T03:54:07.542271</dc:date>
    <dc:format>image/svg+xml</dc:format>
    <dc:creator>
     <cc:Agent>
      <dc:title>Matplotlib v3.11.1, https://matplotlib.org/</dc:title>
     </cc:Agent>
    </dc:creator>
   </cc:Work>
  </rdf:RDF>
 </metadata>
 <defs>
  <style type="text/css">*{stroke-linejoin: round; stroke-linecap: butt}</style>
 </defs>
 <g id="figure_1">
  <g id="patch_1">
   <path d="M 0 360 
L 720 360 
L 720 0 
L 0 0 
z
" style="fill: #0d1117"/>
  </g>
  <g id="axes_1">
   <g id="patch_2">
    <path d="M 30.76 160.6 
L 709.2 160.6 
L 709.2 26.16 
L 30.76 26.16 
z
" style="fill: #0d1117"/>
   </g>
   <g id="matplotlib.axis_1">
    <g id="xtick_1">
     <g id="line2d_1">
      <defs>
       <path id="m97cd8e302d" d="M 0 0 
L 0 3.5 
" style="stroke: #ffffff; stroke-width: 0.8"/>
      </defs>
      <g>
       <use xlink:href="#m97cd8e302d" x="61.598182" y="160.6" style="fill: #ffffff; stroke: #ffffff; stroke-width: 0.8"/>
      </g>
     </g>
     <g id="text_1">
      <!-- 0 -->
      <g style="fill: #ffffff" transform="translate(59.371307 172.918359) scale(0.07 -0.07)">
       <defs>
        <path id="DejaVuSans-13" d="M 2034 4250 
Q 1547 4250 1301 3770 
Q 1056 3291 1056 2328 
Q 1056 1369 1301 889 
Q 1547 409 2034 409 
Q 2525 409 2770 889 
Q 3016 1369 3016 2328 
Q 3016 3291 2770 3770 
Q 2525 4250 2034 4250 
z
M 2034 4750 
Q 2819 4750 3233 4129 
Q 3647 3509 3647 2328 
Q 3647 1150 3233 529 
Q 2819 -91 2034 -91 
Q 1250 -91 836 529 
Q 422 1150 422 2328 
Q 422 3509 836 4129 
Q 1250 4750 2034 4750 
z
" transform="scale(0.015625)"/>
       </defs>
       <use xlink:href="#DejaVuSans-13"/>
      </g>
     </g>
    </g>
    <g id="xtick_2">
     <g id="line2d_2">
      <g>
       <use xlink:href="#m97cd8e302d" x="146.786529" y="160.6" style="fill: #ffffff; stroke: #ffffff; stroke-width: 0.8"/>
      </g>
     </g>
     <g id="text_2">
      <!-- 50 -->
      <g style="fill: #ffffff" transform="translate(142.332779 172.918359) scale(0.07 -0.07)">
       <defs>
        <path id="DejaVuSans-18" d="M 691 4666 
L 3169 4666 
L 3169 4134 
L 1269 4134 
L 1269 2991 
Q 1406 3038 1543 3061 
Q 1681 3084 1819 3084 
Q 2600 3084 3056 2656 
Q 3513 2228 3513 1497 
Q 3513 744 3044 326 
Q 2575 -91 1722 -91 
Q 1428 -91 1123 -41 
Q 819 9 494 109 
L 494 744 
Q 775 591 1075 516 
Q 1375 441 1709 441 
Q 2250 441 2565 725 
Q 2881 1009 2881 1497 
Q 2881 1984 2565 2268 
Q 2250 2553 1709 2553 
Q 1456 2553 1204 2497 
Q 953 2441 691 2322 
L 691 4666 
z
" transform="scale(0.015625)"/>
       </defs>
       <use xlink:href="#DejaVuSans-18"/>
       <use xlink:href="#DejaVuSans-13" transform="translate(63.625 0)"/>
      </g>
     </g>
    </g>
    <g id="xtick_3">
     <g id="line2d_3">
      <g>
       <use xlink:href="#m97cd8e302d" x="231.974877" y="160.6" style="fill: #ffffff; stroke: #ffffff; stroke-width: 0.8"/>
      </g>
     </g>
     <g id="text_3">
      <!-- 100 -->
      <g style="fill: #ffffff" transform="translate(225.294252 172.918359) scale(0.07 -0.07)">
       <defs>
        <path id="DejaVuSans-14" d="M 794 531 
L 1825 531 
L 1825 4091 
L 703 3866 
L 703 4441 
L 1819 4666 
L 2450 4666 
L 2450 531 
L 3481 531 
L 3481 0 
L 794 0 
L 794 531 
z
" transform="scale(0.015625)"/>
       </defs>
       <use xlink:href="#DejaVuSans-14"/>
       <use xlink:href="#DejaVuSans-13" transform="translate(63.625 0)"/>
       <use xlink:href="#DejaVuSans-13" transform="translate(127.25 0)"/>
      </g>
     </g>
    </g>
    <g id="xtick_4">
     <g id="line2d_4">
      <g>
       <use xlink:href="#m97cd8e302d" x="317.163225" y="160.6" style="fill: #ffffff; stroke: #ffffff; stroke-width: 0.8"/>
      </g>
     </g>
     <g id="text_4">
      <!-- 150 -->
      <g style="fill: #ffffff" transform="translate(310.4826 172.918359) scale(0.07 -0.07)">
       <use xlink:href="#DejaVuSans-14"/>
       <use xlink:href="#DejaVuSans-18" transform="translate(63.625 0)"/>
       <use xlink:href="#DejaVuSans-13" transform="translate(127.25 0)"/>
      </g>
     </g>
    </g>
    <g id="xtick_5">
     <g id="line2d_5">
      <g>
       <use xlink:href="#m97cd8e302d" x="402.351572" y="160.6" style="fill: #ffffff; stroke: #ffffff; stroke-width: 0.8"/>
      </g>
     </g>
     <g id="text_5">
      <!-- 200 -->
      <g style="fill: #ffffff" transform="translate(395.670947 172.918359) scale(0.07 -0.07)">
       <defs>
        <path id="DejaVuSans-15" d="M 1228 531 
L 3431 531 
L 3431 0 
L 469 0 
L 469 531 
Q 828 903 1448 1529 
Q 2069 2156 2228 2338 
Q 2531 2678 2651 2914 
Q 2772 3150 2772 3378 
Q 2772 3750 2511 3984 
Q 2250 4219 1831 4219 
Q 1534 4219 1204 4116 
Q 875 4013 500 3803 
L 500 4441 
Q 881 4594 1212 4672 
Q 1544 4750 1819 4750 
Q 2544 4750 2975 4387 
Q 3406 4025 3406 3419 
Q 3406 3131 3298 2873 
Q 3191 2616 2906 2266 
Q 2828 2175 2409 1742 
Q 1991 1309 1228 531 
z
" transform="scale(0.015625)"/>
       </defs>
       <use xlink:href="#DejaVuSans-15"/>
       <use xlink:href="#DejaVuSans-13" transform="translate(63.625 0)"/>
       <use xlink:href="#DejaVuSans-13" transform="translate(127.25 0)"/>
      </g>
     </g>
    </g>
    <g id="xtick_6">
     <g id="line2d_6">
      <g>
       <use xlink:href="#m97cd8e302d" x="487.53992" y="160.6" style="fill: #ffffff; stroke: #ffffff; stroke-width: 0.8"/>
      </g>
     </g>
     <g id="text_6">
      <!-- 250 -->
      <g style="fill: #ffffff" transform="translate(480.859295 172.918359) scale(0.07 -0.07)">
       <use xlink:href="#DejaVuSans-15"/>
       <use xlink:href="#DejaVuSans-18" transform="translate(63.625 0)"/>
       <use xlink:href="#DejaVuSans-13" transform="translate(127.25 0)"/>
      </g>
     </g>
    </g>
    <g id="xtick_7">
     <g id="line2d_7">
      <g>
       <use xlink:href="#m97cd8e302d" x="572.728267" y="160.6" style="fill: #ffffff; stroke: #ffffff; stroke-width: 0.8"/>
      </g>
     </g>
     <g id="text_7">
      <!-- 300 -->
      <g style="fill: #ffffff" transform="translate(566.047642 172.918359) scale(0.07 -0.07)">
       <defs>
        <path id="DejaVuSans-16" d="M 2597 2516 
Q 3050 2419 3304 2112 
Q 3559 1806 3559 1356 
Q 3559 666 3084 287 
Q 2609 -91 1734 -91 
Q 1441 -91 1130 -33 
Q 819 25 488 141 
L 488 750 
Q 750 597 1062 519 
Q 1375 441 1716 441 
Q 2309 441 2620 675 
Q 2931 909 2931 1356 
Q 2931 1769 2642 2001 
Q 2353 2234 1838 2234 
L 1294 2234 
L 1294 2753 
L 1863 2753 
Q 2328 2753 2575 2939 
Q 2822 3125 2822 3475 
Q 2822 3834 2567 4026 
Q 2313 4219 1838 4219 
Q 1578 4219 1281 4162 
Q 984 4106 628 3988 
L 628 4550 
Q 988 4650 1302 4700 
Q 1616 4750 1894 4750 
Q 2613 4750 3031 4423 
Q 3450 4097 3450 3541 
Q 3450 3153 3228 2886 
Q 3006 2619 2597 2516 
z
" transform="scale(0.015625)"/>
       </defs>
       <use xlink:href="#DejaVuSans-16"/>
       <use xlink:href="#DejaVuSans-13" transform="translate(63.625 0)"/>
       <use xlink:href="#DejaVuSans-13" transform="translate(127.25 0)"/>
      </g>
     </g>
    </g>
    <g id="xtick_8">
     <g id="line2d_8">
      <g>
       <use xlink:href="#m97cd8e302d" x="657.916615" y="160.6" style="fill: #ffffff; stroke: #ffffff; stroke-width: 0.8"/>
      </g>
     </g>
     <g id="text_8">
      <!-- 350 -->
      <g style="fill: #ffffff" transform="translate(651.23599 172.918359) scale(0.07 -0.07)">
       <use xlink:href="#DejaVuSans-16"/>
       <use xlink:href="#DejaVuSans-18" transform="translate(63.625 0)"/>
       <use xlink:href="#DejaVuSans-13" transform="translate(127.25 0)"/>
      </g>
     </g>
    </g>
   </g>
   <g id="matplotlib.axis_2">
    <g id="ytick_1">
     <g id="line2d_9">
      <defs>
       <path id="m8d7baf63c2" d="M 0 0 
L -3.5 0 
" style="stroke: #ffffff; stroke-width: 0.8"/>
      </defs>
      <g>
       <use xlink:href="#m8d7baf63c2" x="30.76" y="154.489091" style="fill: #ffffff; stroke: #ffffff; stroke-width: 0.8"/>
      </g>
     </g>
     <g id="text_9">
      <!-- 0 -->
      <g style="fill: #ffffff" transform="translate(19.30625 157.148271) scale(0.07 -0.07)">
       <use xlink:href="#DejaVuSans-13"/>
      </g>
     </g>
    </g>
    <g id="ytick_2">
     <g id="line2d_10">
      <g>
       <use xlink:href="#m8d7baf63c2" x="30.76" y="131.366732" style="fill: #ffffff; stroke: #ffffff; stroke-width: 0.8"/>
      </g>
     </g>
     <g id="text_10">
      <!-- 1 -->
      <g style="fill: #ffffff" transform="translate(19.30625 134.025912) scale(0.07 -0.07)">
       <use xlink:href="#DejaVuSans-14"/>
      </g>
     </g>
    </g>
    <g id="ytick_3">
     <g id="line2d_11">
      <g>
       <use xlink:href="#m8d7baf63c2" x="30.76" y="108.244373" style="fill: #ffffff; stroke: #ffffff; stroke-width: 0.8"/>
      </g>
     </g>
     <g id="text_11">
      <!-- 2 -->
      <g style="fill: #ffffff" transform="translate(19.30625 110.903553) scale(0.07 -0.07)">
       <use xlink:href="#DejaVuSans-15"/>
      </g>
     </g>
    </g>
    <g id="ytick_4">
     <g id="line2d_12">
      <g>
       <use xlink:href="#m8d7baf63c2" x="30.76" y="85.122015" style="fill: #ffffff; stroke: #ffffff; stroke-width: 0.8"/>
      </g>
     </g>
     <g id="text_12">
      <!-- 3 -->
      <g style="fill: #ffffff" transform="translate(19.30625 87.781194) scale(0.07 -0.07)">
       <use xlink:href="#DejaVuSans-16"/>
      </g>
     </g>
    </g>
    <g id="ytick_5">
     <g id="line2d_13">
      <g>
       <use xlink:href="#m8d7baf63c2" x="30.76" y="61.999656" style="fill: #ffffff; stroke: #ffffff; stroke-width: 0.8"/>
      </g>
     </g>
     <g id="text_13">
      <!-- 4 -->
      <g style="fill: #ffffff" transform="translate(19.30625 64.658836) scale(0.07 -0.07)">
       <defs>
        <path id="DejaVuSans-17" d="M 2419 4116 
L 825 1625 
L 2419 1625 
L 2419 4116 
z
M 2253 4666 
L 3047 4666 
L 3047 1625 
L 3713 1625 
L 3713 1100 
L 3047 1100 
L 3047 0 
L 2419 0 
L 2419 1100 
L 313 1100 
L 313 1709 
L 2253 4666 
z
" transform="scale(0.015625)"/>
       </defs>
       <use xlink:href="#DejaVuSans-17"/>
      </g>
     </g>
    </g>
    <g id="ytick_6">
     <g id="line2d_14">
      <g>
       <use xlink:href="#m8d7baf63c2" x="30.76" y="38.877297" style="fill: #ffffff; stroke: #ffffff; stroke-width: 0.8"/>
      </g>
     </g>
     <g id="text_14">
      <!-- 5 -->
      <g style="fill: #ffffff" transform="translate(19.30625 41.536477) scale(0.07 -0.07)">
       <use xlink:href="#DejaVuSans-18"/>
      </g>
     </g>
    </g>
   </g>
   <g id="line2d_15">
    <path d="M 61.598182 141.276314 
L 63.301949 131.366732 
L 65.005716 128.063538 
L 71.820784 128.063538 
L 75.228317 147.882703 
L 76.932084 151.185897 
L 78.635851 147.882703 
L 80.339618 134.669926 
L 82.043385 134.669926 
L 83.747152 131.366732 
L 85.450919 134.669926 
L 88.858453 134.669926 
L 90.56222 137.97312 
L 92.265987 147.882703 
L 95.673521 147.882703 
L 97.377288 144.579509 
L 99.081055 144.579509 
L 100.784822 131.366732 
L 102.488589 131.366732 
L 104.192356 104.941179 
L 105.896123 101.637985 
L 107.59989 101.637985 
L 109.303656 91.728403 
L 111.007423 71.909238 
L 112.71119 85.122015 
L 114.414957 85.122015 
L 116.118724 111.547568 
L 119.526258 98.334791 
L 121.230025 98.334791 
L 122.933792 91.728403 
L 124.637559 91.728403 
L 126.341326 85.122015 
L 128.045093 85.122015 
L 129.74886 91.728403 
L 131.452627 91.728403 
L 133.156394 104.941179 
L 134.860161 111.547568 
L 136.563928 104.941179 
L 138.267695 88.425209 
L 139.971462 85.122015 
L 141.675229 85.122015 
L 143.378995 91.728403 
L 145.082762 75.212432 
L 146.786529 95.031597 
L 148.490296 95.031597 
L 150.194063 118.153956 
L 151.89783 111.547568 
L 155.305364 118.153956 
L 157.009131 124.760344 
L 158.712898 108.244373 
L 160.416665 111.547568 
L 162.120432 111.547568 
L 163.824199 124.760344 
L 165.527966 121.45715 
L 167.231733 101.637985 
L 168.9355 111.547568 
L 170.639267 128.063538 
L 172.343034 131.366732 
L 174.046801 124.760344 
L 175.750568 124.760344 
L 177.454335 128.063538 
L 179.158101 147.882703 
L 184.269402 147.882703 
L 185.973169 121.45715 
L 187.676936 101.637985 
L 189.380703 95.031597 
L 191.08447 91.728403 
L 192.788237 91.728403 
L 194.492004 78.515627 
L 196.195771 78.515627 
L 197.899538 111.547568 
L 199.603305 131.366732 
L 201.307072 137.97312 
L 203.010839 141.276314 
L 204.714606 141.276314 
L 206.418373 144.579509 
L 208.12214 137.97312 
L 209.825907 137.97312 
L 211.529674 104.941179 
L 214.937207 104.941179 
L 216.640974 101.637985 
L 218.344741 45.483686 
L 221.752275 45.483686 
L 223.456042 75.212432 
L 226.863576 75.212432 
L 228.567343 65.30285 
L 230.27111 131.366732 
L 231.974877 137.97312 
L 233.678644 111.547568 
L 235.382411 104.941179 
L 237.086178 101.637985 
L 238.789945 91.728403 
L 240.493712 104.941179 
L 243.901246 104.941179 
L 245.605013 131.366732 
L 247.30878 137.97312 
L 249.012546 141.276314 
L 250.716313 151.185897 
L 255.827614 151.185897 
L 257.531381 147.882703 
L 259.235148 151.185897 
L 267.753983 151.185897 
L 269.45775 154.489091 
L 308.64439 154.489091 
L 310.348157 134.669926 
L 312.051924 131.366732 
L 317.163225 131.366732 
L 318.866991 128.063538 
L 320.570758 128.063538 
L 322.274525 147.882703 
L 323.978292 151.185897 
L 325.682059 151.185897 
L 327.385826 141.276314 
L 329.089593 141.276314 
L 330.79336 144.579509 
L 337.608428 144.579509 
L 339.312195 151.185897 
L 349.534797 151.185897 
L 351.238564 154.489091 
L 352.94233 141.276314 
L 354.646097 141.276314 
L 356.349864 134.669926 
L 358.053631 134.669926 
L 359.757398 131.366732 
L 363.164932 131.366732 
L 364.868699 144.579509 
L 366.572466 144.579509 
L 368.276233 151.185897 
L 369.98 151.185897 
L 371.683767 154.489091 
L 381.906369 154.489091 
L 383.610136 137.97312 
L 387.01767 137.97312 
L 388.721436 121.45715 
L 393.832737 121.45715 
L 395.536504 137.97312 
L 397.240271 131.366732 
L 398.944038 131.366732 
L 400.647805 144.579509 
L 404.055339 144.579509 
L 405.759106 128.063538 
L 407.462873 128.063538 
L 409.16664 134.669926 
L 410.870407 131.366732 
L 412.574174 134.669926 
L 414.277941 131.366732 
L 415.981708 131.366732 
L 417.685475 144.579509 
L 422.796775 144.579509 
L 424.500542 141.276314 
L 426.204309 131.366732 
L 431.31561 131.366732 
L 433.019377 114.850762 
L 436.426911 121.45715 
L 438.130678 134.669926 
L 439.834445 134.669926 
L 443.241979 121.45715 
L 444.945746 137.97312 
L 446.649513 137.97312 
L 448.35328 114.850762 
L 450.057047 104.941179 
L 451.760814 104.941179 
L 455.168348 111.547568 
L 456.872115 111.547568 
L 458.575881 91.728403 
L 460.279648 114.850762 
L 461.983415 124.760344 
L 463.687182 124.760344 
L 465.390949 131.366732 
L 467.094716 134.669926 
L 468.798483 134.669926 
L 470.50225 154.489091 
L 472.206017 154.489091 
L 473.909784 85.122015 
L 475.613551 85.122015 
L 477.317318 78.515627 
L 482.428619 78.515627 
L 484.132386 48.78688 
L 485.836153 85.122015 
L 487.53992 85.122015 
L 489.243687 81.818821 
L 492.65122 81.818821 
L 494.354987 75.212432 
L 496.058754 98.334791 
L 497.762521 131.366732 
L 499.466288 131.366732 
L 501.170055 134.669926 
L 502.873822 134.669926 
L 504.577589 124.760344 
L 506.281356 128.063538 
L 507.985123 134.669926 
L 509.68889 68.606044 
L 511.392657 68.606044 
L 513.096424 75.212432 
L 514.800191 68.606044 
L 516.503958 78.515627 
L 518.207725 81.818821 
L 519.911492 81.818821 
L 521.615259 137.97312 
L 523.319026 111.547568 
L 525.022793 111.547568 
L 526.72656 118.153956 
L 530.134093 118.153956 
L 531.83786 111.547568 
L 533.541627 121.45715 
L 535.245394 147.882703 
L 542.060462 147.882703 
L 543.764229 154.489091 
L 545.467996 154.489091 
L 547.171763 137.97312 
L 557.394365 137.97312 
L 559.098132 154.489091 
L 577.839568 154.489091 
L 579.543335 144.579509 
L 589.765937 144.579509 
L 591.469704 151.185897 
L 596.581005 151.185897 
L 598.284771 111.547568 
L 601.692305 111.547568 
L 603.396072 114.850762 
L 606.803606 114.850762 
L 608.507373 111.547568 
L 610.21114 151.185897 
L 611.914907 151.185897 
L 613.618674 144.579509 
L 615.322441 144.579509 
L 617.026208 141.276314 
L 618.729975 141.276314 
L 620.433742 144.579509 
L 623.841276 144.579509 
L 625.545043 151.185897 
L 627.24881 151.185897 
L 628.952577 154.489091 
L 649.39778 154.489091 
L 651.101547 98.334791 
L 652.805314 81.818821 
L 656.212848 81.818821 
L 657.916615 32.270909 
L 661.324149 32.270909 
L 663.027916 88.425209 
L 664.731683 104.941179 
L 668.139216 104.941179 
L 669.842983 154.489091 
L 678.361818 154.489091 
L 678.361818 154.489091 
" clip-path="url(#p2317a09121)" style="fill: none; stroke: #39d353; stroke-width: 1.5; stroke-linecap: square"/>
   </g>
   <g id="patch_3">
    <path d="M 30.76 160.6 
L 30.76 26.16 
" style="fill: none; stroke: #30363d; stroke-width: 0.8; stroke-linejoin: miter; stroke-linecap: square"/>
   </g>
   <g id="patch_4">
    <path d="M 709.2 160.6 
L 709.2 26.16 
" style="fill: none; stroke: #30363d; stroke-width: 0.8; stroke-linejoin: miter; stroke-linecap: square"/>
   </g>
   <g id="patch_5">
    <path d="M 30.76 160.6 
L 709.2 160.6 
" style="fill: none; stroke: #30363d; stroke-width: 0.8; stroke-linejoin: miter; stroke-linecap: square"/>
   </g>
   <g id="patch_6">
    <path d="M 30.76 26.16 
L 709.2 26.16 
" style="fill: none; stroke: #30363d; stroke-width: 0.8; stroke-linejoin: miter; stroke-linecap: square"/>
   </g>
   <g id="text_15">
    <!-- Commit activity — 7-day rolling average -->
    <g style="fill: #ffffff" transform="translate(248.55875 20.16) scale(0.12 -0.12)">
     <defs>
      <path id="DejaVuSans-26" d="M 4122 4306 
L 4122 3641 
Q 3803 3938 3442 4084 
Q 3081 4231 2675 4231 
Q 1875 4231 1450 3742 
Q 1025 3253 1025 2328 
Q 1025 1406 1450 917 
Q 1875 428 2675 428 
Q 3081 428 3442 575 
Q 3803 722 4122 1019 
L 4122 359 
Q 3791 134 3420 21 
Q 3050 -91 2638 -91 
Q 1578 -91 968 557 
Q 359 1206 359 2328 
Q 359 3453 968 4101 
Q 1578 4750 2638 4750 
Q 3056 4750 3426 4639 
Q 3797 4528 4122 4306 
z
" transform="scale(0.015625)"/>
      <path id="DejaVuSans-52" d="M 1959 3097 
Q 1497 3097 1228 2736 
Q 959 2375 959 1747 
Q 959 1119 1226 758 
Q 1494 397 1959 397 
Q 2419 397 2687 759 
Q 2956 1122 2956 1747 
Q 2956 2369 2687 2733 
Q 2419 3097 1959 3097 
z
M 1959 3584 
Q 2709 3584 3137 3096 
Q 3566 2609 3566 1747 
Q 3566 888 3137 398 
Q 2709 -91 1959 -91 
Q 1206 -91 779 398 
Q 353 888 353 1747 
Q 353 2609 779 3096 
Q 1206 3584 1959 3584 
z
" transform="scale(0.015625)"/>
      <path id="DejaVuSans-50" d="M 3328 2828 
Q 3544 3216 3844 3400 
Q 4144 3584 4550 3584 
Q 5097 3584 5394 3201 
Q 5691 2819 5691 2113 
L 5691 0 
L 5113 0 
L 5113 2094 
Q 5113 2597 4934 2840 
Q 4756 3084 4391 3084 
Q 3944 3084 3684 2787 
Q 3425 2491 3425 1978 
L 3425 0 
L 2847 0 
L 2847 2094 
Q 2847 2600 2669 2842 
Q 2491 3084 2119 3084 
Q 1678 3084 1418 2786 
Q 1159 2488 1159 1978 
L 1159 0 
L 581 0 
L 581 3500 
L 1159 3500 
L 1159 2956 
Q 1356 3278 1631 3431 
Q 1906 3584 2284 3584 
Q 2666 3584 2933 3390 
Q 3200 3197 3328 2828 
z
" transform="scale(0.015625)"/>
      <path id="DejaVuSans-4c" d="M 603 3500 
L 1178 3500 
L 1178 0 
L 603 0 
L 603 3500 
z
M 603 4863 
L 1178 4863 
L 1178 4134 
L 603 4134 
L 603 4863 
z
" transform="scale(0.015625)"/>
      <path id="DejaVuSans-57" d="M 1172 4494 
L 1172 3500 
L 2356 3500 
L 2356 3053 
L 1172 3053 
L 1172 1153 
Q 1172 725 1289 603 
Q 1406 481 1766 481 
L 2356 481 
L 2356 0 
L 1766 0 
Q 1100 0 847 248 
Q 594 497 594 1153 
L 594 3053 
L 172 3053 
L 172 3500 
L 594 3500 
L 594 4494 
L 1172 4494 
z
" transform="scale(0.015625)"/>
      <path id="DejaVuSans-3" transform="scale(0.015625)"/>
      <path id="DejaVuSans-44" d="M 2194 1759 
Q 1497 1759 1228 1600 
Q 959 1441 959 1056 
Q 959 750 1161 570 
Q 1363 391 1709 391 
Q 2188 391 2477 730 
Q 2766 1069 2766 1631 
L 2766 1759 
L 2194 1759 
z
M 3341 1997 
L 3341 0 
L 2766 0 
L 2766 531 
Q 2569 213 2275 61 
Q 1981 -91 1556 -91 
Q 1019 -91 701 211 
Q 384 513 384 1019 
Q 384 1609 779 1909 
Q 1175 2209 1959 2209 
L 2766 2209 
L 2766 2266 
Q 2766 2663 2505 2880 
Q 2244 3097 1772 3097 
Q 1472 3097 1187 3025 
Q 903 2953 641 2809 
L 641 3341 
Q 956 3463 1253 3523 
Q 1550 3584 1831 3584 
Q 2591 3584 2966 3190 
Q 3341 2797 3341 1997 
z
" transform="scale(0.015625)"/>
      <path id="DejaVuSans-46" d="M 3122 3366 
L 3122 2828 
Q 2878 2963 2633 3030 
Q 2388 3097 2138 3097 
Q 1578 3097 1268 2742 
Q 959 2388 959 1747 
Q 959 1106 1268 751 
Q 1578 397 2138 397 
Q 2388 397 2633 464 
Q 2878 531 3122 666 
L 3122 134 
Q 2881 22 2623 -34 
Q 2366 -91 2075 -91 
Q 1284 -91 818 406 
Q 353 903 353 1747 
Q 353 2603 823 3093 
Q 1294 3584 2113 3584 
Q 2378 3584 2631 3529 
Q 2884 3475 3122 3366 
z
" transform="scale(0.015625)"/>
      <path id="DejaVuSans-59" d="M 191 3500 
L 800 3500 
L 1894 563 
L 2988 3500 
L 3597 3500 
L 2284 0 
L 1503 0 
L 191 3500 
z
" transform="scale(0.015625)"/>
      <path id="DejaVuSans-5c" d="M 2059 -325 
Q 1816 -950 1584 -1140 
Q 1353 -1331 966 -1331 
L 506 -1331 
L 506 -850 
L 844 -850 
Q 1081 -850 1212 -737 
Q 1344 -625 1503 -206 
L 1606 56 
L 191 3500 
L 800 3500 
L 1894 763 
L 2988 3500 
L 3597 3500 
L 2059 -325 
z
" transform="scale(0.015625)"/>
      <path id="DejaVuSans-af6" d="M 313 1978 
L 6088 1978 
L 6088 1528 
L 313 1528 
L 313 1978 
z
" transform="scale(0.015625)"/>
      <path id="DejaVuSans-1a" d="M 525 4666 
L 3525 4666 
L 3525 4397 
L 1831 0 
L 1172 0 
L 2766 4134 
L 525 4134 
L 525 4666 
z
" transform="scale(0.015625)"/>
      <path id="DejaVuSans-10" d="M 313 2009 
L 1997 2009 
L 1997 1497 
L 313 1497 
L 313 2009 
z
" transform="scale(0.015625)"/>
      <path id="DejaVuSans-47" d="M 2906 2969 
L 2906 4863 
L 3481 4863 
L 3481 0 
L 2906 0 
L 2906 525 
Q 2725 213 2448 61 
Q 2172 -91 1784 -91 
Q 1150 -91 751 415 
Q 353 922 353 1747 
Q 353 2572 751 3078 
Q 1150 3584 1784 3584 
Q 2172 3584 2448 3432 
Q 2725 3281 2906 2969 
z
M 947 1747 
Q 947 1113 1208 752 
Q 1469 391 1925 391 
Q 2381 391 2643 752 
Q 2906 1113 2906 1747 
Q 2906 2381 2643 2742 
Q 2381 3103 1925 3103 
Q 1469 3103 1208 2742 
Q 947 2381 947 1747 
z
" transform="scale(0.015625)"/>
      <path id="DejaVuSans-55" d="M 2631 2963 
Q 2534 3019 2420 3045 
Q 2306 3072 2169 3072 
Q 1681 3072 1420 2755 
Q 1159 2438 1159 1844 
L 1159 0 
L 581 0 
L 581 3500 
L 1159 3500 
L 1159 2956 
Q 1341 3275 1631 3429 
Q 1922 3584 2338 3584 
Q 2397 3584 2469 3576 
Q 2541 3569 2628 3553 
L 2631 2963 
z
" transform="scale(0.015625)"/>
      <path id="DejaVuSans-4f" d="M 603 4863 
L 1178 4863 
L 1178 0 
L 603 0 
L 603 4863 
z
" transform="scale(0.015625)"/>
      <path id="DejaVuSans-51" d="M 3513 2113 
L 3513 0 
L 2938 0 
L 2938 2094 
Q 2938 2591 2744 2837 
Q 2550 3084 2163 3084 
Q 1697 3084 1428 2787 
Q 1159 2491 1159 1978 
L 1159 0 
L 581 0 
L 581 3500 
L 1159 3500 
L 1159 2956 
Q 1366 3272 1645 3428 
Q 1925 3584 2291 3584 
Q 2894 3584 3203 3211 
Q 3513 2838 3513 2113 
z
" transform="scale(0.015625)"/>
      <path id="DejaVuSans-4a" d="M 2906 1791 
Q 2906 2416 2648 2759 
Q 2391 3103 1925 3103 
Q 1463 3103 1205 2759 
Q 947 2416 947 1791 
Q 947 1169 1205 825 
Q 1463 481 1925 481 
Q 2391 481 2648 825 
Q 2906 1169 2906 1791 
z
M 3481 434 
Q 3481 -459 3084 -895 
Q 2688 -1331 1869 -1331 
Q 1566 -1331 1297 -1286 
Q 1028 -1241 775 -1147 
L 775 -588 
Q 1028 -725 1275 -790 
Q 1522 -856 1778 -856 
Q 2344 -856 2625 -561 
Q 2906 -266 2906 331 
L 2906 616 
Q 2728 306 2450 153 
Q 2172 0 1784 0 
Q 1141 0 747 490 
Q 353 981 353 1791 
Q 353 2603 747 3093 
Q 1141 3584 1784 3584 
Q 2172 3584 2450 3431 
Q 2728 3278 2906 2969 
L 2906 3500 
L 3481 3500 
L 3481 434 
z
" transform="scale(0.015625)"/>
      <path id="DejaVuSans-48" d="M 3597 1894 
L 3597 1613 
L 953 1613 
Q 991 1019 1311 708 
Q 1631 397 2203 397 
Q 2534 397 2845 478 
Q 3156 559 3463 722 
L 3463 178 
Q 3153 47 2828 -22 
Q 2503 -91 2169 -91 
Q 1331 -91 842 396 
Q 353 884 353 1716 
Q 353 2575 817 3079 
Q 1281 3584 2069 3584 
Q 2775 3584 3186 3129 
Q 3597 2675 3597 1894 
z
M 3022 2063 
Q 3016 2534 2758 2815 
Q 2500 3097 2075 3097 
Q 1594 3097 1305 2825 
Q 1016 2553 972 2059 
L 3022 2063 
z
" transform="scale(0.015625)"/>
     </defs>
     <use xlink:href="#DejaVuSans-26"/>
     <use xlink:href="#DejaVuSans-52" transform="translate(69.828125 0)"/>
     <use xlink:href="#DejaVuSans-50" transform="translate(131.015625 0)"/>
     <use xlink:href="#DejaVuSans-50" transform="translate(228.421875 0)"/>
     <use xlink:href="#DejaVuSans-4c" transform="translate(325.828125 0)"/>
     <use xlink:href="#DejaVuSans-57" transform="translate(353.609375 0)"/>
     <use xlink:href="#DejaVuSans-3" transform="translate(392.8125 0)"/>
     <use xlink:href="#DejaVuSans-44" transform="translate(424.59375 0)"/>
     <use xlink:href="#DejaVuSans-46" transform="translate(485.875 0)"/>
     <use xlink:href="#DejaVuSans-57" transform="translate(540.859375 0)"/>
     <use xlink:href="#DejaVuSans-4c" transform="translate(580.0625 0)"/>
     <use xlink:href="#DejaVuSans-59" transform="translate(607.84375 0)"/>
     <use xlink:href="#DejaVuSans-4c" transform="translate(667.03125 0)"/>
     <use xlink:href="#DejaVuSans-57" transform="translate(694.8125 0)"/>
     <use xlink:href="#DejaVuSans-5c" transform="translate(734.015625 0)"/>
     <use xlink:href="#DejaVuSans-3" transform="translate(793.203125 0)"/>
     <use xlink:href="#DejaVuSans-af6" transform="translate(824.984375 0)"/>
     <use xlink:href="#DejaVuSans-3" transform="translate(924.984375 0)"/>
     <use xlink:href="#DejaVuSans-1a" transform="translate(956.765625 0)"/>
     <use xlink:href="#DejaVuSans-10" transform="translate(1020.390625 0)"/>
     <use xlink:href="#DejaVuSans-47" transform="translate(1056.46875 0)"/>
     <use xlink:href="#DejaVuSans-44" transform="translate(1119.953125 0)"/>
     <use xlink:href="#DejaVuSans-5c" transform="translate(1181.234375 0)"/>
     <use xlink:href="#DejaVuSans-3" transform="translate(1240.421875 0)"/>
     <use xlink:href="#DejaVuSans-55" transform="translate(1272.203125 0)"/>
     <use xlink:href="#DejaVuSans-52" transform="translate(1311.109375 0)"/>
     <use xlink:href="#DejaVuSans-4f" transform="translate(1372.296875 0)"/>
     <use xlink:href="#DejaVuSans-4f" transform="translate(1400.078125 0)"/>
     <use xlink:href="#DejaVuSans-4c" transform="translate(1427.859375 0)"/>
     <use xlink:href="#DejaVuSans-51" transform="translate(1455.640625 0)"/>
     <use xlink:href="#DejaVuSans-4a" transform="translate(1519.015625 0)"/>
     <use xlink:href="#DejaVuSans-3" transform="translate(1582.5 0)"/>
     <use xlink:href="#DejaVuSans-44" transform="translate(1614.28125 0)"/>
     <use xlink:href="#DejaVuSans-59" transform="translate(1675.5625 0)"/>
     <use xlink:href="#DejaVuSans-48" transform="translate(1734.75 0)"/>
     <use xlink:href="#DejaVuSans-55" transform="translate(1796.28125 0)"/>
     <use xlink:href="#DejaVuSans-44" transform="translate(1837.390625 0)"/>
     <use xlink:href="#DejaVuSans-4a" transform="translate(1898.671875 0)"/>
     <use xlink:href="#DejaVuSans-48" transform="translate(1962.15625 0)"/>
    </g>
   </g>
  </g>
  <g id="axes_2">
   <g id="patch_7">
    <path d="M 30.76 335.2 
L 709.2 335.2 
L 709.2 200.76 
L 30.76 200.76 
z
" style="fill: #0d1117"/>
   </g>
   <g id="matplotlib.axis_3">
    <g id="xtick_9">
     <g id="line2d_16">
      <g>
       <use xlink:href="#m97cd8e302d" x="58.227889" y="335.2" style="fill: #ffffff; stroke: #ffffff; stroke-width: 0.8"/>
      </g>
     </g>
     <g id="text_16">
      <!-- 0.0 -->
      <g style="fill: #ffffff" transform="translate(52.661795 347.518359) scale(0.07 -0.07)">
       <defs>
        <path id="DejaVuSans-11" d="M 684 794 
L 1344 794 
L 1344 0 
L 684 0 
L 684 794 
z
" transform="scale(0.015625)"/>
       </defs>
       <use xlink:href="#DejaVuSans-13"/>
       <use xlink:href="#DejaVuSans-11" transform="translate(63.625 0)"/>
       <use xlink:href="#DejaVuSans-13" transform="translate(95.40625 0)"/>
      </g>
     </g>
    </g>
    <g id="xtick_10">
     <g id="line2d_17">
      <g>
       <use xlink:href="#m97cd8e302d" x="182.591704" y="335.2" style="fill: #ffffff; stroke: #ffffff; stroke-width: 0.8"/>
      </g>
     </g>
     <g id="text_17">
      <!-- 0.1 -->
      <g style="fill: #ffffff" transform="translate(177.02561 347.518359) scale(0.07 -0.07)">
       <use xlink:href="#DejaVuSans-13"/>
       <use xlink:href="#DejaVuSans-11" transform="translate(63.625 0)"/>
       <use xlink:href="#DejaVuSans-14" transform="translate(95.40625 0)"/>
      </g>
     </g>
    </g>
    <g id="xtick_11">
     <g id="line2d_18">
      <g>
       <use xlink:href="#m97cd8e302d" x="306.955519" y="335.2" style="fill: #ffffff; stroke: #ffffff; stroke-width: 0.8"/>
      </g>
     </g>
     <g id="text_18">
      <!-- 0.2 -->
      <g style="fill: #ffffff" transform="translate(301.389425 347.518359) scale(0.07 -0.07)">
       <use xlink:href="#DejaVuSans-13"/>
       <use xlink:href="#DejaVuSans-11" transform="translate(63.625 0)"/>
       <use xlink:href="#DejaVuSans-15" transform="translate(95.40625 0)"/>
      </g>
     </g>
    </g>
    <g id="xtick_12">
     <g id="line2d_19">
      <g>
       <use xlink:href="#m97cd8e302d" x="431.319334" y="335.2" style="fill: #ffffff; stroke: #ffffff; stroke-width: 0.8"/>
      </g>
     </g>
     <g id="text_19">
      <!-- 0.3 -->
      <g style="fill: #ffffff" transform="translate(425.753241 347.518359) scale(0.07 -0.07)">
       <use xlink:href="#DejaVuSans-13"/>
       <use xlink:href="#DejaVuSans-11" transform="translate(63.625 0)"/>
       <use xlink:href="#DejaVuSans-16" transform="translate(95.40625 0)"/>
      </g>
     </g>
    </g>
    <g id="xtick_13">
     <g id="line2d_20">
      <g>
       <use xlink:href="#m97cd8e302d" x="555.68315" y="335.2" style="fill: #ffffff; stroke: #ffffff; stroke-width: 0.8"/>
      </g>
     </g>
     <g id="text_20">
      <!-- 0.4 -->
      <g style="fill: #ffffff" transform="translate(550.117056 347.518359) scale(0.07 -0.07)">
       <use xlink:href="#DejaVuSans-13"/>
       <use xlink:href="#DejaVuSans-11" transform="translate(63.625 0)"/>
       <use xlink:href="#DejaVuSans-17" transform="translate(95.40625 0)"/>
      </g>
     </g>
    </g>
    <g id="xtick_14">
     <g id="line2d_21">
      <g>
       <use xlink:href="#m97cd8e302d" x="680.046965" y="335.2" style="fill: #ffffff; stroke: #ffffff; stroke-width: 0.8"/>
      </g>
     </g>
     <g id="text_21">
      <!-- 0.5 -->
      <g style="fill: #ffffff" transform="translate(674.480871 347.518359) scale(0.07 -0.07)">
       <use xlink:href="#DejaVuSans-13"/>
       <use xlink:href="#DejaVuSans-11" transform="translate(63.625 0)"/>
       <use xlink:href="#DejaVuSans-18" transform="translate(95.40625 0)"/>
      </g>
     </g>
    </g>
   </g>
   <g id="matplotlib.axis_4">
    <g id="ytick_7">
     <g id="line2d_22">
      <g>
       <use xlink:href="#m8d7baf63c2" x="30.76" y="329.890488" style="fill: #ffffff; stroke: #ffffff; stroke-width: 0.8"/>
      </g>
     </g>
     <g id="text_22">
      <!-- 0 -->
      <g style="fill: #ffffff" transform="translate(19.30625 332.549668) scale(0.07 -0.07)">
       <use xlink:href="#DejaVuSans-13"/>
      </g>
     </g>
    </g>
    <g id="ytick_8">
     <g id="line2d_23">
      <g>
       <use xlink:href="#m8d7baf63c2" x="30.76" y="313.833775" style="fill: #ffffff; stroke: #ffffff; stroke-width: 0.8"/>
      </g>
     </g>
     <g id="text_23">
      <!-- 20 -->
      <g style="fill: #ffffff" transform="translate(14.8525 316.492954) scale(0.07 -0.07)">
       <use xlink:href="#DejaVuSans-15"/>
       <use xlink:href="#DejaVuSans-13" transform="translate(63.625 0)"/>
      </g>
     </g>
    </g>
    <g id="ytick_9">
     <g id="line2d_24">
      <g>
       <use xlink:href="#m8d7baf63c2" x="30.76" y="297.777062" style="fill: #ffffff; stroke: #ffffff; stroke-width: 0.8"/>
      </g>
     </g>
     <g id="text_24">
      <!-- 40 -->
      <g style="fill: #ffffff" transform="translate(14.8525 300.436241) scale(0.07 -0.07)">
       <use xlink:href="#DejaVuSans-17"/>
       <use xlink:href="#DejaVuSans-13" transform="translate(63.625 0)"/>
      </g>
     </g>
    </g>
    <g id="ytick_10">
     <g id="line2d_25">
      <g>
       <use xlink:href="#m8d7baf63c2" x="30.76" y="281.720348" style="fill: #ffffff; stroke: #ffffff; stroke-width: 0.8"/>
      </g>
     </g>
     <g id="text_25">
      <!-- 60 -->
      <g style="fill: #ffffff" transform="translate(14.8525 284.379528) scale(0.07 -0.07)">
       <defs>
        <path id="DejaVuSans-19" d="M 2113 2584 
Q 1688 2584 1439 2293 
Q 1191 2003 1191 1497 
Q 1191 994 1439 701 
Q 1688 409 2113 409 
Q 2538 409 2786 701 
Q 3034 994 3034 1497 
Q 3034 2003 2786 2293 
Q 2538 2584 2113 2584 
z
M 3366 4563 
L 3366 3988 
Q 3128 4100 2886 4159 
Q 2644 4219 2406 4219 
Q 1781 4219 1451 3797 
Q 1122 3375 1075 2522 
Q 1259 2794 1537 2939 
Q 1816 3084 2150 3084 
Q 2853 3084 3261 2657 
Q 3669 2231 3669 1497 
Q 3669 778 3244 343 
Q 2819 -91 2113 -91 
Q 1303 -91 875 529 
Q 447 1150 447 2328 
Q 447 3434 972 4092 
Q 1497 4750 2381 4750 
Q 2619 4750 2861 4703 
Q 3103 4656 3366 4563 
z
" transform="scale(0.015625)"/>
       </defs>
       <use xlink:href="#DejaVuSans-19"/>
       <use xlink:href="#DejaVuSans-13" transform="translate(63.625 0)"/>
      </g>
     </g>
    </g>
    <g id="ytick_11">
     <g id="line2d_26">
      <g>
       <use xlink:href="#m8d7baf63c2" x="30.76" y="265.663635" style="fill: #ffffff; stroke: #ffffff; stroke-width: 0.8"/>
      </g>
     </g>
     <g id="text_26">
      <!-- 80 -->
      <g style="fill: #ffffff" transform="translate(14.8525 268.322815) scale(0.07 -0.07)">
       <defs>
        <path id="DejaVuSans-1b" d="M 2034 2216 
Q 1584 2216 1326 1975 
Q 1069 1734 1069 1313 
Q 1069 891 1326 650 
Q 1584 409 2034 409 
Q 2484 409 2743 651 
Q 3003 894 3003 1313 
Q 3003 1734 2745 1975 
Q 2488 2216 2034 2216 
z
M 1403 2484 
Q 997 2584 770 2862 
Q 544 3141 544 3541 
Q 544 4100 942 4425 
Q 1341 4750 2034 4750 
Q 2731 4750 3128 4425 
Q 3525 4100 3525 3541 
Q 3525 3141 3298 2862 
Q 3072 2584 2669 2484 
Q 3125 2378 3379 2068 
Q 3634 1759 3634 1313 
Q 3634 634 3220 271 
Q 2806 -91 2034 -91 
Q 1263 -91 848 271 
Q 434 634 434 1313 
Q 434 1759 690 2068 
Q 947 2378 1403 2484 
z
M 1172 3481 
Q 1172 3119 1398 2916 
Q 1625 2713 2034 2713 
Q 2441 2713 2670 2916 
Q 2900 3119 2900 3481 
Q 2900 3844 2670 4047 
Q 2441 4250 2034 4250 
Q 1625 4250 1398 4047 
Q 1172 3844 1172 3481 
z
" transform="scale(0.015625)"/>
       </defs>
       <use xlink:href="#DejaVuSans-1b"/>
       <use xlink:href="#DejaVuSans-13" transform="translate(63.625 0)"/>
      </g>
     </g>
    </g>
    <g id="ytick_12">
     <g id="line2d_27">
      <g>
       <use xlink:href="#m8d7baf63c2" x="30.76" y="249.606922" style="fill: #ffffff; stroke: #ffffff; stroke-width: 0.8"/>
      </g>
     </g>
     <g id="text_27">
      <!-- 100 -->
      <g style="fill: #ffffff" transform="translate(10.39875 252.266102) scale(0.07 -0.07)">
       <use xlink:href="#DejaVuSans-14"/>
       <use xlink:href="#DejaVuSans-13" transform="translate(63.625 0)"/>
       <use xlink:href="#DejaVuSans-13" transform="translate(127.25 0)"/>
      </g>
     </g>
    </g>
    <g id="ytick_13">
     <g id="line2d_28">
      <g>
       <use xlink:href="#m8d7baf63c2" x="30.76" y="233.550209" style="fill: #ffffff; stroke: #ffffff; stroke-width: 0.8"/>
      </g>
     </g>
     <g id="text_28">
      <!-- 120 -->
      <g style="fill: #ffffff" transform="translate(10.39875 236.209388) scale(0.07 -0.07)">
       <use xlink:href="#DejaVuSans-14"/>
       <use xlink:href="#DejaVuSans-15" transform="translate(63.625 0)"/>
       <use xlink:href="#DejaVuSans-13" transform="translate(127.25 0)"/>
      </g>
     </g>
    </g>
    <g id="ytick_14">
     <g id="line2d_29">
      <g>
       <use xlink:href="#m8d7baf63c2" x="30.76" y="217.493496" style="fill: #ffffff; stroke: #ffffff; stroke-width: 0.8"/>
      </g>
     </g>
     <g id="text_29">
      <!-- 140 -->
      <g style="fill: #ffffff" transform="translate(10.39875 220.152675) scale(0.07 -0.07)">
       <use xlink:href="#DejaVuSans-14"/>
       <use xlink:href="#DejaVuSans-17" transform="translate(63.625 0)"/>
       <use xlink:href="#DejaVuSans-13" transform="translate(127.25 0)"/>
      </g>
     </g>
    </g>
    <g id="ytick_15">
     <g id="line2d_30">
      <g>
       <use xlink:href="#m8d7baf63c2" x="30.76" y="201.436782" style="fill: #ffffff; stroke: #ffffff; stroke-width: 0.8"/>
      </g>
     </g>
     <g id="text_30">
      <!-- 160 -->
      <g style="fill: #ffffff" transform="translate(10.39875 204.095962) scale(0.07 -0.07)">
       <use xlink:href="#DejaVuSans-14"/>
       <use xlink:href="#DejaVuSans-19" transform="translate(63.625 0)"/>
       <use xlink:href="#DejaVuSans-13" transform="translate(127.25 0)"/>
      </g>
     </g>
    </g>
   </g>
   <g id="line2d_31">
    <path d="M 61.598182 291.522903 
L 64.968475 206.870909 
L 68.338768 303.39633 
L 71.709061 281.169634 
L 75.079354 270.19034 
L 78.449647 284.299359 
L 81.81994 255.288377 
L 85.190233 306.391409 
L 88.560527 300.399555 
L 91.93082 296.828261 
L 95.301113 311.20504 
L 98.671406 290.864747 
L 102.041699 288.055086 
L 105.411992 296.30748 
L 108.782285 263.797616 
L 112.152578 307.167384 
L 115.522871 283.216007 
L 118.893164 298.177335 
L 122.263458 280.646625 
L 125.633751 306.54069 
L 129.004044 288.025944 
L 132.374337 280.683191 
L 135.74463 273.61764 
L 139.114923 284.563442 
L 142.485216 309.803402 
L 145.855509 265.082153 
L 149.225802 300.414798 
L 152.596095 309.049519 
L 155.966388 306.551133 
L 159.336682 299.114391 
L 162.706975 286.85964 
L 166.077268 304.673857 
L 169.447561 277.034247 
L 172.817854 278.392782 
L 176.188147 273.692121 
L 179.55844 311.083595 
L 182.928733 288.953842 
L 186.299026 301.218465 
L 189.669319 285.819008 
L 193.039613 291.192325 
L 196.409906 277.288496 
L 199.780199 299.854507 
L 203.150492 319.475 
L 206.520785 323.820572 
L 209.891078 284.265956 
L 213.261371 301.503258 
L 216.631664 302.31918 
L 220.001957 284.836453 
L 223.37225 288.007027 
L 226.742543 248.403019 
L 230.112837 297.372764 
L 233.48313 259.428965 
L 236.853423 299.109456 
L 240.223716 275.215739 
L 243.594009 292.895234 
L 246.964302 302.366898 
L 250.334595 283.172273 
L 253.704888 318.080798 
L 257.075181 310.993859 
L 260.445474 297.38623 
L 263.815768 262.006208 
L 267.186061 329.089091 
L 270.556354 308.749978 
L 273.926647 270.969739 
L 277.29694 310.285004 
L 280.667233 285.894301 
L 284.037526 311.959477 
L 287.407819 306.102094 
L 290.778112 292.844134 
L 294.148405 305.440161 
L 297.518698 272.891942 
L 300.888992 271.613894 
L 304.259285 271.304813 
L 307.629578 287.759497 
L 310.999871 306.276382 
L 314.370164 241.407552 
L 317.740457 295.605936 
L 321.11075 284.396326 
L 324.481043 314.015173 
L 327.851336 288.962662 
L 331.221629 294.818689 
L 334.591923 293.820546 
L 337.962216 286.383785 
L 341.332509 246.452437 
L 344.702802 283.078565 
L 348.073095 282.429209 
L 351.443388 282.851538 
L 354.813681 287.668259 
L 358.183974 288.63955 
L 361.554267 305.546614 
L 364.92456 306.325443 
L 368.294853 274.25944 
L 371.665147 255.275575 
L 375.03544 300.246694 
L 378.405733 309.811643 
L 381.776026 278.130065 
L 385.146319 293.99279 
L 388.516612 300.624021 
L 391.886905 255.852966 
L 395.257198 322.03366 
L 398.627491 265.321963 
L 401.997784 286.251233 
L 405.368077 262.915133 
L 408.738371 287.917611 
L 412.108664 295.108395 
L 415.478957 259.652334 
L 418.84925 262.206776 
L 422.219543 322.180537 
L 425.589836 302.648814 
L 428.960129 280.454601 
L 432.330422 303.154854 
L 435.700715 317.8852 
L 439.071008 276.240672 
L 442.441302 275.399561 
L 445.811595 315.143946 
L 449.181888 275.903411 
L 452.552181 280.241256 
L 455.922474 282.386881 
L 459.292767 307.831546 
L 462.66306 246.219338 
L 466.033353 271.826611 
L 469.403646 293.700744 
L 472.773939 257.230534 
L 476.144232 300.118774 
L 479.514526 285.635872 
L 482.884819 275.561205 
L 486.255112 279.983026 
L 489.625405 296.101916 
L 492.995698 309.545034 
L 496.365991 321.394717 
L 499.736284 289.551657 
L 503.106577 287.741712 
L 506.47687 325.768378 
L 509.847163 285.5761 
L 513.217457 298.946134 
L 516.58775 280.213169 
L 519.958043 320.2909 
L 523.328336 297.434645 
L 526.698629 300.288959 
L 530.068922 283.865261 
L 533.439215 287.689425 
L 536.809508 309.843458 
L 540.179801 300.34149 
L 543.550094 291.335783 
L 546.920387 301.693291 
L 550.290681 289.979303 
L 553.660974 318.168159 
L 557.031267 301.046062 
L 560.40156 295.196212 
L 563.771853 318.444898 
L 567.142146 290.794073 
L 570.512439 309.191616 
L 573.882732 293.778145 
L 577.253025 307.271198 
L 580.623318 277.566534 
L 583.993612 265.079015 
L 587.363905 274.086621 
L 590.734198 282.679943 
L 594.104491 311.5295 
L 597.474784 257.000986 
L 600.845077 305.108242 
L 604.21537 302.909771 
L 607.585663 290.801064 
L 610.955956 280.312178 
L 614.326249 307.138063 
L 617.696542 320.174012 
L 621.066836 286.949902 
L 624.437129 281.991396 
L 627.807422 284.244966 
L 631.177715 263.121015 
L 634.548008 300.568615 
L 637.918301 263.787036 
L 641.288594 281.885687 
L 644.658887 288.631126 
L 648.02918 309.332371 
L 651.399473 304.936078 
L 654.769767 259.809625 
L 658.14006 302.742002 
L 661.510353 277.823152 
L 664.880646 295.418357 
L 668.250939 304.489349 
L 671.621232 272.901798 
L 674.991525 281.199089 
L 678.361818 311.745786 
L 678.361818 311.745786 
" clip-path="url(#pbaeb9b2f89)" style="fill: none; stroke: #58a6ff; stroke-width: 1.2; stroke-linecap: square"/>
   </g>
   <g id="patch_8">
    <path d="M 30.76 335.2 
L 30.76 200.76 
" style="fill: none; stroke: #30363d; stroke-width: 0.8; stroke-linejoin: miter; stroke-linecap: square"/>
   </g>
   <g id="patch_9">
    <path d="M 709.2 335.2 
L 709.2 200.76 
" style="fill: none; stroke: #30363d; stroke-width: 0.8; stroke-linejoin: miter; stroke-linecap: square"/>
   </g>
   <g id="patch_10">
    <path d="M 30.76 335.2 
L 709.2 335.2 
" style="fill: none; stroke: #30363d; stroke-width: 0.8; stroke-linejoin: miter; stroke-linecap: square"/>
   </g>
   <g id="patch_11">
    <path d="M 30.76 200.76 
L 709.2 200.76 
" style="fill: none; stroke: #30363d; stroke-width: 0.8; stroke-linejoin: miter; stroke-linecap: square"/>
   </g>
   <g id="text_31">
    <!-- Commit rhythm — frequency spectrum (FFT) -->
    <g style="fill: #ffffff" transform="translate(235.533125 194.76) scale(0.12 -0.12)">
     <defs>
      <path id="DejaVuSans-4b" d="M 3513 2113 
L 3513 0 
L 2938 0 
L 2938 2094 
Q 2938 2591 2744 2837 
Q 2550 3084 2163 3084 
Q 1697 3084 1428 2787 
Q 1159 2491 1159 1978 
L 1159 0 
L 581 0 
L 581 4863 
L 1159 4863 
L 1159 2956 
Q 1366 3272 1645 3428 
Q 1925 3584 2291 3584 
Q 2894 3584 3203 3211 
Q 3513 2838 3513 2113 
z
" transform="scale(0.015625)"/>
      <path id="DejaVuSans-49" d="M 2375 4863 
L 2375 4384 
L 1825 4384 
Q 1516 4384 1395 4259 
Q 1275 4134 1275 3809 
L 1275 3500 
L 2222 3500 
L 2222 3053 
L 1275 3053 
L 1275 0 
L 697 0 
L 697 3053 
L 147 3053 
L 147 3500 
L 697 3500 
L 697 3744 
Q 697 4328 969 4595 
Q 1241 4863 1831 4863 
L 2375 4863 
z
" transform="scale(0.015625)"/>
      <path id="DejaVuSans-54" d="M 947 1747 
Q 947 1113 1208 752 
Q 1469 391 1925 391 
Q 2381 391 2643 752 
Q 2906 1113 2906 1747 
Q 2906 2381 2643 2742 
Q 2381 3103 1925 3103 
Q 1469 3103 1208 2742 
Q 947 2381 947 1747 
z
M 2906 525 
Q 2725 213 2448 61 
Q 2172 -91 1784 -91 
Q 1150 -91 751 415 
Q 353 922 353 1747 
Q 353 2572 751 3078 
Q 1150 3584 1784 3584 
Q 2172 3584 2448 3432 
Q 2725 3281 2906 2969 
L 2906 3500 
L 3481 3500 
L 3481 -1331 
L 2906 -1331 
L 2906 525 
z
" transform="scale(0.015625)"/>
      <path id="DejaVuSans-58" d="M 544 1381 
L 544 3500 
L 1119 3500 
L 1119 1403 
Q 1119 906 1312 657 
Q 1506 409 1894 409 
Q 2359 409 2629 706 
Q 2900 1003 2900 1516 
L 2900 3500 
L 3475 3500 
L 3475 0 
L 2900 0 
L 2900 538 
Q 2691 219 2414 64 
Q 2138 -91 1772 -91 
Q 1169 -91 856 284 
Q 544 659 544 1381 
z
M 1991 3584 
L 1991 3584 
z
" transform="scale(0.015625)"/>
      <path id="DejaVuSans-56" d="M 2834 3397 
L 2834 2853 
Q 2591 2978 2328 3040 
Q 2066 3103 1784 3103 
Q 1356 3103 1142 2972 
Q 928 2841 928 2578 
Q 928 2378 1081 2264 
Q 1234 2150 1697 2047 
L 1894 2003 
Q 2506 1872 2764 1633 
Q 3022 1394 3022 966 
Q 3022 478 2636 193 
Q 2250 -91 1575 -91 
Q 1294 -91 989 -36 
Q 684 19 347 128 
L 347 722 
Q 666 556 975 473 
Q 1284 391 1588 391 
Q 1994 391 2212 530 
Q 2431 669 2431 922 
Q 2431 1156 2273 1281 
Q 2116 1406 1581 1522 
L 1381 1569 
Q 847 1681 609 1914 
Q 372 2147 372 2553 
Q 372 3047 722 3315 
Q 1072 3584 1716 3584 
Q 2034 3584 2315 3537 
Q 2597 3491 2834 3397 
z
" transform="scale(0.015625)"/>
      <path id="DejaVuSans-53" d="M 1159 525 
L 1159 -1331 
L 581 -1331 
L 581 3500 
L 1159 3500 
L 1159 2969 
Q 1341 3281 1617 3432 
Q 1894 3584 2278 3584 
Q 2916 3584 3314 3078 
Q 3713 2572 3713 1747 
Q 3713 922 3314 415 
Q 2916 -91 2278 -91 
Q 1894 -91 1617 61 
Q 1341 213 1159 525 
z
M 3116 1747 
Q 3116 2381 2855 2742 
Q 2594 3103 2138 3103 
Q 1681 3103 1420 2742 
Q 1159 2381 1159 1747 
Q 1159 1113 1420 752 
Q 1681 391 2138 391 
Q 2594 391 2855 752 
Q 3116 1113 3116 1747 
z
" transform="scale(0.015625)"/>
      <path id="DejaVuSans-b" d="M 1984 4856 
Q 1566 4138 1362 3434 
Q 1159 2731 1159 2009 
Q 1159 1288 1364 580 
Q 1569 -128 1984 -844 
L 1484 -844 
Q 1016 -109 783 600 
Q 550 1309 550 2009 
Q 550 2706 781 3412 
Q 1013 4119 1484 4856 
L 1984 4856 
z
" transform="scale(0.015625)"/>
      <path id="DejaVuSans-29" d="M 628 4666 
L 3309 4666 
L 3309 4134 
L 1259 4134 
L 1259 2759 
L 3109 2759 
L 3109 2228 
L 1259 2228 
L 1259 0 
L 628 0 
L 628 4666 
z
" transform="scale(0.015625)"/>
      <path id="DejaVuSans-37" d="M -19 4666 
L 3928 4666 
L 3928 4134 
L 2272 4134 
L 2272 0 
L 1638 0 
L 1638 4134 
L -19 4134 
L -19 4666 
z
" transform="scale(0.015625)"/>
      <path id="DejaVuSans-c" d="M 513 4856 
L 1013 4856 
Q 1481 4119 1714 3412 
Q 1947 2706 1947 2009 
Q 1947 1309 1714 600 
Q 1481 -109 1013 -844 
L 513 -844 
Q 928 -128 1133 580 
Q 1338 1288 1338 2009 
Q 1338 2731 1133 3434 
Q 928 4138 513 4856 
z
" transform="scale(0.015625)"/>
     </defs>
     <use xlink:href="#DejaVuSans-26"/>
     <use xlink:href="#DejaVuSans-52" transform="translate(69.828125 0)"/>
     <use xlink:href="#DejaVuSans-50" transform="translate(131.015625 0)"/>
     <use xlink:href="#DejaVuSans-50" transform="translate(228.421875 0)"/>
     <use xlink:href="#DejaVuSans-4c" transform="translate(325.828125 0)"/>
     <use xlink:href="#DejaVuSans-57" transform="translate(353.609375 0)"/>
     <use xlink:href="#DejaVuSans-3" transform="translate(392.8125 0)"/>
     <use xlink:href="#DejaVuSans-55" transform="translate(424.59375 0)"/>
     <use xlink:href="#DejaVuSans-4b" transform="translate(463.953125 0)"/>
     <use xlink:href="#DejaVuSans-5c" transform="translate(527.328125 0)"/>
     <use xlink:href="#DejaVuSans-57" transform="translate(586.515625 0)"/>
     <use xlink:href="#DejaVuSans-4b" transform="translate(625.71875 0)"/>
     <use xlink:href="#DejaVuSans-50" transform="translate(689.09375 0)"/>
     <use xlink:href="#DejaVuSans-3" transform="translate(786.5 0)"/>
     <use xlink:href="#DejaVuSans-af6" transform="translate(818.28125 0)"/>
     <use xlink:href="#DejaVuSans-3" transform="translate(918.28125 0)"/>
     <use xlink:href="#DejaVuSans-49" transform="translate(950.0625 0)"/>
     <use xlink:href="#DejaVuSans-55" transform="translate(985.265625 0)"/>
     <use xlink:href="#DejaVuSans-48" transform="translate(1024.171875 0)"/>
     <use xlink:href="#DejaVuSans-54" transform="translate(1085.703125 0)"/>
     <use xlink:href="#DejaVuSans-58" transform="translate(1149.1875 0)"/>
     <use xlink:href="#DejaVuSans-48" transform="translate(1212.5625 0)"/>
     <use xlink:href="#DejaVuSans-51" transform="translate(1274.09375 0)"/>
     <use xlink:href="#DejaVuSans-46" transform="translate(1337.46875 0)"/>
     <use xlink:href="#DejaVuSans-5c" transform="translate(1392.453125 0)"/>
     <use xlink:href="#DejaVuSans-3" transform="translate(1451.640625 0)"/>
     <use xlink:href="#DejaVuSans-56" transform="translate(1483.421875 0)"/>
     <use xlink:href="#DejaVuSans-53" transform="translate(1535.515625 0)"/>
     <use xlink:href="#DejaVuSans-48" transform="translate(1599 0)"/>
     <use xlink:href="#DejaVuSans-46" transform="translate(1660.53125 0)"/>
     <use xlink:href="#DejaVuSans-57" transform="translate(1715.515625 0)"/>
     <use xlink:href="#DejaVuSans-55" transform="translate(1754.71875 0)"/>
     <use xlink:href="#DejaVuSans-58" transform="translate(1795.828125 0)"/>
     <use xlink:href="#DejaVuSans-50" transform="translate(1859.203125 0)"/>
     <use xlink:href="#DejaVuSans-3" transform="translate(1956.609375 0)"/>
     <use xlink:href="#DejaVuSans-b" transform="translate(1988.390625 0)"/>
     <use xlink:href="#DejaVuSans-29" transform="translate(2027.40625 0)"/>
     <use xlink:href="#DejaVuSans-29" transform="translate(2084.921875 0)"/>
     <use xlink:href="#DejaVuSans-37" transform="translate(2140.6875 0)"/>
     <use xlink:href="#DejaVuSans-c" transform="translate(2201.765625 0)"/>
    </g>
   </g>
  </g>
 </g>
 <defs>
  <clipPath id="p2317a09121">
   <rect x="30.76" y="26.16" width="678.44" height="134.44"/>
  </clipPath>
  <clipPath id="pbaeb9b2f89">
   <rect x="30.76" y="200.76" width="678.44" height="134.44"/>
  </clipPath>
 </defs>
</svg>
