<?xml version="1.0" encoding="utf-8" standalone="no"?>
<!DOCTYPE svg PUBLIC "-//W3C//DTD SVG 1.1//EN"
  "http://www.w3.org/Graphics/SVG/1.1/DTD/svg11.dtd">
<svg xmlns:xlink="http://www.w3.org/1999/xlink" width="720pt" height="360pt" viewBox="0 0 720 360" xmlns="http://www.w3.org/2000/svg" version="1.1">
 <metadata>
  <rdf:RDF xmlns:dc="http://purl.org/dc/elements/1.1/" xmlns:cc="http://creativecommons.org/ns#" xmlns:rdf="http://www.w3.org/1999/02/22-rdf-syntax-ns#">
   <cc:Work>
    <dc:type rdf:resource="http://purl.org/dc/dcmitype/StillImage"/>
    <dc:date>2026-08-08T02:28:00.118008</dc:date>
    <dc:format>image/svg+xml</dc:format>
    <dc:creator>
     <cc:Agent>
      <dc:title>Matplotlib v3.11.1, https://matplotlib.org/</dc:title>
     </cc:Agent>
    </dc:creator>
   </cc:Work>
  </rdf:RDF>
 </metadata>
 <defs>
  <style type="text/css">*{stroke-linejoin: round; stroke-linecap: butt}</style>
 </defs>
 <g id="figure_1">
  <g id="patch_1">
   <path d="M 0 360 
L 720 360 
L 720 0 
L 0 0 
z
" style="fill: #0d1117"/>
  </g>
  <g id="axes_1">
   <g id="patch_2">
    <path d="M 30.76 160.6 
L 709.2 160.6 
L 709.2 26.16 
L 30.76 26.16 
z
" style="fill: #0d1117"/>
   </g>
   <g id="matplotlib.axis_1">
    <g id="xtick_1">
     <g id="line2d_1">
      <defs>
       <path id="m02ea5a1911" d="M 0 0 
L 0 3.5 
" style="stroke: #ffffff; stroke-width: 0.8"/>
      </defs>
      <g>
       <use xlink:href="#m02ea5a1911" x="61.598182" y="160.6" style="fill: #ffffff; stroke: #ffffff; stroke-width: 0.8"/>
      </g>
     </g>
     <g id="text_1">
      <!-- 0 -->
      <g style="fill: #ffffff" transform="translate(59.371307 172.918359) scale(0.07 -0.07)">
       <defs>
        <path id="DejaVuSans-13" d="M 2034 4250 
Q 1547 4250 1301 3770 
Q 1056 3291 1056 2328 
Q 1056 1369 1301 889 
Q 1547 409 2034 409 
Q 2525 409 2770 889 
Q 3016 1369 3016 2328 
Q 3016 3291 2770 3770 
Q 2525 4250 2034 4250 
z
M 2034 4750 
Q 2819 4750 3233 4129 
Q 3647 3509 3647 2328 
Q 3647 1150 3233 529 
Q 2819 -91 2034 -91 
Q 1250 -91 836 529 
Q 422 1150 422 2328 
Q 422 3509 836 4129 
Q 1250 4750 2034 4750 
z
" transform="scale(0.015625)"/>
       </defs>
       <use xlink:href="#DejaVuSans-13"/>
      </g>
     </g>
    </g>
    <g id="xtick_2">
     <g id="line2d_2">
      <g>
       <use xlink:href="#m02ea5a1911" x="146.318462" y="160.6" style="fill: #ffffff; stroke: #ffffff; stroke-width: 0.8"/>
      </g>
     </g>
     <g id="text_2">
      <!-- 50 -->
      <g style="fill: #ffffff" transform="translate(141.864712 172.918359) scale(0.07 -0.07)">
       <defs>
        <path id="DejaVuSans-18" d="M 691 4666 
L 3169 4666 
L 3169 4134 
L 1269 4134 
L 1269 2991 
Q 1406 3038 1543 3061 
Q 1681 3084 1819 3084 
Q 2600 3084 3056 2656 
Q 3513 2228 3513 1497 
Q 3513 744 3044 326 
Q 2575 -91 1722 -91 
Q 1428 -91 1123 -41 
Q 819 9 494 109 
L 494 744 
Q 775 591 1075 516 
Q 1375 441 1709 441 
Q 2250 441 2565 725 
Q 2881 1009 2881 1497 
Q 2881 1984 2565 2268 
Q 2250 2553 1709 2553 
Q 1456 2553 1204 2497 
Q 953 2441 691 2322 
L 691 4666 
z
" transform="scale(0.015625)"/>
       </defs>
       <use xlink:href="#DejaVuSans-18"/>
       <use xlink:href="#DejaVuSans-13" transform="translate(63.625 0)"/>
      </g>
     </g>
    </g>
    <g id="xtick_3">
     <g id="line2d_3">
      <g>
       <use xlink:href="#m02ea5a1911" x="231.038741" y="160.6" style="fill: #ffffff; stroke: #ffffff; stroke-width: 0.8"/>
      </g>
     </g>
     <g id="text_3">
      <!-- 100 -->
      <g style="fill: #ffffff" transform="translate(224.358116 172.918359) scale(0.07 -0.07)">
       <defs>
        <path id="DejaVuSans-14" d="M 794 531 
L 1825 531 
L 1825 4091 
L 703 3866 
L 703 4441 
L 1819 4666 
L 2450 4666 
L 2450 531 
L 3481 531 
L 3481 0 
L 794 0 
L 794 531 
z
" transform="scale(0.015625)"/>
       </defs>
       <use xlink:href="#DejaVuSans-14"/>
       <use xlink:href="#DejaVuSans-13" transform="translate(63.625 0)"/>
       <use xlink:href="#DejaVuSans-13" transform="translate(127.25 0)"/>
      </g>
     </g>
    </g>
    <g id="xtick_4">
     <g id="line2d_4">
      <g>
       <use xlink:href="#m02ea5a1911" x="315.759021" y="160.6" style="fill: #ffffff; stroke: #ffffff; stroke-width: 0.8"/>
      </g>
     </g>
     <g id="text_4">
      <!-- 150 -->
      <g style="fill: #ffffff" transform="translate(309.078396 172.918359) scale(0.07 -0.07)">
       <use xlink:href="#DejaVuSans-14"/>
       <use xlink:href="#DejaVuSans-18" transform="translate(63.625 0)"/>
       <use xlink:href="#DejaVuSans-13" transform="translate(127.25 0)"/>
      </g>
     </g>
    </g>
    <g id="xtick_5">
     <g id="line2d_5">
      <g>
       <use xlink:href="#m02ea5a1911" x="400.479301" y="160.6" style="fill: #ffffff; stroke: #ffffff; stroke-width: 0.8"/>
      </g>
     </g>
     <g id="text_5">
      <!-- 200 -->
      <g style="fill: #ffffff" transform="translate(393.798676 172.918359) scale(0.07 -0.07)">
       <defs>
        <path id="DejaVuSans-15" d="M 1228 531 
L 3431 531 
L 3431 0 
L 469 0 
L 469 531 
Q 828 903 1448 1529 
Q 2069 2156 2228 2338 
Q 2531 2678 2651 2914 
Q 2772 3150 2772 3378 
Q 2772 3750 2511 3984 
Q 2250 4219 1831 4219 
Q 1534 4219 1204 4116 
Q 875 4013 500 3803 
L 500 4441 
Q 881 4594 1212 4672 
Q 1544 4750 1819 4750 
Q 2544 4750 2975 4387 
Q 3406 4025 3406 3419 
Q 3406 3131 3298 2873 
Q 3191 2616 2906 2266 
Q 2828 2175 2409 1742 
Q 1991 1309 1228 531 
z
" transform="scale(0.015625)"/>
       </defs>
       <use xlink:href="#DejaVuSans-15"/>
       <use xlink:href="#DejaVuSans-13" transform="translate(63.625 0)"/>
       <use xlink:href="#DejaVuSans-13" transform="translate(127.25 0)"/>
      </g>
     </g>
    </g>
    <g id="xtick_6">
     <g id="line2d_6">
      <g>
       <use xlink:href="#m02ea5a1911" x="485.19958" y="160.6" style="fill: #ffffff; stroke: #ffffff; stroke-width: 0.8"/>
      </g>
     </g>
     <g id="text_6">
      <!-- 250 -->
      <g style="fill: #ffffff" transform="translate(478.518955 172.918359) scale(0.07 -0.07)">
       <use xlink:href="#DejaVuSans-15"/>
       <use xlink:href="#DejaVuSans-18" transform="translate(63.625 0)"/>
       <use xlink:href="#DejaVuSans-13" transform="translate(127.25 0)"/>
      </g>
     </g>
    </g>
    <g id="xtick_7">
     <g id="line2d_7">
      <g>
       <use xlink:href="#m02ea5a1911" x="569.91986" y="160.6" style="fill: #ffffff; stroke: #ffffff; stroke-width: 0.8"/>
      </g>
     </g>
     <g id="text_7">
      <!-- 300 -->
      <g style="fill: #ffffff" transform="translate(563.239235 172.918359) scale(0.07 -0.07)">
       <defs>
        <path id="DejaVuSans-16" d="M 2597 2516 
Q 3050 2419 3304 2112 
Q 3559 1806 3559 1356 
Q 3559 666 3084 287 
Q 2609 -91 1734 -91 
Q 1441 -91 1130 -33 
Q 819 25 488 141 
L 488 750 
Q 750 597 1062 519 
Q 1375 441 1716 441 
Q 2309 441 2620 675 
Q 2931 909 2931 1356 
Q 2931 1769 2642 2001 
Q 2353 2234 1838 2234 
L 1294 2234 
L 1294 2753 
L 1863 2753 
Q 2328 2753 2575 2939 
Q 2822 3125 2822 3475 
Q 2822 3834 2567 4026 
Q 2313 4219 1838 4219 
Q 1578 4219 1281 4162 
Q 984 4106 628 3988 
L 628 4550 
Q 988 4650 1302 4700 
Q 1616 4750 1894 4750 
Q 2613 4750 3031 4423 
Q 3450 4097 3450 3541 
Q 3450 3153 3228 2886 
Q 3006 2619 2597 2516 
z
" transform="scale(0.015625)"/>
       </defs>
       <use xlink:href="#DejaVuSans-16"/>
       <use xlink:href="#DejaVuSans-13" transform="translate(63.625 0)"/>
       <use xlink:href="#DejaVuSans-13" transform="translate(127.25 0)"/>
      </g>
     </g>
    </g>
    <g id="xtick_8">
     <g id="line2d_8">
      <g>
       <use xlink:href="#m02ea5a1911" x="654.64014" y="160.6" style="fill: #ffffff; stroke: #ffffff; stroke-width: 0.8"/>
      </g>
     </g>
     <g id="text_8">
      <!-- 350 -->
      <g style="fill: #ffffff" transform="translate(647.959515 172.918359) scale(0.07 -0.07)">
       <use xlink:href="#DejaVuSans-16"/>
       <use xlink:href="#DejaVuSans-18" transform="translate(63.625 0)"/>
       <use xlink:href="#DejaVuSans-13" transform="translate(127.25 0)"/>
      </g>
     </g>
    </g>
   </g>
   <g id="matplotlib.axis_2">
    <g id="ytick_1">
     <g id="line2d_9">
      <defs>
       <path id="m40eb812317" d="M 0 0 
L -3.5 0 
" style="stroke: #ffffff; stroke-width: 0.8"/>
      </defs>
      <g>
       <use xlink:href="#m40eb812317" x="30.76" y="154.489091" style="fill: #ffffff; stroke: #ffffff; stroke-width: 0.8"/>
      </g>
     </g>
     <g id="text_9">
      <!-- 0 -->
      <g style="fill: #ffffff" transform="translate(19.30625 157.148271) scale(0.07 -0.07)">
       <use xlink:href="#DejaVuSans-13"/>
      </g>
     </g>
    </g>
    <g id="ytick_2">
     <g id="line2d_10">
      <g>
       <use xlink:href="#m40eb812317" x="30.76" y="131.366732" style="fill: #ffffff; stroke: #ffffff; stroke-width: 0.8"/>
      </g>
     </g>
     <g id="text_10">
      <!-- 1 -->
      <g style="fill: #ffffff" transform="translate(19.30625 134.025912) scale(0.07 -0.07)">
       <use xlink:href="#DejaVuSans-14"/>
      </g>
     </g>
    </g>
    <g id="ytick_3">
     <g id="line2d_11">
      <g>
       <use xlink:href="#m40eb812317" x="30.76" y="108.244373" style="fill: #ffffff; stroke: #ffffff; stroke-width: 0.8"/>
      </g>
     </g>
     <g id="text_11">
      <!-- 2 -->
      <g style="fill: #ffffff" transform="translate(19.30625 110.903553) scale(0.07 -0.07)">
       <use xlink:href="#DejaVuSans-15"/>
      </g>
     </g>
    </g>
    <g id="ytick_4">
     <g id="line2d_12">
      <g>
       <use xlink:href="#m40eb812317" x="30.76" y="85.122015" style="fill: #ffffff; stroke: #ffffff; stroke-width: 0.8"/>
      </g>
     </g>
     <g id="text_12">
      <!-- 3 -->
      <g style="fill: #ffffff" transform="translate(19.30625 87.781194) scale(0.07 -0.07)">
       <use xlink:href="#DejaVuSans-16"/>
      </g>
     </g>
    </g>
    <g id="ytick_5">
     <g id="line2d_13">
      <g>
       <use xlink:href="#m40eb812317" x="30.76" y="61.999656" style="fill: #ffffff; stroke: #ffffff; stroke-width: 0.8"/>
      </g>
     </g>
     <g id="text_13">
      <!-- 4 -->
      <g style="fill: #ffffff" transform="translate(19.30625 64.658836) scale(0.07 -0.07)">
       <defs>
        <path id="DejaVuSans-17" d="M 2419 4116 
L 825 1625 
L 2419 1625 
L 2419 4116 
z
M 2253 4666 
L 3047 4666 
L 3047 1625 
L 3713 1625 
L 3713 1100 
L 3047 1100 
L 3047 0 
L 2419 0 
L 2419 1100 
L 313 1100 
L 313 1709 
L 2253 4666 
z
" transform="scale(0.015625)"/>
       </defs>
       <use xlink:href="#DejaVuSans-17"/>
      </g>
     </g>
    </g>
    <g id="ytick_6">
     <g id="line2d_14">
      <g>
       <use xlink:href="#m40eb812317" x="30.76" y="38.877297" style="fill: #ffffff; stroke: #ffffff; stroke-width: 0.8"/>
      </g>
     </g>
     <g id="text_14">
      <!-- 5 -->
      <g style="fill: #ffffff" transform="translate(19.30625 41.536477) scale(0.07 -0.07)">
       <use xlink:href="#DejaVuSans-18"/>
      </g>
     </g>
    </g>
   </g>
   <g id="line2d_15">
    <path d="M 61.598182 134.669926 
L 64.986993 134.669926 
L 66.681399 137.97312 
L 68.375804 147.882703 
L 71.764615 147.882703 
L 73.459021 144.579509 
L 75.153427 144.579509 
L 76.847832 131.366732 
L 78.542238 131.366732 
L 80.236643 104.941179 
L 81.931049 101.637985 
L 83.625455 101.637985 
L 85.31986 91.728403 
L 87.014266 71.909238 
L 88.708671 85.122015 
L 90.403077 85.122015 
L 92.097483 111.547568 
L 95.486294 98.334791 
L 97.180699 98.334791 
L 98.875105 91.728403 
L 100.56951 91.728403 
L 102.263916 85.122015 
L 103.958322 85.122015 
L 105.652727 91.728403 
L 107.347133 91.728403 
L 109.041538 104.941179 
L 110.735944 111.547568 
L 112.43035 104.941179 
L 114.124755 88.425209 
L 115.819161 85.122015 
L 117.513566 85.122015 
L 119.207972 91.728403 
L 120.902378 75.212432 
L 122.596783 95.031597 
L 124.291189 95.031597 
L 125.985594 118.153956 
L 127.68 111.547568 
L 131.068811 118.153956 
L 132.763217 124.760344 
L 134.457622 108.244373 
L 136.152028 111.547568 
L 137.846434 111.547568 
L 139.540839 124.760344 
L 141.235245 121.45715 
L 142.92965 101.637985 
L 144.624056 111.547568 
L 146.318462 128.063538 
L 148.012867 131.366732 
L 149.707273 124.760344 
L 151.401678 124.760344 
L 153.096084 128.063538 
L 154.79049 147.882703 
L 159.873706 147.882703 
L 161.568112 121.45715 
L 163.262517 101.637985 
L 164.956923 95.031597 
L 166.651329 91.728403 
L 168.345734 91.728403 
L 170.04014 78.515627 
L 171.734545 78.515627 
L 173.428951 111.547568 
L 175.123357 131.366732 
L 176.817762 137.97312 
L 178.512168 141.276314 
L 180.206573 141.276314 
L 181.900979 144.579509 
L 183.595385 137.97312 
L 185.28979 137.97312 
L 186.984196 104.941179 
L 190.373007 104.941179 
L 192.067413 101.637985 
L 193.761818 45.483686 
L 197.150629 45.483686 
L 198.845035 75.212432 
L 202.233846 75.212432 
L 203.928252 65.30285 
L 205.622657 131.366732 
L 207.317063 137.97312 
L 209.011469 111.547568 
L 210.705874 104.941179 
L 212.40028 101.637985 
L 214.094685 91.728403 
L 215.789091 104.941179 
L 219.177902 104.941179 
L 220.872308 131.366732 
L 222.566713 137.97312 
L 224.261119 141.276314 
L 225.955524 151.185897 
L 231.038741 151.185897 
L 232.733147 147.882703 
L 234.427552 151.185897 
L 242.89958 151.185897 
L 244.593986 154.489091 
L 283.565315 154.489091 
L 285.25972 134.669926 
L 286.954126 131.366732 
L 292.037343 131.366732 
L 293.731748 128.063538 
L 295.426154 128.063538 
L 297.120559 147.882703 
L 298.814965 151.185897 
L 300.509371 151.185897 
L 302.203776 141.276314 
L 303.898182 141.276314 
L 305.592587 144.579509 
L 312.37021 144.579509 
L 314.064615 151.185897 
L 324.231049 151.185897 
L 325.925455 154.489091 
L 327.61986 141.276314 
L 329.314266 141.276314 
L 331.008671 134.669926 
L 332.703077 134.669926 
L 334.397483 131.366732 
L 337.786294 131.366732 
L 339.480699 144.579509 
L 341.175105 144.579509 
L 342.86951 151.185897 
L 344.563916 151.185897 
L 346.258322 154.489091 
L 356.424755 154.489091 
L 358.119161 137.97312 
L 361.507972 137.97312 
L 363.202378 121.45715 
L 368.285594 121.45715 
L 369.98 137.97312 
L 371.674406 131.366732 
L 373.368811 131.366732 
L 375.063217 144.579509 
L 378.452028 144.579509 
L 380.146434 128.063538 
L 381.840839 128.063538 
L 383.535245 134.669926 
L 385.22965 131.366732 
L 386.924056 134.669926 
L 388.618462 131.366732 
L 390.312867 131.366732 
L 392.007273 144.579509 
L 397.09049 144.579509 
L 398.784895 141.276314 
L 400.479301 131.366732 
L 405.562517 131.366732 
L 407.256923 114.850762 
L 410.645734 121.45715 
L 412.34014 134.669926 
L 414.034545 134.669926 
L 417.423357 121.45715 
L 419.117762 137.97312 
L 420.812168 137.97312 
L 422.506573 114.850762 
L 424.200979 104.941179 
L 425.895385 104.941179 
L 429.284196 111.547568 
L 430.978601 111.547568 
L 432.673007 91.728403 
L 434.367413 114.850762 
L 436.061818 124.760344 
L 437.756224 124.760344 
L 439.450629 131.366732 
L 441.145035 134.669926 
L 442.839441 134.669926 
L 444.533846 154.489091 
L 446.228252 154.489091 
L 447.922657 85.122015 
L 449.617063 85.122015 
L 451.311469 78.515627 
L 456.394685 78.515627 
L 458.089091 48.78688 
L 459.783497 85.122015 
L 461.477902 85.122015 
L 463.172308 81.818821 
L 466.561119 81.818821 
L 468.255524 75.212432 
L 469.94993 98.334791 
L 471.644336 131.366732 
L 473.338741 131.366732 
L 475.033147 134.669926 
L 476.727552 134.669926 
L 478.421958 124.760344 
L 480.116364 128.063538 
L 481.810769 134.669926 
L 483.505175 68.606044 
L 485.19958 68.606044 
L 486.893986 75.212432 
L 488.588392 68.606044 
L 490.282797 78.515627 
L 491.977203 81.818821 
L 493.671608 81.818821 
L 495.366014 137.97312 
L 497.06042 111.547568 
L 498.754825 111.547568 
L 500.449231 118.153956 
L 503.838042 118.153956 
L 505.532448 111.547568 
L 507.226853 121.45715 
L 508.921259 147.882703 
L 515.698881 147.882703 
L 517.393287 154.489091 
L 519.087692 154.489091 
L 520.782098 137.97312 
L 530.948531 137.97312 
L 532.642937 154.489091 
L 551.281399 154.489091 
L 552.975804 144.579509 
L 563.142238 144.579509 
L 564.836643 151.185897 
L 569.91986 151.185897 
L 571.614266 111.547568 
L 575.003077 111.547568 
L 576.697483 114.850762 
L 580.086294 114.850762 
L 581.780699 111.547568 
L 583.475105 151.185897 
L 585.16951 151.185897 
L 586.863916 144.579509 
L 588.558322 144.579509 
L 590.252727 141.276314 
L 591.947133 141.276314 
L 593.641538 144.579509 
L 597.03035 144.579509 
L 598.724755 151.185897 
L 600.419161 151.185897 
L 602.113566 154.489091 
L 622.446434 154.489091 
L 624.140839 98.334791 
L 625.835245 81.818821 
L 629.224056 81.818821 
L 630.918462 32.270909 
L 634.307273 32.270909 
L 636.001678 88.425209 
L 637.696084 104.941179 
L 641.084895 104.941179 
L 642.779301 154.489091 
L 651.251329 154.489091 
L 652.945734 144.579509 
L 663.112168 144.579509 
L 664.806573 154.489091 
L 666.500979 141.276314 
L 668.195385 131.366732 
L 676.667413 131.366732 
L 678.361818 144.579509 
L 678.361818 144.579509 
" clip-path="url(#p0e3591e4a0)" style="fill: none; stroke: #39d353; stroke-width: 1.5; stroke-linecap: square"/>
   </g>
   <g id="patch_3">
    <path d="M 30.76 160.6 
L 30.76 26.16 
" style="fill: none; stroke: #30363d; stroke-width: 0.8; stroke-linejoin: miter; stroke-linecap: square"/>
   </g>
   <g id="patch_4">
    <path d="M 709.2 160.6 
L 709.2 26.16 
" style="fill: none; stroke: #30363d; stroke-width: 0.8; stroke-linejoin: miter; stroke-linecap: square"/>
   </g>
   <g id="patch_5">
    <path d="M 30.76 160.6 
L 709.2 160.6 
" style="fill: none; stroke: #30363d; stroke-width: 0.8; stroke-linejoin: miter; stroke-linecap: square"/>
   </g>
   <g id="patch_6">
    <path d="M 30.76 26.16 
L 709.2 26.16 
" style="fill: none; stroke: #30363d; stroke-width: 0.8; stroke-linejoin: miter; stroke-linecap: square"/>
   </g>
   <g id="text_15">
    <!-- Commit activity — 7-day rolling average -->
    <g style="fill: #ffffff" transform="translate(248.55875 20.16) scale(0.12 -0.12)">
     <defs>
      <path id="DejaVuSans-26" d="M 4122 4306 
L 4122 3641 
Q 3803 3938 3442 4084 
Q 3081 4231 2675 4231 
Q 1875 4231 1450 3742 
Q 1025 3253 1025 2328 
Q 1025 1406 1450 917 
Q 1875 428 2675 428 
Q 3081 428 3442 575 
Q 3803 722 4122 1019 
L 4122 359 
Q 3791 134 3420 21 
Q 3050 -91 2638 -91 
Q 1578 -91 968 557 
Q 359 1206 359 2328 
Q 359 3453 968 4101 
Q 1578 4750 2638 4750 
Q 3056 4750 3426 4639 
Q 3797 4528 4122 4306 
z
" transform="scale(0.015625)"/>
      <path id="DejaVuSans-52" d="M 1959 3097 
Q 1497 3097 1228 2736 
Q 959 2375 959 1747 
Q 959 1119 1226 758 
Q 1494 397 1959 397 
Q 2419 397 2687 759 
Q 2956 1122 2956 1747 
Q 2956 2369 2687 2733 
Q 2419 3097 1959 3097 
z
M 1959 3584 
Q 2709 3584 3137 3096 
Q 3566 2609 3566 1747 
Q 3566 888 3137 398 
Q 2709 -91 1959 -91 
Q 1206 -91 779 398 
Q 353 888 353 1747 
Q 353 2609 779 3096 
Q 1206 3584 1959 3584 
z
" transform="scale(0.015625)"/>
      <path id="DejaVuSans-50" d="M 3328 2828 
Q 3544 3216 3844 3400 
Q 4144 3584 4550 3584 
Q 5097 3584 5394 3201 
Q 5691 2819 5691 2113 
L 5691 0 
L 5113 0 
L 5113 2094 
Q 5113 2597 4934 2840 
Q 4756 3084 4391 3084 
Q 3944 3084 3684 2787 
Q 3425 2491 3425 1978 
L 3425 0 
L 2847 0 
L 2847 2094 
Q 2847 2600 2669 2842 
Q 2491 3084 2119 3084 
Q 1678 3084 1418 2786 
Q 1159 2488 1159 1978 
L 1159 0 
L 581 0 
L 581 3500 
L 1159 3500 
L 1159 2956 
Q 1356 3278 1631 3431 
Q 1906 3584 2284 3584 
Q 2666 3584 2933 3390 
Q 3200 3197 3328 2828 
z
" transform="scale(0.015625)"/>
      <path id="DejaVuSans-4c" d="M 603 3500 
L 1178 3500 
L 1178 0 
L 603 0 
L 603 3500 
z
M 603 4863 
L 1178 4863 
L 1178 4134 
L 603 4134 
L 603 4863 
z
" transform="scale(0.015625)"/>
      <path id="DejaVuSans-57" d="M 1172 4494 
L 1172 3500 
L 2356 3500 
L 2356 3053 
L 1172 3053 
L 1172 1153 
Q 1172 725 1289 603 
Q 1406 481 1766 481 
L 2356 481 
L 2356 0 
L 1766 0 
Q 1100 0 847 248 
Q 594 497 594 1153 
L 594 3053 
L 172 3053 
L 172 3500 
L 594 3500 
L 594 4494 
L 1172 4494 
z
" transform="scale(0.015625)"/>
      <path id="DejaVuSans-3" transform="scale(0.015625)"/>
      <path id="DejaVuSans-44" d="M 2194 1759 
Q 1497 1759 1228 1600 
Q 959 1441 959 1056 
Q 959 750 1161 570 
Q 1363 391 1709 391 
Q 2188 391 2477 730 
Q 2766 1069 2766 1631 
L 2766 1759 
L 2194 1759 
z
M 3341 1997 
L 3341 0 
L 2766 0 
L 2766 531 
Q 2569 213 2275 61 
Q 1981 -91 1556 -91 
Q 1019 -91 701 211 
Q 384 513 384 1019 
Q 384 1609 779 1909 
Q 1175 2209 1959 2209 
L 2766 2209 
L 2766 2266 
Q 2766 2663 2505 2880 
Q 2244 3097 1772 3097 
Q 1472 3097 1187 3025 
Q 903 2953 641 2809 
L 641 3341 
Q 956 3463 1253 3523 
Q 1550 3584 1831 3584 
Q 2591 3584 2966 3190 
Q 3341 2797 3341 1997 
z
" transform="scale(0.015625)"/>
      <path id="DejaVuSans-46" d="M 3122 3366 
L 3122 2828 
Q 2878 2963 2633 3030 
Q 2388 3097 2138 3097 
Q 1578 3097 1268 2742 
Q 959 2388 959 1747 
Q 959 1106 1268 751 
Q 1578 397 2138 397 
Q 2388 397 2633 464 
Q 2878 531 3122 666 
L 3122 134 
Q 2881 22 2623 -34 
Q 2366 -91 2075 -91 
Q 1284 -91 818 406 
Q 353 903 353 1747 
Q 353 2603 823 3093 
Q 1294 3584 2113 3584 
Q 2378 3584 2631 3529 
Q 2884 3475 3122 3366 
z
" transform="scale(0.015625)"/>
      <path id="DejaVuSans-59" d="M 191 3500 
L 800 3500 
L 1894 563 
L 2988 3500 
L 3597 3500 
L 2284 0 
L 1503 0 
L 191 3500 
z
" transform="scale(0.015625)"/>
      <path id="DejaVuSans-5c" d="M 2059 -325 
Q 1816 -950 1584 -1140 
Q 1353 -1331 966 -1331 
L 506 -1331 
L 506 -850 
L 844 -850 
Q 1081 -850 1212 -737 
Q 1344 -625 1503 -206 
L 1606 56 
L 191 3500 
L 800 3500 
L 1894 763 
L 2988 3500 
L 3597 3500 
L 2059 -325 
z
" transform="scale(0.015625)"/>
      <path id="DejaVuSans-af6" d="M 313 1978 
L 6088 1978 
L 6088 1528 
L 313 1528 
L 313 1978 
z
" transform="scale(0.015625)"/>
      <path id="DejaVuSans-1a" d="M 525 4666 
L 3525 4666 
L 3525 4397 
L 1831 0 
L 1172 0 
L 2766 4134 
L 525 4134 
L 525 4666 
z
" transform="scale(0.015625)"/>
      <path id="DejaVuSans-10" d="M 313 2009 
L 1997 2009 
L 1997 1497 
L 313 1497 
L 313 2009 
z
" transform="scale(0.015625)"/>
      <path id="DejaVuSans-47" d="M 2906 2969 
L 2906 4863 
L 3481 4863 
L 3481 0 
L 2906 0 
L 2906 525 
Q 2725 213 2448 61 
Q 2172 -91 1784 -91 
Q 1150 -91 751 415 
Q 353 922 353 1747 
Q 353 2572 751 3078 
Q 1150 3584 1784 3584 
Q 2172 3584 2448 3432 
Q 2725 3281 2906 2969 
z
M 947 1747 
Q 947 1113 1208 752 
Q 1469 391 1925 391 
Q 2381 391 2643 752 
Q 2906 1113 2906 1747 
Q 2906 2381 2643 2742 
Q 2381 3103 1925 3103 
Q 1469 3103 1208 2742 
Q 947 2381 947 1747 
z
" transform="scale(0.015625)"/>
      <path id="DejaVuSans-55" d="M 2631 2963 
Q 2534 3019 2420 3045 
Q 2306 3072 2169 3072 
Q 1681 3072 1420 2755 
Q 1159 2438 1159 1844 
L 1159 0 
L 581 0 
L 581 3500 
L 1159 3500 
L 1159 2956 
Q 1341 3275 1631 3429 
Q 1922 3584 2338 3584 
Q 2397 3584 2469 3576 
Q 2541 3569 2628 3553 
L 2631 2963 
z
" transform="scale(0.015625)"/>
      <path id="DejaVuSans-4f" d="M 603 4863 
L 1178 4863 
L 1178 0 
L 603 0 
L 603 4863 
z
" transform="scale(0.015625)"/>
      <path id="DejaVuSans-51" d="M 3513 2113 
L 3513 0 
L 2938 0 
L 2938 2094 
Q 2938 2591 2744 2837 
Q 2550 3084 2163 3084 
Q 1697 3084 1428 2787 
Q 1159 2491 1159 1978 
L 1159 0 
L 581 0 
L 581 3500 
L 1159 3500 
L 1159 2956 
Q 1366 3272 1645 3428 
Q 1925 3584 2291 3584 
Q 2894 3584 3203 3211 
Q 3513 2838 3513 2113 
z
" transform="scale(0.015625)"/>
      <path id="DejaVuSans-4a" d="M 2906 1791 
Q 2906 2416 2648 2759 
Q 2391 3103 1925 3103 
Q 1463 3103 1205 2759 
Q 947 2416 947 1791 
Q 947 1169 1205 825 
Q 1463 481 1925 481 
Q 2391 481 2648 825 
Q 2906 1169 2906 1791 
z
M 3481 434 
Q 3481 -459 3084 -895 
Q 2688 -1331 1869 -1331 
Q 1566 -1331 1297 -1286 
Q 1028 -1241 775 -1147 
L 775 -588 
Q 1028 -725 1275 -790 
Q 1522 -856 1778 -856 
Q 2344 -856 2625 -561 
Q 2906 -266 2906 331 
L 2906 616 
Q 2728 306 2450 153 
Q 2172 0 1784 0 
Q 1141 0 747 490 
Q 353 981 353 1791 
Q 353 2603 747 3093 
Q 1141 3584 1784 3584 
Q 2172 3584 2450 3431 
Q 2728 3278 2906 2969 
L 2906 3500 
L 3481 3500 
L 3481 434 
z
" transform="scale(0.015625)"/>
      <path id="DejaVuSans-48" d="M 3597 1894 
L 3597 1613 
L 953 1613 
Q 991 1019 1311 708 
Q 1631 397 2203 397 
Q 2534 397 2845 478 
Q 3156 559 3463 722 
L 3463 178 
Q 3153 47 2828 -22 
Q 2503 -91 2169 -91 
Q 1331 -91 842 396 
Q 353 884 353 1716 
Q 353 2575 817 3079 
Q 1281 3584 2069 3584 
Q 2775 3584 3186 3129 
Q 3597 2675 3597 1894 
z
M 3022 2063 
Q 3016 2534 2758 2815 
Q 2500 3097 2075 3097 
Q 1594 3097 1305 2825 
Q 1016 2553 972 2059 
L 3022 2063 
z
" transform="scale(0.015625)"/>
     </defs>
     <use xlink:href="#DejaVuSans-26"/>
     <use xlink:href="#DejaVuSans-52" transform="translate(69.828125 0)"/>
     <use xlink:href="#DejaVuSans-50" transform="translate(131.015625 0)"/>
     <use xlink:href="#DejaVuSans-50" transform="translate(228.421875 0)"/>
     <use xlink:href="#DejaVuSans-4c" transform="translate(325.828125 0)"/>
     <use xlink:href="#DejaVuSans-57" transform="translate(353.609375 0)"/>
     <use xlink:href="#DejaVuSans-3" transform="translate(392.8125 0)"/>
     <use xlink:href="#DejaVuSans-44" transform="translate(424.59375 0)"/>
     <use xlink:href="#DejaVuSans-46" transform="translate(485.875 0)"/>
     <use xlink:href="#DejaVuSans-57" transform="translate(540.859375 0)"/>
     <use xlink:href="#DejaVuSans-4c" transform="translate(580.0625 0)"/>
     <use xlink:href="#DejaVuSans-59" transform="translate(607.84375 0)"/>
     <use xlink:href="#DejaVuSans-4c" transform="translate(667.03125 0)"/>
     <use xlink:href="#DejaVuSans-57" transform="translate(694.8125 0)"/>
     <use xlink:href="#DejaVuSans-5c" transform="translate(734.015625 0)"/>
     <use xlink:href="#DejaVuSans-3" transform="translate(793.203125 0)"/>
     <use xlink:href="#DejaVuSans-af6" transform="translate(824.984375 0)"/>
     <use xlink:href="#DejaVuSans-3" transform="translate(924.984375 0)"/>
     <use xlink:href="#DejaVuSans-1a" transform="translate(956.765625 0)"/>
     <use xlink:href="#DejaVuSans-10" transform="translate(1020.390625 0)"/>
     <use xlink:href="#DejaVuSans-47" transform="translate(1056.46875 0)"/>
     <use xlink:href="#DejaVuSans-44" transform="translate(1119.953125 0)"/>
     <use xlink:href="#DejaVuSans-5c" transform="translate(1181.234375 0)"/>
     <use xlink:href="#DejaVuSans-3" transform="translate(1240.421875 0)"/>
     <use xlink:href="#DejaVuSans-55" transform="translate(1272.203125 0)"/>
     <use xlink:href="#DejaVuSans-52" transform="translate(1311.109375 0)"/>
     <use xlink:href="#DejaVuSans-4f" transform="translate(1372.296875 0)"/>
     <use xlink:href="#DejaVuSans-4f" transform="translate(1400.078125 0)"/>
     <use xlink:href="#DejaVuSans-4c" transform="translate(1427.859375 0)"/>
     <use xlink:href="#DejaVuSans-51" transform="translate(1455.640625 0)"/>
     <use xlink:href="#DejaVuSans-4a" transform="translate(1519.015625 0)"/>
     <use xlink:href="#DejaVuSans-3" transform="translate(1582.5 0)"/>
     <use xlink:href="#DejaVuSans-44" transform="translate(1614.28125 0)"/>
     <use xlink:href="#DejaVuSans-59" transform="translate(1675.5625 0)"/>
     <use xlink:href="#DejaVuSans-48" transform="translate(1734.75 0)"/>
     <use xlink:href="#DejaVuSans-55" transform="translate(1796.28125 0)"/>
     <use xlink:href="#DejaVuSans-44" transform="translate(1837.390625 0)"/>
     <use xlink:href="#DejaVuSans-4a" transform="translate(1898.671875 0)"/>
     <use xlink:href="#DejaVuSans-48" transform="translate(1962.15625 0)"/>
    </g>
   </g>
  </g>
  <g id="axes_2">
   <g id="patch_7">
    <path d="M 30.76 335.2 
L 709.2 335.2 
L 709.2 200.76 
L 30.76 200.76 
z
" style="fill: #0d1117"/>
   </g>
   <g id="matplotlib.axis_3">
    <g id="xtick_9">
     <g id="line2d_16">
      <g>
       <use xlink:href="#m02ea5a1911" x="58.246206" y="335.2" style="fill: #ffffff; stroke: #ffffff; stroke-width: 0.8"/>
      </g>
     </g>
     <g id="text_16">
      <!-- 0.0 -->
      <g style="fill: #ffffff" transform="translate(52.680112 347.518359) scale(0.07 -0.07)">
       <defs>
        <path id="DejaVuSans-11" d="M 684 794 
L 1344 794 
L 1344 0 
L 684 0 
L 684 794 
z
" transform="scale(0.015625)"/>
       </defs>
       <use xlink:href="#DejaVuSans-13"/>
       <use xlink:href="#DejaVuSans-11" transform="translate(63.625 0)"/>
       <use xlink:href="#DejaVuSans-13" transform="translate(95.40625 0)"/>
      </g>
     </g>
    </g>
    <g id="xtick_10">
     <g id="line2d_17">
      <g>
       <use xlink:href="#m02ea5a1911" x="182.604526" y="335.2" style="fill: #ffffff; stroke: #ffffff; stroke-width: 0.8"/>
      </g>
     </g>
     <g id="text_17">
      <!-- 0.1 -->
      <g style="fill: #ffffff" transform="translate(177.038432 347.518359) scale(0.07 -0.07)">
       <use xlink:href="#DejaVuSans-13"/>
       <use xlink:href="#DejaVuSans-11" transform="translate(63.625 0)"/>
       <use xlink:href="#DejaVuSans-14" transform="translate(95.40625 0)"/>
      </g>
     </g>
    </g>
    <g id="xtick_11">
     <g id="line2d_18">
      <g>
       <use xlink:href="#m02ea5a1911" x="306.962846" y="335.2" style="fill: #ffffff; stroke: #ffffff; stroke-width: 0.8"/>
      </g>
     </g>
     <g id="text_18">
      <!-- 0.2 -->
      <g style="fill: #ffffff" transform="translate(301.396752 347.518359) scale(0.07 -0.07)">
       <use xlink:href="#DejaVuSans-13"/>
       <use xlink:href="#DejaVuSans-11" transform="translate(63.625 0)"/>
       <use xlink:href="#DejaVuSans-15" transform="translate(95.40625 0)"/>
      </g>
     </g>
    </g>
    <g id="xtick_12">
     <g id="line2d_19">
      <g>
       <use xlink:href="#m02ea5a1911" x="431.321166" y="335.2" style="fill: #ffffff; stroke: #ffffff; stroke-width: 0.8"/>
      </g>
     </g>
     <g id="text_19">
      <!-- 0.3 -->
      <g style="fill: #ffffff" transform="translate(425.755072 347.518359) scale(0.07 -0.07)">
       <use xlink:href="#DejaVuSans-13"/>
       <use xlink:href="#DejaVuSans-11" transform="translate(63.625 0)"/>
       <use xlink:href="#DejaVuSans-16" transform="translate(95.40625 0)"/>
      </g>
     </g>
    </g>
    <g id="xtick_13">
     <g id="line2d_20">
      <g>
       <use xlink:href="#m02ea5a1911" x="555.679486" y="335.2" style="fill: #ffffff; stroke: #ffffff; stroke-width: 0.8"/>
      </g>
     </g>
     <g id="text_20">
      <!-- 0.4 -->
      <g style="fill: #ffffff" transform="translate(550.113392 347.518359) scale(0.07 -0.07)">
       <use xlink:href="#DejaVuSans-13"/>
       <use xlink:href="#DejaVuSans-11" transform="translate(63.625 0)"/>
       <use xlink:href="#DejaVuSans-17" transform="translate(95.40625 0)"/>
      </g>
     </g>
    </g>
    <g id="xtick_14">
     <g id="line2d_21">
      <g>
       <use xlink:href="#m02ea5a1911" x="680.037806" y="335.2" style="fill: #ffffff; stroke: #ffffff; stroke-width: 0.8"/>
      </g>
     </g>
     <g id="text_21">
      <!-- 0.5 -->
      <g style="fill: #ffffff" transform="translate(674.471713 347.518359) scale(0.07 -0.07)">
       <use xlink:href="#DejaVuSans-13"/>
       <use xlink:href="#DejaVuSans-11" transform="translate(63.625 0)"/>
       <use xlink:href="#DejaVuSans-18" transform="translate(95.40625 0)"/>
      </g>
     </g>
    </g>
   </g>
   <g id="matplotlib.axis_4">
    <g id="ytick_7">
     <g id="line2d_22">
      <g>
       <use xlink:href="#m40eb812317" x="30.76" y="330.791386" style="fill: #ffffff; stroke: #ffffff; stroke-width: 0.8"/>
      </g>
     </g>
     <g id="text_22">
      <!-- 0 -->
      <g style="fill: #ffffff" transform="translate(19.30625 333.450566) scale(0.07 -0.07)">
       <use xlink:href="#DejaVuSans-13"/>
      </g>
     </g>
    </g>
    <g id="ytick_8">
     <g id="line2d_23">
      <g>
       <use xlink:href="#m40eb812317" x="30.76" y="314.564632" style="fill: #ffffff; stroke: #ffffff; stroke-width: 0.8"/>
      </g>
     </g>
     <g id="text_23">
      <!-- 20 -->
      <g style="fill: #ffffff" transform="translate(14.8525 317.223812) scale(0.07 -0.07)">
       <use xlink:href="#DejaVuSans-15"/>
       <use xlink:href="#DejaVuSans-13" transform="translate(63.625 0)"/>
      </g>
     </g>
    </g>
    <g id="ytick_9">
     <g id="line2d_24">
      <g>
       <use xlink:href="#m40eb812317" x="30.76" y="298.337878" style="fill: #ffffff; stroke: #ffffff; stroke-width: 0.8"/>
      </g>
     </g>
     <g id="text_24">
      <!-- 40 -->
      <g style="fill: #ffffff" transform="translate(14.8525 300.997058) scale(0.07 -0.07)">
       <use xlink:href="#DejaVuSans-17"/>
       <use xlink:href="#DejaVuSans-13" transform="translate(63.625 0)"/>
      </g>
     </g>
    </g>
    <g id="ytick_10">
     <g id="line2d_25">
      <g>
       <use xlink:href="#m40eb812317" x="30.76" y="282.111124" style="fill: #ffffff; stroke: #ffffff; stroke-width: 0.8"/>
      </g>
     </g>
     <g id="text_25">
      <!-- 60 -->
      <g style="fill: #ffffff" transform="translate(14.8525 284.770304) scale(0.07 -0.07)">
       <defs>
        <path id="DejaVuSans-19" d="M 2113 2584 
Q 1688 2584 1439 2293 
Q 1191 2003 1191 1497 
Q 1191 994 1439 701 
Q 1688 409 2113 409 
Q 2538 409 2786 701 
Q 3034 994 3034 1497 
Q 3034 2003 2786 2293 
Q 2538 2584 2113 2584 
z
M 3366 4563 
L 3366 3988 
Q 3128 4100 2886 4159 
Q 2644 4219 2406 4219 
Q 1781 4219 1451 3797 
Q 1122 3375 1075 2522 
Q 1259 2794 1537 2939 
Q 1816 3084 2150 3084 
Q 2853 3084 3261 2657 
Q 3669 2231 3669 1497 
Q 3669 778 3244 343 
Q 2819 -91 2113 -91 
Q 1303 -91 875 529 
Q 447 1150 447 2328 
Q 447 3434 972 4092 
Q 1497 4750 2381 4750 
Q 2619 4750 2861 4703 
Q 3103 4656 3366 4563 
z
" transform="scale(0.015625)"/>
       </defs>
       <use xlink:href="#DejaVuSans-19"/>
       <use xlink:href="#DejaVuSans-13" transform="translate(63.625 0)"/>
      </g>
     </g>
    </g>
    <g id="ytick_11">
     <g id="line2d_26">
      <g>
       <use xlink:href="#m40eb812317" x="30.76" y="265.88437" style="fill: #ffffff; stroke: #ffffff; stroke-width: 0.8"/>
      </g>
     </g>
     <g id="text_26">
      <!-- 80 -->
      <g style="fill: #ffffff" transform="translate(14.8525 268.54355) scale(0.07 -0.07)">
       <defs>
        <path id="DejaVuSans-1b" d="M 2034 2216 
Q 1584 2216 1326 1975 
Q 1069 1734 1069 1313 
Q 1069 891 1326 650 
Q 1584 409 2034 409 
Q 2484 409 2743 651 
Q 3003 894 3003 1313 
Q 3003 1734 2745 1975 
Q 2488 2216 2034 2216 
z
M 1403 2484 
Q 997 2584 770 2862 
Q 544 3141 544 3541 
Q 544 4100 942 4425 
Q 1341 4750 2034 4750 
Q 2731 4750 3128 4425 
Q 3525 4100 3525 3541 
Q 3525 3141 3298 2862 
Q 3072 2584 2669 2484 
Q 3125 2378 3379 2068 
Q 3634 1759 3634 1313 
Q 3634 634 3220 271 
Q 2806 -91 2034 -91 
Q 1263 -91 848 271 
Q 434 634 434 1313 
Q 434 1759 690 2068 
Q 947 2378 1403 2484 
z
M 1172 3481 
Q 1172 3119 1398 2916 
Q 1625 2713 2034 2713 
Q 2441 2713 2670 2916 
Q 2900 3119 2900 3481 
Q 2900 3844 2670 4047 
Q 2441 4250 2034 4250 
Q 1625 4250 1398 4047 
Q 1172 3844 1172 3481 
z
" transform="scale(0.015625)"/>
       </defs>
       <use xlink:href="#DejaVuSans-1b"/>
       <use xlink:href="#DejaVuSans-13" transform="translate(63.625 0)"/>
      </g>
     </g>
    </g>
    <g id="ytick_12">
     <g id="line2d_27">
      <g>
       <use xlink:href="#m40eb812317" x="30.76" y="249.657616" style="fill: #ffffff; stroke: #ffffff; stroke-width: 0.8"/>
      </g>
     </g>
     <g id="text_27">
      <!-- 100 -->
      <g style="fill: #ffffff" transform="translate(10.39875 252.316796) scale(0.07 -0.07)">
       <use xlink:href="#DejaVuSans-14"/>
       <use xlink:href="#DejaVuSans-13" transform="translate(63.625 0)"/>
       <use xlink:href="#DejaVuSans-13" transform="translate(127.25 0)"/>
      </g>
     </g>
    </g>
    <g id="ytick_13">
     <g id="line2d_28">
      <g>
       <use xlink:href="#m40eb812317" x="30.76" y="233.430862" style="fill: #ffffff; stroke: #ffffff; stroke-width: 0.8"/>
      </g>
     </g>
     <g id="text_28">
      <!-- 120 -->
      <g style="fill: #ffffff" transform="translate(10.39875 236.090042) scale(0.07 -0.07)">
       <use xlink:href="#DejaVuSans-14"/>
       <use xlink:href="#DejaVuSans-15" transform="translate(63.625 0)"/>
       <use xlink:href="#DejaVuSans-13" transform="translate(127.25 0)"/>
      </g>
     </g>
    </g>
    <g id="ytick_14">
     <g id="line2d_29">
      <g>
       <use xlink:href="#m40eb812317" x="30.76" y="217.204108" style="fill: #ffffff; stroke: #ffffff; stroke-width: 0.8"/>
      </g>
     </g>
     <g id="text_29">
      <!-- 140 -->
      <g style="fill: #ffffff" transform="translate(10.39875 219.863288) scale(0.07 -0.07)">
       <use xlink:href="#DejaVuSans-14"/>
       <use xlink:href="#DejaVuSans-17" transform="translate(63.625 0)"/>
       <use xlink:href="#DejaVuSans-13" transform="translate(127.25 0)"/>
      </g>
     </g>
    </g>
    <g id="ytick_15">
     <g id="line2d_30">
      <g>
       <use xlink:href="#m40eb812317" x="30.76" y="200.977354" style="fill: #ffffff; stroke: #ffffff; stroke-width: 0.8"/>
      </g>
     </g>
     <g id="text_30">
      <!-- 160 -->
      <g style="fill: #ffffff" transform="translate(10.39875 203.636534) scale(0.07 -0.07)">
       <use xlink:href="#DejaVuSans-14"/>
       <use xlink:href="#DejaVuSans-19" transform="translate(63.625 0)"/>
       <use xlink:href="#DejaVuSans-13" transform="translate(127.25 0)"/>
      </g>
     </g>
    </g>
   </g>
   <g id="line2d_31">
    <path d="M 61.598182 293.244877 
L 64.950158 206.870909 
L 68.302134 302.646608 
L 71.654111 279.346709 
L 75.006087 269.535302 
L 78.358063 284.11717 
L 81.71004 253.436196 
L 85.062016 309.386385 
L 88.413992 300.352975 
L 91.765968 299.412349 
L 95.117945 312.128236 
L 98.469921 289.572107 
L 101.821897 291.320218 
L 105.173874 300.84154 
L 108.52585 262.636516 
L 111.877826 312.567444 
L 115.229802 292.762173 
L 118.581779 302.873825 
L 121.933755 274.899157 
L 125.285731 312.973166 
L 128.637708 299.201167 
L 131.989684 266.81729 
L 135.34166 274.552727 
L 138.693636 294.797118 
L 142.045613 329.089091 
L 145.397589 257.544089 
L 148.749565 303.565427 
L 152.101542 314.544125 
L 155.453518 308.91086 
L 158.805494 286.374012 
L 162.15747 282.968284 
L 165.509447 307.991117 
L 168.861423 274.13184 
L 172.213399 292.579607 
L 175.565375 283.188649 
L 178.917352 298.596576 
L 182.269328 286.133091 
L 185.621304 296.603367 
L 188.973281 301.44571 
L 192.325257 284.137704 
L 195.677233 285.977231 
L 199.029209 290.089122 
L 202.381186 309.124547 
L 205.733162 309.651387 
L 209.085138 280.962142 
L 212.437115 316.330623 
L 215.789091 301.164588 
L 222.493043 283.477401 
L 225.84502 259.199815 
L 229.196996 278.721244 
L 232.548972 264.768559 
L 235.900949 288.543758 
L 239.252925 280.964485 
L 242.604901 283.111288 
L 245.956877 309.349313 
L 249.308854 285.034682 
L 252.66083 315.614669 
L 256.012806 304.393713 
L 259.364783 280.915296 
L 262.716759 281.015632 
L 266.068735 300.2372 
L 269.420711 301.389894 
L 272.772688 290.284852 
L 276.124664 308.923134 
L 279.47664 279.625294 
L 282.828617 318.528315 
L 286.180593 295.209107 
L 289.532569 285.981562 
L 292.884545 312.223524 
L 296.236522 314.52902 
L 299.588498 248.384935 
L 302.940474 270.647625 
L 306.292451 303.647929 
L 309.644427 278.533728 
L 312.996403 264.158266 
L 316.348379 275.580951 
L 319.700356 314.491526 
L 323.052332 295.033811 
L 326.404308 307.096042 
L 329.756285 309.183791 
L 333.108261 265.322251 
L 336.460237 291.947225 
L 339.812213 307.482551 
L 343.16419 228.281552 
L 346.516166 287.269805 
L 349.868142 309.231835 
L 353.220119 309.8702 
L 356.572095 271.038758 
L 359.924071 276.847479 
L 363.276047 313.696591 
L 366.628024 261.211987 
L 369.98 303.451841 
L 373.331976 290.907237 
L 376.683953 276.050176 
L 380.035929 298.533567 
L 383.387905 309.853951 
L 386.739881 272.508577 
L 390.091858 286.713758 
L 393.443834 285.100544 
L 396.79581 302.229174 
L 400.147787 274.598965 
L 403.499763 273.937506 
L 406.851739 265.039013 
L 410.203715 288.913664 
L 413.555692 235.579904 
L 416.907668 315.635783 
L 420.259644 286.571233 
L 423.611621 316.334204 
L 426.963597 322.924495 
L 430.315573 270.782081 
L 433.667549 296.57284 
L 437.019526 296.454228 
L 440.371502 309.421109 
L 443.723478 268.763249 
L 447.075455 307.924085 
L 450.427431 296.524691 
L 453.779407 254.275857 
L 457.131383 298.620684 
L 460.48336 286.056026 
L 463.835336 242.184784 
L 467.187312 304.750882 
L 470.539289 270.368774 
L 473.891265 275.422315 
L 477.243241 293.400921 
L 480.595217 279.392301 
L 483.947194 288.862454 
L 487.29917 270.037024 
L 490.651146 314.522665 
L 494.003123 317.675367 
L 497.355099 309.885852 
L 500.707075 304.405933 
L 504.059051 278.841235 
L 507.411028 307.788915 
L 510.763004 289.832986 
L 514.11498 303.248766 
L 517.466957 280.513924 
L 520.818933 299.946258 
L 524.170909 309.599228 
L 527.522885 289.250387 
L 530.874862 294.84302 
L 534.226838 282.919799 
L 537.578814 326.892397 
L 540.930791 305.456958 
L 544.282767 281.642418 
L 547.634743 313.26559 
L 550.986719 284.367569 
L 554.338696 315.708611 
L 557.690672 315.651256 
L 561.042648 297.409561 
L 564.394625 309.846055 
L 567.746601 291.456555 
L 571.098577 314.715801 
L 574.450553 288.856723 
L 577.80253 310.700478 
L 581.154506 268.244528 
L 584.506482 273.947813 
L 587.858458 268.468249 
L 591.210435 287.643483 
L 594.562411 314.937648 
L 597.914387 263.682134 
L 601.266364 298.543316 
L 604.61834 304.908187 
L 607.970316 297.146322 
L 611.322292 274.602232 
L 614.674269 315.160929 
L 618.026245 314.733367 
L 621.378221 289.384967 
L 624.730198 286.680205 
L 628.082174 282.876345 
L 631.43415 252.540053 
L 634.786126 313.287437 
L 638.138103 265.875176 
L 641.490079 284.676563 
L 644.842055 286.638102 
L 648.194032 312.902452 
L 651.546008 304.257038 
L 654.897984 256.2332 
L 658.24996 307.770919 
L 661.601937 279.222062 
L 664.953913 292.638866 
L 668.305889 300.428969 
L 671.657866 276.930847 
L 675.009842 284.021863 
L 678.361818 314.680482 
L 678.361818 314.680482 
" clip-path="url(#p47663107bf)" style="fill: none; stroke: #58a6ff; stroke-width: 1.2; stroke-linecap: square"/>
   </g>
   <g id="patch_8">
    <path d="M 30.76 335.2 
L 30.76 200.76 
" style="fill: none; stroke: #30363d; stroke-width: 0.8; stroke-linejoin: miter; stroke-linecap: square"/>
   </g>
   <g id="patch_9">
    <path d="M 709.2 335.2 
L 709.2 200.76 
" style="fill: none; stroke: #30363d; stroke-width: 0.8; stroke-linejoin: miter; stroke-linecap: square"/>
   </g>
   <g id="patch_10">
    <path d="M 30.76 335.2 
L 709.2 335.2 
" style="fill: none; stroke: #30363d; stroke-width: 0.8; stroke-linejoin: miter; stroke-linecap: square"/>
   </g>
   <g id="patch_11">
    <path d="M 30.76 200.76 
L 709.2 200.76 
" style="fill: none; stroke: #30363d; stroke-width: 0.8; stroke-linejoin: miter; stroke-linecap: square"/>
   </g>
   <g id="text_31">
    <!-- Commit rhythm — frequency spectrum (FFT) -->
    <g style="fill: #ffffff" transform="translate(235.533125 194.76) scale(0.12 -0.12)">
     <defs>
      <path id="DejaVuSans-4b" d="M 3513 2113 
L 3513 0 
L 2938 0 
L 2938 2094 
Q 2938 2591 2744 2837 
Q 2550 3084 2163 3084 
Q 1697 3084 1428 2787 
Q 1159 2491 1159 1978 
L 1159 0 
L 581 0 
L 581 4863 
L 1159 4863 
L 1159 2956 
Q 1366 3272 1645 3428 
Q 1925 3584 2291 3584 
Q 2894 3584 3203 3211 
Q 3513 2838 3513 2113 
z
" transform="scale(0.015625)"/>
      <path id="DejaVuSans-49" d="M 2375 4863 
L 2375 4384 
L 1825 4384 
Q 1516 4384 1395 4259 
Q 1275 4134 1275 3809 
L 1275 3500 
L 2222 3500 
L 2222 3053 
L 1275 3053 
L 1275 0 
L 697 0 
L 697 3053 
L 147 3053 
L 147 3500 
L 697 3500 
L 697 3744 
Q 697 4328 969 4595 
Q 1241 4863 1831 4863 
L 2375 4863 
z
" transform="scale(0.015625)"/>
      <path id="DejaVuSans-54" d="M 947 1747 
Q 947 1113 1208 752 
Q 1469 391 1925 391 
Q 2381 391 2643 752 
Q 2906 1113 2906 1747 
Q 2906 2381 2643 2742 
Q 2381 3103 1925 3103 
Q 1469 3103 1208 2742 
Q 947 2381 947 1747 
z
M 2906 525 
Q 2725 213 2448 61 
Q 2172 -91 1784 -91 
Q 1150 -91 751 415 
Q 353 922 353 1747 
Q 353 2572 751 3078 
Q 1150 3584 1784 3584 
Q 2172 3584 2448 3432 
Q 2725 3281 2906 2969 
L 2906 3500 
L 3481 3500 
L 3481 -1331 
L 2906 -1331 
L 2906 525 
z
" transform="scale(0.015625)"/>
      <path id="DejaVuSans-58" d="M 544 1381 
L 544 3500 
L 1119 3500 
L 1119 1403 
Q 1119 906 1312 657 
Q 1506 409 1894 409 
Q 2359 409 2629 706 
Q 2900 1003 2900 1516 
L 2900 3500 
L 3475 3500 
L 3475 0 
L 2900 0 
L 2900 538 
Q 2691 219 2414 64 
Q 2138 -91 1772 -91 
Q 1169 -91 856 284 
Q 544 659 544 1381 
z
M 1991 3584 
L 1991 3584 
z
" transform="scale(0.015625)"/>
      <path id="DejaVuSans-56" d="M 2834 3397 
L 2834 2853 
Q 2591 2978 2328 3040 
Q 2066 3103 1784 3103 
Q 1356 3103 1142 2972 
Q 928 2841 928 2578 
Q 928 2378 1081 2264 
Q 1234 2150 1697 2047 
L 1894 2003 
Q 2506 1872 2764 1633 
Q 3022 1394 3022 966 
Q 3022 478 2636 193 
Q 2250 -91 1575 -91 
Q 1294 -91 989 -36 
Q 684 19 347 128 
L 347 722 
Q 666 556 975 473 
Q 1284 391 1588 391 
Q 1994 391 2212 530 
Q 2431 669 2431 922 
Q 2431 1156 2273 1281 
Q 2116 1406 1581 1522 
L 1381 1569 
Q 847 1681 609 1914 
Q 372 2147 372 2553 
Q 372 3047 722 3315 
Q 1072 3584 1716 3584 
Q 2034 3584 2315 3537 
Q 2597 3491 2834 3397 
z
" transform="scale(0.015625)"/>
      <path id="DejaVuSans-53" d="M 1159 525 
L 1159 -1331 
L 581 -1331 
L 581 3500 
L 1159 3500 
L 1159 2969 
Q 1341 3281 1617 3432 
Q 1894 3584 2278 3584 
Q 2916 3584 3314 3078 
Q 3713 2572 3713 1747 
Q 3713 922 3314 415 
Q 2916 -91 2278 -91 
Q 1894 -91 1617 61 
Q 1341 213 1159 525 
z
M 3116 1747 
Q 3116 2381 2855 2742 
Q 2594 3103 2138 3103 
Q 1681 3103 1420 2742 
Q 1159 2381 1159 1747 
Q 1159 1113 1420 752 
Q 1681 391 2138 391 
Q 2594 391 2855 752 
Q 3116 1113 3116 1747 
z
" transform="scale(0.015625)"/>
      <path id="DejaVuSans-b" d="M 1984 4856 
Q 1566 4138 1362 3434 
Q 1159 2731 1159 2009 
Q 1159 1288 1364 580 
Q 1569 -128 1984 -844 
L 1484 -844 
Q 1016 -109 783 600 
Q 550 1309 550 2009 
Q 550 2706 781 3412 
Q 1013 4119 1484 4856 
L 1984 4856 
z
" transform="scale(0.015625)"/>
      <path id="DejaVuSans-29" d="M 628 4666 
L 3309 4666 
L 3309 4134 
L 1259 4134 
L 1259 2759 
L 3109 2759 
L 3109 2228 
L 1259 2228 
L 1259 0 
L 628 0 
L 628 4666 
z
" transform="scale(0.015625)"/>
      <path id="DejaVuSans-37" d="M -19 4666 
L 3928 4666 
L 3928 4134 
L 2272 4134 
L 2272 0 
L 1638 0 
L 1638 4134 
L -19 4134 
L -19 4666 
z
" transform="scale(0.015625)"/>
      <path id="DejaVuSans-c" d="M 513 4856 
L 1013 4856 
Q 1481 4119 1714 3412 
Q 1947 2706 1947 2009 
Q 1947 1309 1714 600 
Q 1481 -109 1013 -844 
L 513 -844 
Q 928 -128 1133 580 
Q 1338 1288 1338 2009 
Q 1338 2731 1133 3434 
Q 928 4138 513 4856 
z
" transform="scale(0.015625)"/>
     </defs>
     <use xlink:href="#DejaVuSans-26"/>
     <use xlink:href="#DejaVuSans-52" transform="translate(69.828125 0)"/>
     <use xlink:href="#DejaVuSans-50" transform="translate(131.015625 0)"/>
     <use xlink:href="#DejaVuSans-50" transform="translate(228.421875 0)"/>
     <use xlink:href="#DejaVuSans-4c" transform="translate(325.828125 0)"/>
     <use xlink:href="#DejaVuSans-57" transform="translate(353.609375 0)"/>
     <use xlink:href="#DejaVuSans-3" transform="translate(392.8125 0)"/>
     <use xlink:href="#DejaVuSans-55" transform="translate(424.59375 0)"/>
     <use xlink:href="#DejaVuSans-4b" transform="translate(463.953125 0)"/>
     <use xlink:href="#DejaVuSans-5c" transform="translate(527.328125 0)"/>
     <use xlink:href="#DejaVuSans-57" transform="translate(586.515625 0)"/>
     <use xlink:href="#DejaVuSans-4b" transform="translate(625.71875 0)"/>
     <use xlink:href="#DejaVuSans-50" transform="translate(689.09375 0)"/>
     <use xlink:href="#DejaVuSans-3" transform="translate(786.5 0)"/>
     <use xlink:href="#DejaVuSans-af6" transform="translate(818.28125 0)"/>
     <use xlink:href="#DejaVuSans-3" transform="translate(918.28125 0)"/>
     <use xlink:href="#DejaVuSans-49" transform="translate(950.0625 0)"/>
     <use xlink:href="#DejaVuSans-55" transform="translate(985.265625 0)"/>
     <use xlink:href="#DejaVuSans-48" transform="translate(1024.171875 0)"/>
     <use xlink:href="#DejaVuSans-54" transform="translate(1085.703125 0)"/>
     <use xlink:href="#DejaVuSans-58" transform="translate(1149.1875 0)"/>
     <use xlink:href="#DejaVuSans-48" transform="translate(1212.5625 0)"/>
     <use xlink:href="#DejaVuSans-51" transform="translate(1274.09375 0)"/>
     <use xlink:href="#DejaVuSans-46" transform="translate(1337.46875 0)"/>
     <use xlink:href="#DejaVuSans-5c" transform="translate(1392.453125 0)"/>
     <use xlink:href="#DejaVuSans-3" transform="translate(1451.640625 0)"/>
     <use xlink:href="#DejaVuSans-56" transform="translate(1483.421875 0)"/>
     <use xlink:href="#DejaVuSans-53" transform="translate(1535.515625 0)"/>
     <use xlink:href="#DejaVuSans-48" transform="translate(1599 0)"/>
     <use xlink:href="#DejaVuSans-46" transform="translate(1660.53125 0)"/>
     <use xlink:href="#DejaVuSans-57" transform="translate(1715.515625 0)"/>
     <use xlink:href="#DejaVuSans-55" transform="translate(1754.71875 0)"/>
     <use xlink:href="#DejaVuSans-58" transform="translate(1795.828125 0)"/>
     <use xlink:href="#DejaVuSans-50" transform="translate(1859.203125 0)"/>
     <use xlink:href="#DejaVuSans-3" transform="translate(1956.609375 0)"/>
     <use xlink:href="#DejaVuSans-b" transform="translate(1988.390625 0)"/>
     <use xlink:href="#DejaVuSans-29" transform="translate(2027.40625 0)"/>
     <use xlink:href="#DejaVuSans-29" transform="translate(2084.921875 0)"/>
     <use xlink:href="#DejaVuSans-37" transform="translate(2140.6875 0)"/>
     <use xlink:href="#DejaVuSans-c" transform="translate(2201.765625 0)"/>
    </g>
   </g>
  </g>
 </g>
 <defs>
  <clipPath id="p0e3591e4a0">
   <rect x="30.76" y="26.16" width="678.44" height="134.44"/>
  </clipPath>
  <clipPath id="p47663107bf">
   <rect x="30.76" y="200.76" width="678.44" height="134.44"/>
  </clipPath>
 </defs>
</svg>
