<?xml version="1.0" encoding="utf-8" standalone="no"?>
<!DOCTYPE svg PUBLIC "-//W3C//DTD SVG 1.1//EN"
  "http://www.w3.org/Graphics/SVG/1.1/DTD/svg11.dtd">
<svg xmlns:xlink="http://www.w3.org/1999/xlink" width="720pt" height="360pt" viewBox="0 0 720 360" xmlns="http://www.w3.org/2000/svg" version="1.1">
 <metadata>
  <rdf:RDF xmlns:dc="http://purl.org/dc/elements/1.1/" xmlns:cc="http://creativecommons.org/ns#" xmlns:rdf="http://www.w3.org/1999/02/22-rdf-syntax-ns#">
   <cc:Work>
    <dc:type rdf:resource="http://purl.org/dc/dcmitype/StillImage"/>
    <dc:date>2026-07-12T04:06:35.134824</dc:date>
    <dc:format>image/svg+xml</dc:format>
    <dc:creator>
     <cc:Agent>
      <dc:title>Matplotlib v3.11.0, https://matplotlib.org/</dc:title>
     </cc:Agent>
    </dc:creator>
   </cc:Work>
  </rdf:RDF>
 </metadata>
 <defs>
  <style type="text/css">*{stroke-linejoin: round; stroke-linecap: butt}</style>
 </defs>
 <g id="figure_1">
  <g id="patch_1">
   <path d="M 0 360 
L 720 360 
L 720 0 
L 0 0 
z
" style="fill: #0d1117"/>
  </g>
  <g id="axes_1">
   <g id="patch_2">
    <path d="M 30.76 160.6 
L 709.2 160.6 
L 709.2 26.16 
L 30.76 26.16 
z
" style="fill: #0d1117"/>
   </g>
   <g id="matplotlib.axis_1">
    <g id="xtick_1">
     <g id="line2d_1">
      <defs>
       <path id="m294843f782" d="M 0 0 
L 0 3.5 
" style="stroke: #ffffff; stroke-width: 0.8"/>
      </defs>
      <g>
       <use xlink:href="#m294843f782" x="61.598182" y="160.6" style="fill: #ffffff; stroke: #ffffff; stroke-width: 0.8"/>
      </g>
     </g>
     <g id="text_1">
      <!-- 0 -->
      <g style="fill: #ffffff" transform="translate(59.371307 172.918359) scale(0.07 -0.07)">
       <defs>
        <path id="DejaVuSans-13" d="M 2034 4250 
Q 1547 4250 1301 3770 
Q 1056 3291 1056 2328 
Q 1056 1369 1301 889 
Q 1547 409 2034 409 
Q 2525 409 2770 889 
Q 3016 1369 3016 2328 
Q 3016 3291 2770 3770 
Q 2525 4250 2034 4250 
z
M 2034 4750 
Q 2819 4750 3233 4129 
Q 3647 3509 3647 2328 
Q 3647 1150 3233 529 
Q 2819 -91 2034 -91 
Q 1250 -91 836 529 
Q 422 1150 422 2328 
Q 422 3509 836 4129 
Q 1250 4750 2034 4750 
z
" transform="scale(0.015625)"/>
       </defs>
       <use xlink:href="#DejaVuSans-13"/>
      </g>
     </g>
    </g>
    <g id="xtick_2">
     <g id="line2d_2">
      <g>
       <use xlink:href="#m294843f782" x="147.738354" y="160.6" style="fill: #ffffff; stroke: #ffffff; stroke-width: 0.8"/>
      </g>
     </g>
     <g id="text_2">
      <!-- 50 -->
      <g style="fill: #ffffff" transform="translate(143.284604 172.918359) scale(0.07 -0.07)">
       <defs>
        <path id="DejaVuSans-18" d="M 691 4666 
L 3169 4666 
L 3169 4134 
L 1269 4134 
L 1269 2991 
Q 1406 3038 1543 3061 
Q 1681 3084 1819 3084 
Q 2600 3084 3056 2656 
Q 3513 2228 3513 1497 
Q 3513 744 3044 326 
Q 2575 -91 1722 -91 
Q 1428 -91 1123 -41 
Q 819 9 494 109 
L 494 744 
Q 775 591 1075 516 
Q 1375 441 1709 441 
Q 2250 441 2565 725 
Q 2881 1009 2881 1497 
Q 2881 1984 2565 2268 
Q 2250 2553 1709 2553 
Q 1456 2553 1204 2497 
Q 953 2441 691 2322 
L 691 4666 
z
" transform="scale(0.015625)"/>
       </defs>
       <use xlink:href="#DejaVuSans-18"/>
       <use xlink:href="#DejaVuSans-13" transform="translate(63.625 0)"/>
      </g>
     </g>
    </g>
    <g id="xtick_3">
     <g id="line2d_3">
      <g>
       <use xlink:href="#m294843f782" x="233.878527" y="160.6" style="fill: #ffffff; stroke: #ffffff; stroke-width: 0.8"/>
      </g>
     </g>
     <g id="text_3">
      <!-- 100 -->
      <g style="fill: #ffffff" transform="translate(227.197902 172.918359) scale(0.07 -0.07)">
       <defs>
        <path id="DejaVuSans-14" d="M 794 531 
L 1825 531 
L 1825 4091 
L 703 3866 
L 703 4441 
L 1819 4666 
L 2450 4666 
L 2450 531 
L 3481 531 
L 3481 0 
L 794 0 
L 794 531 
z
" transform="scale(0.015625)"/>
       </defs>
       <use xlink:href="#DejaVuSans-14"/>
       <use xlink:href="#DejaVuSans-13" transform="translate(63.625 0)"/>
       <use xlink:href="#DejaVuSans-13" transform="translate(127.25 0)"/>
      </g>
     </g>
    </g>
    <g id="xtick_4">
     <g id="line2d_4">
      <g>
       <use xlink:href="#m294843f782" x="320.0187" y="160.6" style="fill: #ffffff; stroke: #ffffff; stroke-width: 0.8"/>
      </g>
     </g>
     <g id="text_4">
      <!-- 150 -->
      <g style="fill: #ffffff" transform="translate(313.338075 172.918359) scale(0.07 -0.07)">
       <use xlink:href="#DejaVuSans-14"/>
       <use xlink:href="#DejaVuSans-18" transform="translate(63.625 0)"/>
       <use xlink:href="#DejaVuSans-13" transform="translate(127.25 0)"/>
      </g>
     </g>
    </g>
    <g id="xtick_5">
     <g id="line2d_5">
      <g>
       <use xlink:href="#m294843f782" x="406.158873" y="160.6" style="fill: #ffffff; stroke: #ffffff; stroke-width: 0.8"/>
      </g>
     </g>
     <g id="text_5">
      <!-- 200 -->
      <g style="fill: #ffffff" transform="translate(399.478248 172.918359) scale(0.07 -0.07)">
       <defs>
        <path id="DejaVuSans-15" d="M 1228 531 
L 3431 531 
L 3431 0 
L 469 0 
L 469 531 
Q 828 903 1448 1529 
Q 2069 2156 2228 2338 
Q 2531 2678 2651 2914 
Q 2772 3150 2772 3378 
Q 2772 3750 2511 3984 
Q 2250 4219 1831 4219 
Q 1534 4219 1204 4116 
Q 875 4013 500 3803 
L 500 4441 
Q 881 4594 1212 4672 
Q 1544 4750 1819 4750 
Q 2544 4750 2975 4387 
Q 3406 4025 3406 3419 
Q 3406 3131 3298 2873 
Q 3191 2616 2906 2266 
Q 2828 2175 2409 1742 
Q 1991 1309 1228 531 
z
" transform="scale(0.015625)"/>
       </defs>
       <use xlink:href="#DejaVuSans-15"/>
       <use xlink:href="#DejaVuSans-13" transform="translate(63.625 0)"/>
       <use xlink:href="#DejaVuSans-13" transform="translate(127.25 0)"/>
      </g>
     </g>
    </g>
    <g id="xtick_6">
     <g id="line2d_6">
      <g>
       <use xlink:href="#m294843f782" x="492.299045" y="160.6" style="fill: #ffffff; stroke: #ffffff; stroke-width: 0.8"/>
      </g>
     </g>
     <g id="text_6">
      <!-- 250 -->
      <g style="fill: #ffffff" transform="translate(485.61842 172.918359) scale(0.07 -0.07)">
       <use xlink:href="#DejaVuSans-15"/>
       <use xlink:href="#DejaVuSans-18" transform="translate(63.625 0)"/>
       <use xlink:href="#DejaVuSans-13" transform="translate(127.25 0)"/>
      </g>
     </g>
    </g>
    <g id="xtick_7">
     <g id="line2d_7">
      <g>
       <use xlink:href="#m294843f782" x="578.439218" y="160.6" style="fill: #ffffff; stroke: #ffffff; stroke-width: 0.8"/>
      </g>
     </g>
     <g id="text_7">
      <!-- 300 -->
      <g style="fill: #ffffff" transform="translate(571.758593 172.918359) scale(0.07 -0.07)">
       <defs>
        <path id="DejaVuSans-16" d="M 2597 2516 
Q 3050 2419 3304 2112 
Q 3559 1806 3559 1356 
Q 3559 666 3084 287 
Q 2609 -91 1734 -91 
Q 1441 -91 1130 -33 
Q 819 25 488 141 
L 488 750 
Q 750 597 1062 519 
Q 1375 441 1716 441 
Q 2309 441 2620 675 
Q 2931 909 2931 1356 
Q 2931 1769 2642 2001 
Q 2353 2234 1838 2234 
L 1294 2234 
L 1294 2753 
L 1863 2753 
Q 2328 2753 2575 2939 
Q 2822 3125 2822 3475 
Q 2822 3834 2567 4026 
Q 2313 4219 1838 4219 
Q 1578 4219 1281 4162 
Q 984 4106 628 3988 
L 628 4550 
Q 988 4650 1302 4700 
Q 1616 4750 1894 4750 
Q 2613 4750 3031 4423 
Q 3450 4097 3450 3541 
Q 3450 3153 3228 2886 
Q 3006 2619 2597 2516 
z
" transform="scale(0.015625)"/>
       </defs>
       <use xlink:href="#DejaVuSans-16"/>
       <use xlink:href="#DejaVuSans-13" transform="translate(63.625 0)"/>
       <use xlink:href="#DejaVuSans-13" transform="translate(127.25 0)"/>
      </g>
     </g>
    </g>
    <g id="xtick_8">
     <g id="line2d_8">
      <g>
       <use xlink:href="#m294843f782" x="664.579391" y="160.6" style="fill: #ffffff; stroke: #ffffff; stroke-width: 0.8"/>
      </g>
     </g>
     <g id="text_8">
      <!-- 350 -->
      <g style="fill: #ffffff" transform="translate(657.898766 172.918359) scale(0.07 -0.07)">
       <use xlink:href="#DejaVuSans-16"/>
       <use xlink:href="#DejaVuSans-18" transform="translate(63.625 0)"/>
       <use xlink:href="#DejaVuSans-13" transform="translate(127.25 0)"/>
      </g>
     </g>
    </g>
   </g>
   <g id="matplotlib.axis_2">
    <g id="ytick_1">
     <g id="line2d_9">
      <defs>
       <path id="m27e8c8b45c" d="M 0 0 
L -3.5 0 
" style="stroke: #ffffff; stroke-width: 0.8"/>
      </defs>
      <g>
       <use xlink:href="#m27e8c8b45c" x="30.76" y="154.489091" style="fill: #ffffff; stroke: #ffffff; stroke-width: 0.8"/>
      </g>
     </g>
     <g id="text_9">
      <!-- 0 -->
      <g style="fill: #ffffff" transform="translate(19.30625 157.148271) scale(0.07 -0.07)">
       <use xlink:href="#DejaVuSans-13"/>
      </g>
     </g>
    </g>
    <g id="ytick_2">
     <g id="line2d_10">
      <g>
       <use xlink:href="#m27e8c8b45c" x="30.76" y="131.366732" style="fill: #ffffff; stroke: #ffffff; stroke-width: 0.8"/>
      </g>
     </g>
     <g id="text_10">
      <!-- 1 -->
      <g style="fill: #ffffff" transform="translate(19.30625 134.025912) scale(0.07 -0.07)">
       <use xlink:href="#DejaVuSans-14"/>
      </g>
     </g>
    </g>
    <g id="ytick_3">
     <g id="line2d_11">
      <g>
       <use xlink:href="#m27e8c8b45c" x="30.76" y="108.244373" style="fill: #ffffff; stroke: #ffffff; stroke-width: 0.8"/>
      </g>
     </g>
     <g id="text_11">
      <!-- 2 -->
      <g style="fill: #ffffff" transform="translate(19.30625 110.903553) scale(0.07 -0.07)">
       <use xlink:href="#DejaVuSans-15"/>
      </g>
     </g>
    </g>
    <g id="ytick_4">
     <g id="line2d_12">
      <g>
       <use xlink:href="#m27e8c8b45c" x="30.76" y="85.122015" style="fill: #ffffff; stroke: #ffffff; stroke-width: 0.8"/>
      </g>
     </g>
     <g id="text_12">
      <!-- 3 -->
      <g style="fill: #ffffff" transform="translate(19.30625 87.781194) scale(0.07 -0.07)">
       <use xlink:href="#DejaVuSans-16"/>
      </g>
     </g>
    </g>
    <g id="ytick_5">
     <g id="line2d_13">
      <g>
       <use xlink:href="#m27e8c8b45c" x="30.76" y="61.999656" style="fill: #ffffff; stroke: #ffffff; stroke-width: 0.8"/>
      </g>
     </g>
     <g id="text_13">
      <!-- 4 -->
      <g style="fill: #ffffff" transform="translate(19.30625 64.658836) scale(0.07 -0.07)">
       <defs>
        <path id="DejaVuSans-17" d="M 2419 4116 
L 825 1625 
L 2419 1625 
L 2419 4116 
z
M 2253 4666 
L 3047 4666 
L 3047 1625 
L 3713 1625 
L 3713 1100 
L 3047 1100 
L 3047 0 
L 2419 0 
L 2419 1100 
L 313 1100 
L 313 1709 
L 2253 4666 
z
" transform="scale(0.015625)"/>
       </defs>
       <use xlink:href="#DejaVuSans-17"/>
      </g>
     </g>
    </g>
    <g id="ytick_6">
     <g id="line2d_14">
      <g>
       <use xlink:href="#m27e8c8b45c" x="30.76" y="38.877297" style="fill: #ffffff; stroke: #ffffff; stroke-width: 0.8"/>
      </g>
     </g>
     <g id="text_14">
      <!-- 5 -->
      <g style="fill: #ffffff" transform="translate(19.30625 41.536477) scale(0.07 -0.07)">
       <use xlink:href="#DejaVuSans-18"/>
      </g>
     </g>
    </g>
   </g>
   <g id="line2d_15">
    <path d="M 61.598182 114.850762 
L 63.320985 114.850762 
L 65.043789 131.366732 
L 68.489396 131.366732 
L 70.212199 134.669926 
L 71.935003 151.185897 
L 75.380609 131.366732 
L 77.103413 128.063538 
L 83.994627 128.063538 
L 87.440234 147.882703 
L 89.163037 151.185897 
L 90.885841 147.882703 
L 92.608644 134.669926 
L 94.331447 134.669926 
L 96.054251 131.366732 
L 97.777054 134.669926 
L 101.222661 134.669926 
L 102.945465 137.97312 
L 104.668268 147.882703 
L 108.113875 147.882703 
L 109.836679 144.579509 
L 111.559482 144.579509 
L 113.282285 131.366732 
L 115.005089 131.366732 
L 116.727892 104.941179 
L 118.450696 101.637985 
L 120.173499 101.637985 
L 121.896303 91.728403 
L 123.619106 71.909238 
L 125.34191 85.122015 
L 127.064713 85.122015 
L 128.787517 111.547568 
L 132.233123 98.334791 
L 133.955927 98.334791 
L 135.67873 91.728403 
L 137.401534 91.728403 
L 139.124337 85.122015 
L 140.847141 85.122015 
L 142.569944 91.728403 
L 144.292748 91.728403 
L 146.015551 104.941179 
L 147.738354 111.547568 
L 149.461158 104.941179 
L 151.183961 88.425209 
L 152.906765 85.122015 
L 154.629568 85.122015 
L 156.352372 91.728403 
L 158.075175 75.212432 
L 159.797979 95.031597 
L 161.520782 95.031597 
L 163.243586 118.153956 
L 164.966389 111.547568 
L 168.411996 118.153956 
L 170.134799 124.760344 
L 171.857603 108.244373 
L 173.580406 111.547568 
L 175.30321 111.547568 
L 177.026013 124.760344 
L 178.748817 121.45715 
L 180.47162 101.637985 
L 182.194424 111.547568 
L 183.917227 128.063538 
L 185.64003 131.366732 
L 187.362834 124.760344 
L 189.085637 124.760344 
L 190.808441 128.063538 
L 192.531244 147.882703 
L 197.699655 147.882703 
L 199.422458 121.45715 
L 201.145262 101.637985 
L 202.868065 95.031597 
L 204.590868 91.728403 
L 206.313672 91.728403 
L 208.036475 78.515627 
L 209.759279 78.515627 
L 211.482082 111.547568 
L 213.204886 131.366732 
L 214.927689 137.97312 
L 216.650493 141.276314 
L 218.373296 141.276314 
L 220.0961 144.579509 
L 221.818903 137.97312 
L 223.541706 137.97312 
L 225.26451 104.941179 
L 228.710117 104.941179 
L 230.43292 101.637985 
L 232.155724 45.483686 
L 235.601331 45.483686 
L 237.324134 75.212432 
L 240.769741 75.212432 
L 242.492544 65.30285 
L 244.215348 131.366732 
L 245.938151 137.97312 
L 247.660955 111.547568 
L 249.383758 104.941179 
L 251.106562 101.637985 
L 252.829365 91.728403 
L 254.552169 104.941179 
L 257.997776 104.941179 
L 259.720579 131.366732 
L 261.443382 137.97312 
L 263.166186 141.276314 
L 264.888989 151.185897 
L 270.0574 151.185897 
L 271.780203 147.882703 
L 273.503007 151.185897 
L 282.117024 151.185897 
L 283.839827 154.489091 
L 323.464307 154.489091 
L 325.18711 134.669926 
L 326.909914 131.366732 
L 332.078324 131.366732 
L 333.801127 128.063538 
L 335.523931 128.063538 
L 337.246734 147.882703 
L 338.969538 151.185897 
L 340.692341 151.185897 
L 342.415145 141.276314 
L 344.137948 141.276314 
L 345.860752 144.579509 
L 352.751965 144.579509 
L 354.474769 151.185897 
L 364.81159 151.185897 
L 366.534393 154.489091 
L 368.257197 141.276314 
L 369.98 141.276314 
L 371.702803 134.669926 
L 373.425607 134.669926 
L 375.14841 131.366732 
L 378.594017 131.366732 
L 380.316821 144.579509 
L 382.039624 144.579509 
L 383.762428 151.185897 
L 385.485231 151.185897 
L 387.208035 154.489091 
L 397.544855 154.489091 
L 399.267659 137.97312 
L 402.713266 137.97312 
L 404.436069 121.45715 
L 409.604479 121.45715 
L 411.327283 137.97312 
L 413.050086 131.366732 
L 414.77289 131.366732 
L 416.495693 144.579509 
L 419.9413 144.579509 
L 421.664104 128.063538 
L 423.386907 128.063538 
L 425.109711 134.669926 
L 426.832514 131.366732 
L 428.555317 134.669926 
L 430.278121 131.366732 
L 432.000924 131.366732 
L 433.723728 144.579509 
L 438.892138 144.579509 
L 440.614942 141.276314 
L 442.337745 131.366732 
L 447.506155 131.366732 
L 449.228959 114.850762 
L 452.674566 121.45715 
L 454.397369 134.669926 
L 456.120173 134.669926 
L 459.56578 121.45715 
L 461.288583 137.97312 
L 463.011386 137.97312 
L 464.73419 114.850762 
L 466.456993 104.941179 
L 468.179797 104.941179 
L 471.625404 111.547568 
L 473.348207 111.547568 
L 475.071011 91.728403 
L 476.793814 114.850762 
L 478.516618 124.760344 
L 480.239421 124.760344 
L 481.962224 131.366732 
L 483.685028 134.669926 
L 485.407831 134.669926 
L 487.130635 154.489091 
L 488.853438 154.489091 
L 490.576242 85.122015 
L 492.299045 85.122015 
L 494.021849 78.515627 
L 499.190259 78.515627 
L 500.913062 48.78688 
L 502.635866 85.122015 
L 504.358669 85.122015 
L 506.081473 81.818821 
L 509.52708 81.818821 
L 511.249883 75.212432 
L 512.972687 98.334791 
L 514.69549 131.366732 
L 516.418294 131.366732 
L 518.141097 134.669926 
L 519.8639 134.669926 
L 521.586704 124.760344 
L 523.309507 128.063538 
L 525.032311 134.669926 
L 526.755114 68.606044 
L 528.477918 68.606044 
L 530.200721 75.212432 
L 531.923525 68.606044 
L 533.646328 78.515627 
L 535.369132 81.818821 
L 537.091935 81.818821 
L 538.814738 137.97312 
L 540.537542 111.547568 
L 542.260345 111.547568 
L 543.983149 118.153956 
L 547.428756 118.153956 
L 549.151559 111.547568 
L 550.874363 121.45715 
L 552.597166 147.882703 
L 559.48838 147.882703 
L 561.211183 154.489091 
L 562.933987 154.489091 
L 564.65679 137.97312 
L 574.993611 137.97312 
L 576.716414 154.489091 
L 595.667252 154.489091 
L 597.390056 144.579509 
L 607.726877 144.579509 
L 609.44968 151.185897 
L 614.61809 151.185897 
L 616.340894 111.547568 
L 619.786501 111.547568 
L 621.509304 114.850762 
L 624.954911 114.850762 
L 626.677715 111.547568 
L 628.400518 151.185897 
L 630.123321 151.185897 
L 631.846125 144.579509 
L 633.568928 144.579509 
L 635.291732 141.276314 
L 637.014535 141.276314 
L 638.737339 144.579509 
L 642.182946 144.579509 
L 643.905749 151.185897 
L 645.628553 151.185897 
L 647.351356 154.489091 
L 668.024997 154.489091 
L 669.747801 98.334791 
L 671.470604 81.818821 
L 674.916211 81.818821 
L 676.639015 32.270909 
L 678.361818 32.270909 
L 678.361818 32.270909 
" clip-path="url(#p6e827d8a96)" style="fill: none; stroke: #39d353; stroke-width: 1.5; stroke-linecap: square"/>
   </g>
   <g id="patch_3">
    <path d="M 30.76 160.6 
L 30.76 26.16 
" style="fill: none; stroke: #30363d; stroke-width: 0.8; stroke-linejoin: miter; stroke-linecap: square"/>
   </g>
   <g id="patch_4">
    <path d="M 709.2 160.6 
L 709.2 26.16 
" style="fill: none; stroke: #30363d; stroke-width: 0.8; stroke-linejoin: miter; stroke-linecap: square"/>
   </g>
   <g id="patch_5">
    <path d="M 30.76 160.6 
L 709.2 160.6 
" style="fill: none; stroke: #30363d; stroke-width: 0.8; stroke-linejoin: miter; stroke-linecap: square"/>
   </g>
   <g id="patch_6">
    <path d="M 30.76 26.16 
L 709.2 26.16 
" style="fill: none; stroke: #30363d; stroke-width: 0.8; stroke-linejoin: miter; stroke-linecap: square"/>
   </g>
   <g id="text_15">
    <!-- Commit activity — 7-day rolling average -->
    <g style="fill: #ffffff" transform="translate(248.55875 20.16) scale(0.12 -0.12)">
     <defs>
      <path id="DejaVuSans-26" d="M 4122 4306 
L 4122 3641 
Q 3803 3938 3442 4084 
Q 3081 4231 2675 4231 
Q 1875 4231 1450 3742 
Q 1025 3253 1025 2328 
Q 1025 1406 1450 917 
Q 1875 428 2675 428 
Q 3081 428 3442 575 
Q 3803 722 4122 1019 
L 4122 359 
Q 3791 134 3420 21 
Q 3050 -91 2638 -91 
Q 1578 -91 968 557 
Q 359 1206 359 2328 
Q 359 3453 968 4101 
Q 1578 4750 2638 4750 
Q 3056 4750 3426 4639 
Q 3797 4528 4122 4306 
z
" transform="scale(0.015625)"/>
      <path id="DejaVuSans-52" d="M 1959 3097 
Q 1497 3097 1228 2736 
Q 959 2375 959 1747 
Q 959 1119 1226 758 
Q 1494 397 1959 397 
Q 2419 397 2687 759 
Q 2956 1122 2956 1747 
Q 2956 2369 2687 2733 
Q 2419 3097 1959 3097 
z
M 1959 3584 
Q 2709 3584 3137 3096 
Q 3566 2609 3566 1747 
Q 3566 888 3137 398 
Q 2709 -91 1959 -91 
Q 1206 -91 779 398 
Q 353 888 353 1747 
Q 353 2609 779 3096 
Q 1206 3584 1959 3584 
z
" transform="scale(0.015625)"/>
      <path id="DejaVuSans-50" d="M 3328 2828 
Q 3544 3216 3844 3400 
Q 4144 3584 4550 3584 
Q 5097 3584 5394 3201 
Q 5691 2819 5691 2113 
L 5691 0 
L 5113 0 
L 5113 2094 
Q 5113 2597 4934 2840 
Q 4756 3084 4391 3084 
Q 3944 3084 3684 2787 
Q 3425 2491 3425 1978 
L 3425 0 
L 2847 0 
L 2847 2094 
Q 2847 2600 2669 2842 
Q 2491 3084 2119 3084 
Q 1678 3084 1418 2786 
Q 1159 2488 1159 1978 
L 1159 0 
L 581 0 
L 581 3500 
L 1159 3500 
L 1159 2956 
Q 1356 3278 1631 3431 
Q 1906 3584 2284 3584 
Q 2666 3584 2933 3390 
Q 3200 3197 3328 2828 
z
" transform="scale(0.015625)"/>
      <path id="DejaVuSans-4c" d="M 603 3500 
L 1178 3500 
L 1178 0 
L 603 0 
L 603 3500 
z
M 603 4863 
L 1178 4863 
L 1178 4134 
L 603 4134 
L 603 4863 
z
" transform="scale(0.015625)"/>
      <path id="DejaVuSans-57" d="M 1172 4494 
L 1172 3500 
L 2356 3500 
L 2356 3053 
L 1172 3053 
L 1172 1153 
Q 1172 725 1289 603 
Q 1406 481 1766 481 
L 2356 481 
L 2356 0 
L 1766 0 
Q 1100 0 847 248 
Q 594 497 594 1153 
L 594 3053 
L 172 3053 
L 172 3500 
L 594 3500 
L 594 4494 
L 1172 4494 
z
" transform="scale(0.015625)"/>
      <path id="DejaVuSans-3" transform="scale(0.015625)"/>
      <path id="DejaVuSans-44" d="M 2194 1759 
Q 1497 1759 1228 1600 
Q 959 1441 959 1056 
Q 959 750 1161 570 
Q 1363 391 1709 391 
Q 2188 391 2477 730 
Q 2766 1069 2766 1631 
L 2766 1759 
L 2194 1759 
z
M 3341 1997 
L 3341 0 
L 2766 0 
L 2766 531 
Q 2569 213 2275 61 
Q 1981 -91 1556 -91 
Q 1019 -91 701 211 
Q 384 513 384 1019 
Q 384 1609 779 1909 
Q 1175 2209 1959 2209 
L 2766 2209 
L 2766 2266 
Q 2766 2663 2505 2880 
Q 2244 3097 1772 3097 
Q 1472 3097 1187 3025 
Q 903 2953 641 2809 
L 641 3341 
Q 956 3463 1253 3523 
Q 1550 3584 1831 3584 
Q 2591 3584 2966 3190 
Q 3341 2797 3341 1997 
z
" transform="scale(0.015625)"/>
      <path id="DejaVuSans-46" d="M 3122 3366 
L 3122 2828 
Q 2878 2963 2633 3030 
Q 2388 3097 2138 3097 
Q 1578 3097 1268 2742 
Q 959 2388 959 1747 
Q 959 1106 1268 751 
Q 1578 397 2138 397 
Q 2388 397 2633 464 
Q 2878 531 3122 666 
L 3122 134 
Q 2881 22 2623 -34 
Q 2366 -91 2075 -91 
Q 1284 -91 818 406 
Q 353 903 353 1747 
Q 353 2603 823 3093 
Q 1294 3584 2113 3584 
Q 2378 3584 2631 3529 
Q 2884 3475 3122 3366 
z
" transform="scale(0.015625)"/>
      <path id="DejaVuSans-59" d="M 191 3500 
L 800 3500 
L 1894 563 
L 2988 3500 
L 3597 3500 
L 2284 0 
L 1503 0 
L 191 3500 
z
" transform="scale(0.015625)"/>
      <path id="DejaVuSans-5c" d="M 2059 -325 
Q 1816 -950 1584 -1140 
Q 1353 -1331 966 -1331 
L 506 -1331 
L 506 -850 
L 844 -850 
Q 1081 -850 1212 -737 
Q 1344 -625 1503 -206 
L 1606 56 
L 191 3500 
L 800 3500 
L 1894 763 
L 2988 3500 
L 3597 3500 
L 2059 -325 
z
" transform="scale(0.015625)"/>
      <path id="DejaVuSans-af6" d="M 313 1978 
L 6088 1978 
L 6088 1528 
L 313 1528 
L 313 1978 
z
" transform="scale(0.015625)"/>
      <path id="DejaVuSans-1a" d="M 525 4666 
L 3525 4666 
L 3525 4397 
L 1831 0 
L 1172 0 
L 2766 4134 
L 525 4134 
L 525 4666 
z
" transform="scale(0.015625)"/>
      <path id="DejaVuSans-10" d="M 313 2009 
L 1997 2009 
L 1997 1497 
L 313 1497 
L 313 2009 
z
" transform="scale(0.015625)"/>
      <path id="DejaVuSans-47" d="M 2906 2969 
L 2906 4863 
L 3481 4863 
L 3481 0 
L 2906 0 
L 2906 525 
Q 2725 213 2448 61 
Q 2172 -91 1784 -91 
Q 1150 -91 751 415 
Q 353 922 353 1747 
Q 353 2572 751 3078 
Q 1150 3584 1784 3584 
Q 2172 3584 2448 3432 
Q 2725 3281 2906 2969 
z
M 947 1747 
Q 947 1113 1208 752 
Q 1469 391 1925 391 
Q 2381 391 2643 752 
Q 2906 1113 2906 1747 
Q 2906 2381 2643 2742 
Q 2381 3103 1925 3103 
Q 1469 3103 1208 2742 
Q 947 2381 947 1747 
z
" transform="scale(0.015625)"/>
      <path id="DejaVuSans-55" d="M 2631 2963 
Q 2534 3019 2420 3045 
Q 2306 3072 2169 3072 
Q 1681 3072 1420 2755 
Q 1159 2438 1159 1844 
L 1159 0 
L 581 0 
L 581 3500 
L 1159 3500 
L 1159 2956 
Q 1341 3275 1631 3429 
Q 1922 3584 2338 3584 
Q 2397 3584 2469 3576 
Q 2541 3569 2628 3553 
L 2631 2963 
z
" transform="scale(0.015625)"/>
      <path id="DejaVuSans-4f" d="M 603 4863 
L 1178 4863 
L 1178 0 
L 603 0 
L 603 4863 
z
" transform="scale(0.015625)"/>
      <path id="DejaVuSans-51" d="M 3513 2113 
L 3513 0 
L 2938 0 
L 2938 2094 
Q 2938 2591 2744 2837 
Q 2550 3084 2163 3084 
Q 1697 3084 1428 2787 
Q 1159 2491 1159 1978 
L 1159 0 
L 581 0 
L 581 3500 
L 1159 3500 
L 1159 2956 
Q 1366 3272 1645 3428 
Q 1925 3584 2291 3584 
Q 2894 3584 3203 3211 
Q 3513 2838 3513 2113 
z
" transform="scale(0.015625)"/>
      <path id="DejaVuSans-4a" d="M 2906 1791 
Q 2906 2416 2648 2759 
Q 2391 3103 1925 3103 
Q 1463 3103 1205 2759 
Q 947 2416 947 1791 
Q 947 1169 1205 825 
Q 1463 481 1925 481 
Q 2391 481 2648 825 
Q 2906 1169 2906 1791 
z
M 3481 434 
Q 3481 -459 3084 -895 
Q 2688 -1331 1869 -1331 
Q 1566 -1331 1297 -1286 
Q 1028 -1241 775 -1147 
L 775 -588 
Q 1028 -725 1275 -790 
Q 1522 -856 1778 -856 
Q 2344 -856 2625 -561 
Q 2906 -266 2906 331 
L 2906 616 
Q 2728 306 2450 153 
Q 2172 0 1784 0 
Q 1141 0 747 490 
Q 353 981 353 1791 
Q 353 2603 747 3093 
Q 1141 3584 1784 3584 
Q 2172 3584 2450 3431 
Q 2728 3278 2906 2969 
L 2906 3500 
L 3481 3500 
L 3481 434 
z
" transform="scale(0.015625)"/>
      <path id="DejaVuSans-48" d="M 3597 1894 
L 3597 1613 
L 953 1613 
Q 991 1019 1311 708 
Q 1631 397 2203 397 
Q 2534 397 2845 478 
Q 3156 559 3463 722 
L 3463 178 
Q 3153 47 2828 -22 
Q 2503 -91 2169 -91 
Q 1331 -91 842 396 
Q 353 884 353 1716 
Q 353 2575 817 3079 
Q 1281 3584 2069 3584 
Q 2775 3584 3186 3129 
Q 3597 2675 3597 1894 
z
M 3022 2063 
Q 3016 2534 2758 2815 
Q 2500 3097 2075 3097 
Q 1594 3097 1305 2825 
Q 1016 2553 972 2059 
L 3022 2063 
z
" transform="scale(0.015625)"/>
     </defs>
     <use xlink:href="#DejaVuSans-26"/>
     <use xlink:href="#DejaVuSans-52" transform="translate(69.828125 0)"/>
     <use xlink:href="#DejaVuSans-50" transform="translate(131.015625 0)"/>
     <use xlink:href="#DejaVuSans-50" transform="translate(228.421875 0)"/>
     <use xlink:href="#DejaVuSans-4c" transform="translate(325.828125 0)"/>
     <use xlink:href="#DejaVuSans-57" transform="translate(353.609375 0)"/>
     <use xlink:href="#DejaVuSans-3" transform="translate(392.8125 0)"/>
     <use xlink:href="#DejaVuSans-44" transform="translate(424.59375 0)"/>
     <use xlink:href="#DejaVuSans-46" transform="translate(485.875 0)"/>
     <use xlink:href="#DejaVuSans-57" transform="translate(540.859375 0)"/>
     <use xlink:href="#DejaVuSans-4c" transform="translate(580.0625 0)"/>
     <use xlink:href="#DejaVuSans-59" transform="translate(607.84375 0)"/>
     <use xlink:href="#DejaVuSans-4c" transform="translate(667.03125 0)"/>
     <use xlink:href="#DejaVuSans-57" transform="translate(694.8125 0)"/>
     <use xlink:href="#DejaVuSans-5c" transform="translate(734.015625 0)"/>
     <use xlink:href="#DejaVuSans-3" transform="translate(793.203125 0)"/>
     <use xlink:href="#DejaVuSans-af6" transform="translate(824.984375 0)"/>
     <use xlink:href="#DejaVuSans-3" transform="translate(924.984375 0)"/>
     <use xlink:href="#DejaVuSans-1a" transform="translate(956.765625 0)"/>
     <use xlink:href="#DejaVuSans-10" transform="translate(1020.390625 0)"/>
     <use xlink:href="#DejaVuSans-47" transform="translate(1056.46875 0)"/>
     <use xlink:href="#DejaVuSans-44" transform="translate(1119.953125 0)"/>
     <use xlink:href="#DejaVuSans-5c" transform="translate(1181.234375 0)"/>
     <use xlink:href="#DejaVuSans-3" transform="translate(1240.421875 0)"/>
     <use xlink:href="#DejaVuSans-55" transform="translate(1272.203125 0)"/>
     <use xlink:href="#DejaVuSans-52" transform="translate(1311.109375 0)"/>
     <use xlink:href="#DejaVuSans-4f" transform="translate(1372.296875 0)"/>
     <use xlink:href="#DejaVuSans-4f" transform="translate(1400.078125 0)"/>
     <use xlink:href="#DejaVuSans-4c" transform="translate(1427.859375 0)"/>
     <use xlink:href="#DejaVuSans-51" transform="translate(1455.640625 0)"/>
     <use xlink:href="#DejaVuSans-4a" transform="translate(1519.015625 0)"/>
     <use xlink:href="#DejaVuSans-3" transform="translate(1582.5 0)"/>
     <use xlink:href="#DejaVuSans-44" transform="translate(1614.28125 0)"/>
     <use xlink:href="#DejaVuSans-59" transform="translate(1675.5625 0)"/>
     <use xlink:href="#DejaVuSans-48" transform="translate(1734.75 0)"/>
     <use xlink:href="#DejaVuSans-55" transform="translate(1796.28125 0)"/>
     <use xlink:href="#DejaVuSans-44" transform="translate(1837.390625 0)"/>
     <use xlink:href="#DejaVuSans-4a" transform="translate(1898.671875 0)"/>
     <use xlink:href="#DejaVuSans-48" transform="translate(1962.15625 0)"/>
    </g>
   </g>
  </g>
  <g id="axes_2">
   <g id="patch_7">
    <path d="M 30.76 335.2 
L 709.2 335.2 
L 709.2 200.76 
L 30.76 200.76 
z
" style="fill: #0d1117"/>
   </g>
   <g id="matplotlib.axis_3">
    <g id="xtick_9">
     <g id="line2d_16">
      <g>
       <use xlink:href="#m294843f782" x="58.190648" y="335.2" style="fill: #ffffff; stroke: #ffffff; stroke-width: 0.8"/>
      </g>
     </g>
     <g id="text_16">
      <!-- 0.0 -->
      <g style="fill: #ffffff" transform="translate(52.624554 347.518359) scale(0.07 -0.07)">
       <defs>
        <path id="DejaVuSans-11" d="M 684 794 
L 1344 794 
L 1344 0 
L 684 0 
L 684 794 
z
" transform="scale(0.015625)"/>
       </defs>
       <use xlink:href="#DejaVuSans-13"/>
       <use xlink:href="#DejaVuSans-11" transform="translate(63.625 0)"/>
       <use xlink:href="#DejaVuSans-13" transform="translate(95.40625 0)"/>
      </g>
     </g>
    </g>
    <g id="xtick_10">
     <g id="line2d_17">
      <g>
       <use xlink:href="#m294843f782" x="182.565635" y="335.2" style="fill: #ffffff; stroke: #ffffff; stroke-width: 0.8"/>
      </g>
     </g>
     <g id="text_17">
      <!-- 0.1 -->
      <g style="fill: #ffffff" transform="translate(176.999542 347.518359) scale(0.07 -0.07)">
       <use xlink:href="#DejaVuSans-13"/>
       <use xlink:href="#DejaVuSans-11" transform="translate(63.625 0)"/>
       <use xlink:href="#DejaVuSans-14" transform="translate(95.40625 0)"/>
      </g>
     </g>
    </g>
    <g id="xtick_11">
     <g id="line2d_18">
      <g>
       <use xlink:href="#m294843f782" x="306.940623" y="335.2" style="fill: #ffffff; stroke: #ffffff; stroke-width: 0.8"/>
      </g>
     </g>
     <g id="text_18">
      <!-- 0.2 -->
      <g style="fill: #ffffff" transform="translate(301.374529 347.518359) scale(0.07 -0.07)">
       <use xlink:href="#DejaVuSans-13"/>
       <use xlink:href="#DejaVuSans-11" transform="translate(63.625 0)"/>
       <use xlink:href="#DejaVuSans-15" transform="translate(95.40625 0)"/>
      </g>
     </g>
    </g>
    <g id="xtick_12">
     <g id="line2d_19">
      <g>
       <use xlink:href="#m294843f782" x="431.31561" y="335.2" style="fill: #ffffff; stroke: #ffffff; stroke-width: 0.8"/>
      </g>
     </g>
     <g id="text_19">
      <!-- 0.3 -->
      <g style="fill: #ffffff" transform="translate(425.749516 347.518359) scale(0.07 -0.07)">
       <use xlink:href="#DejaVuSans-13"/>
       <use xlink:href="#DejaVuSans-11" transform="translate(63.625 0)"/>
       <use xlink:href="#DejaVuSans-16" transform="translate(95.40625 0)"/>
      </g>
     </g>
    </g>
    <g id="xtick_13">
     <g id="line2d_20">
      <g>
       <use xlink:href="#m294843f782" x="555.690598" y="335.2" style="fill: #ffffff; stroke: #ffffff; stroke-width: 0.8"/>
      </g>
     </g>
     <g id="text_20">
      <!-- 0.4 -->
      <g style="fill: #ffffff" transform="translate(550.124504 347.518359) scale(0.07 -0.07)">
       <use xlink:href="#DejaVuSans-13"/>
       <use xlink:href="#DejaVuSans-11" transform="translate(63.625 0)"/>
       <use xlink:href="#DejaVuSans-17" transform="translate(95.40625 0)"/>
      </g>
     </g>
    </g>
    <g id="xtick_14">
     <g id="line2d_21">
      <g>
       <use xlink:href="#m294843f782" x="680.065585" y="335.2" style="fill: #ffffff; stroke: #ffffff; stroke-width: 0.8"/>
      </g>
     </g>
     <g id="text_21">
      <!-- 0.5 -->
      <g style="fill: #ffffff" transform="translate(674.499491 347.518359) scale(0.07 -0.07)">
       <use xlink:href="#DejaVuSans-13"/>
       <use xlink:href="#DejaVuSans-11" transform="translate(63.625 0)"/>
       <use xlink:href="#DejaVuSans-18" transform="translate(95.40625 0)"/>
      </g>
     </g>
    </g>
   </g>
   <g id="matplotlib.axis_4">
    <g id="ytick_7">
     <g id="line2d_22">
      <g>
       <use xlink:href="#m27e8c8b45c" x="30.76" y="334.96347" style="fill: #ffffff; stroke: #ffffff; stroke-width: 0.8"/>
      </g>
     </g>
     <g id="text_22">
      <!-- 0 -->
      <g style="fill: #ffffff" transform="translate(19.30625 337.622649) scale(0.07 -0.07)">
       <use xlink:href="#DejaVuSans-13"/>
      </g>
     </g>
    </g>
    <g id="ytick_8">
     <g id="line2d_23">
      <g>
       <use xlink:href="#m27e8c8b45c" x="30.76" y="317.176754" style="fill: #ffffff; stroke: #ffffff; stroke-width: 0.8"/>
      </g>
     </g>
     <g id="text_23">
      <!-- 20 -->
      <g style="fill: #ffffff" transform="translate(14.8525 319.835933) scale(0.07 -0.07)">
       <use xlink:href="#DejaVuSans-15"/>
       <use xlink:href="#DejaVuSans-13" transform="translate(63.625 0)"/>
      </g>
     </g>
    </g>
    <g id="ytick_9">
     <g id="line2d_24">
      <g>
       <use xlink:href="#m27e8c8b45c" x="30.76" y="299.390037" style="fill: #ffffff; stroke: #ffffff; stroke-width: 0.8"/>
      </g>
     </g>
     <g id="text_24">
      <!-- 40 -->
      <g style="fill: #ffffff" transform="translate(14.8525 302.049217) scale(0.07 -0.07)">
       <use xlink:href="#DejaVuSans-17"/>
       <use xlink:href="#DejaVuSans-13" transform="translate(63.625 0)"/>
      </g>
     </g>
    </g>
    <g id="ytick_10">
     <g id="line2d_25">
      <g>
       <use xlink:href="#m27e8c8b45c" x="30.76" y="281.603321" style="fill: #ffffff; stroke: #ffffff; stroke-width: 0.8"/>
      </g>
     </g>
     <g id="text_25">
      <!-- 60 -->
      <g style="fill: #ffffff" transform="translate(14.8525 284.262501) scale(0.07 -0.07)">
       <defs>
        <path id="DejaVuSans-19" d="M 2113 2584 
Q 1688 2584 1439 2293 
Q 1191 2003 1191 1497 
Q 1191 994 1439 701 
Q 1688 409 2113 409 
Q 2538 409 2786 701 
Q 3034 994 3034 1497 
Q 3034 2003 2786 2293 
Q 2538 2584 2113 2584 
z
M 3366 4563 
L 3366 3988 
Q 3128 4100 2886 4159 
Q 2644 4219 2406 4219 
Q 1781 4219 1451 3797 
Q 1122 3375 1075 2522 
Q 1259 2794 1537 2939 
Q 1816 3084 2150 3084 
Q 2853 3084 3261 2657 
Q 3669 2231 3669 1497 
Q 3669 778 3244 343 
Q 2819 -91 2113 -91 
Q 1303 -91 875 529 
Q 447 1150 447 2328 
Q 447 3434 972 4092 
Q 1497 4750 2381 4750 
Q 2619 4750 2861 4703 
Q 3103 4656 3366 4563 
z
" transform="scale(0.015625)"/>
       </defs>
       <use xlink:href="#DejaVuSans-19"/>
       <use xlink:href="#DejaVuSans-13" transform="translate(63.625 0)"/>
      </g>
     </g>
    </g>
    <g id="ytick_11">
     <g id="line2d_26">
      <g>
       <use xlink:href="#m27e8c8b45c" x="30.76" y="263.816605" style="fill: #ffffff; stroke: #ffffff; stroke-width: 0.8"/>
      </g>
     </g>
     <g id="text_26">
      <!-- 80 -->
      <g style="fill: #ffffff" transform="translate(14.8525 266.475785) scale(0.07 -0.07)">
       <defs>
        <path id="DejaVuSans-1b" d="M 2034 2216 
Q 1584 2216 1326 1975 
Q 1069 1734 1069 1313 
Q 1069 891 1326 650 
Q 1584 409 2034 409 
Q 2484 409 2743 651 
Q 3003 894 3003 1313 
Q 3003 1734 2745 1975 
Q 2488 2216 2034 2216 
z
M 1403 2484 
Q 997 2584 770 2862 
Q 544 3141 544 3541 
Q 544 4100 942 4425 
Q 1341 4750 2034 4750 
Q 2731 4750 3128 4425 
Q 3525 4100 3525 3541 
Q 3525 3141 3298 2862 
Q 3072 2584 2669 2484 
Q 3125 2378 3379 2068 
Q 3634 1759 3634 1313 
Q 3634 634 3220 271 
Q 2806 -91 2034 -91 
Q 1263 -91 848 271 
Q 434 634 434 1313 
Q 434 1759 690 2068 
Q 947 2378 1403 2484 
z
M 1172 3481 
Q 1172 3119 1398 2916 
Q 1625 2713 2034 2713 
Q 2441 2713 2670 2916 
Q 2900 3119 2900 3481 
Q 2900 3844 2670 4047 
Q 2441 4250 2034 4250 
Q 1625 4250 1398 4047 
Q 1172 3844 1172 3481 
z
" transform="scale(0.015625)"/>
       </defs>
       <use xlink:href="#DejaVuSans-1b"/>
       <use xlink:href="#DejaVuSans-13" transform="translate(63.625 0)"/>
      </g>
     </g>
    </g>
    <g id="ytick_12">
     <g id="line2d_27">
      <g>
       <use xlink:href="#m27e8c8b45c" x="30.76" y="246.029889" style="fill: #ffffff; stroke: #ffffff; stroke-width: 0.8"/>
      </g>
     </g>
     <g id="text_27">
      <!-- 100 -->
      <g style="fill: #ffffff" transform="translate(10.39875 248.689069) scale(0.07 -0.07)">
       <use xlink:href="#DejaVuSans-14"/>
       <use xlink:href="#DejaVuSans-13" transform="translate(63.625 0)"/>
       <use xlink:href="#DejaVuSans-13" transform="translate(127.25 0)"/>
      </g>
     </g>
    </g>
    <g id="ytick_13">
     <g id="line2d_28">
      <g>
       <use xlink:href="#m27e8c8b45c" x="30.76" y="228.243173" style="fill: #ffffff; stroke: #ffffff; stroke-width: 0.8"/>
      </g>
     </g>
     <g id="text_28">
      <!-- 120 -->
      <g style="fill: #ffffff" transform="translate(10.39875 230.902353) scale(0.07 -0.07)">
       <use xlink:href="#DejaVuSans-14"/>
       <use xlink:href="#DejaVuSans-15" transform="translate(63.625 0)"/>
       <use xlink:href="#DejaVuSans-13" transform="translate(127.25 0)"/>
      </g>
     </g>
    </g>
    <g id="ytick_14">
     <g id="line2d_29">
      <g>
       <use xlink:href="#m27e8c8b45c" x="30.76" y="210.456457" style="fill: #ffffff; stroke: #ffffff; stroke-width: 0.8"/>
      </g>
     </g>
     <g id="text_29">
      <!-- 140 -->
      <g style="fill: #ffffff" transform="translate(10.39875 213.115637) scale(0.07 -0.07)">
       <use xlink:href="#DejaVuSans-14"/>
       <use xlink:href="#DejaVuSans-17" transform="translate(63.625 0)"/>
       <use xlink:href="#DejaVuSans-13" transform="translate(127.25 0)"/>
      </g>
     </g>
    </g>
   </g>
   <g id="line2d_30">
    <path d="M 61.598182 278.169627 
L 65.005716 206.870909 
L 68.41325 293.715329 
L 71.820784 274.030074 
L 75.228317 284.483492 
L 78.635851 288.575089 
L 82.043385 242.047254 
L 85.450919 288.046957 
L 88.858453 296.724942 
L 92.265987 288.913552 
L 95.673521 306.973198 
L 99.081055 311.322284 
L 102.488589 295.741125 
L 105.896123 296.183198 
L 109.303656 279.580857 
L 112.71119 315.867607 
L 116.118724 277.827226 
L 119.526258 290.730268 
L 122.933792 296.098936 
L 126.341326 304.722774 
L 129.74886 269.089155 
L 133.156394 317.711688 
L 136.563928 285.184189 
L 139.971462 281.411947 
L 143.378995 279.56734 
L 146.786529 281.95305 
L 150.194063 302.827481 
L 153.601597 303.51819 
L 157.009131 289.872746 
L 160.416665 314.943527 
L 163.824199 308.923411 
L 167.231733 298.715604 
L 170.639267 308.866187 
L 174.046801 274.89466 
L 177.454335 265.302003 
L 180.861868 294.639833 
L 184.269402 293.904122 
L 187.676936 328.726034 
L 191.08447 274.875514 
L 194.492004 297.612443 
L 197.899538 272.900653 
L 201.307072 303.447579 
L 204.714606 308.541748 
L 208.12214 294.092605 
L 211.529674 324.723267 
L 214.937207 297.700041 
L 218.344741 299.792543 
L 221.752275 281.954788 
L 225.159809 268.789244 
L 228.567343 259.676947 
L 231.974877 273.108589 
L 235.382411 279.193148 
L 238.789945 279.948604 
L 242.197479 280.35273 
L 245.605013 317.17042 
L 249.012546 283.308689 
L 252.42008 315.143494 
L 255.827614 305.126583 
L 259.235148 277.068379 
L 262.642682 278.40066 
L 266.050216 304.778006 
L 269.45775 303.437325 
L 272.865284 285.056953 
L 276.272818 320.009266 
L 279.680352 282.243884 
L 283.087885 324.217696 
L 286.495419 296.48437 
L 289.902953 286.316578 
L 293.310487 304.89689 
L 296.718021 293.74568 
L 300.125555 255.759932 
L 303.533089 271.863702 
L 306.940623 292.99061 
L 310.348157 297.909095 
L 313.755691 248.60443 
L 317.163225 285.467295 
L 320.570758 290.762455 
L 323.978292 320.853098 
L 327.385826 301.366915 
L 330.79336 308.034622 
L 334.200894 284.758085 
L 337.608428 290.868391 
L 341.015962 261.488076 
L 344.423496 269.690301 
L 347.83103 276.784713 
L 351.238564 291.760317 
L 354.646097 299.605645 
L 358.053631 292.050332 
L 361.461165 296.577741 
L 364.868699 303.256302 
L 368.276233 274.300357 
L 371.683767 253.923918 
L 375.091301 306.096942 
L 378.498835 307.996429 
L 381.906369 273.881672 
L 385.313903 291.035209 
L 388.721436 299.995811 
L 392.12897 247.093399 
L 395.536504 316.574144 
L 398.944038 263.018651 
L 402.351572 277.247564 
L 405.759106 250.851242 
L 409.16664 289.739934 
L 412.574174 269.750841 
L 415.981708 281.595468 
L 419.389242 260.874781 
L 422.796775 317.371759 
L 426.204309 306.882188 
L 429.611843 265.222982 
L 433.019377 302.494456 
L 436.426911 317.200953 
L 439.834445 293.229085 
L 443.241979 260.894624 
L 446.649513 319.605533 
L 453.464581 252.675423 
L 456.872115 297.87584 
L 460.279648 287.642291 
L 463.687182 237.948413 
L 467.094716 305.7395 
L 470.50225 269.741563 
L 473.909784 272.860118 
L 477.317318 293.832237 
L 480.724852 278.268362 
L 484.132386 287.894677 
L 487.53992 265.763687 
L 490.947454 320.589582 
L 494.354987 329.089091 
L 497.762521 300.582946 
L 501.170055 321.107282 
L 504.577589 287.855919 
L 507.985123 303.949775 
L 511.392657 287.209523 
L 514.800191 296.839349 
L 518.207725 296.919096 
L 521.615259 295.155135 
L 525.022793 314.949847 
L 528.430326 279.126774 
L 531.83786 308.403154 
L 535.245394 284.148271 
L 538.652928 314.758882 
L 542.060462 318.318795 
L 545.467996 281.501488 
L 548.87553 313.434001 
L 552.283064 289.71409 
L 555.690598 292.801427 
L 559.098132 311.967655 
L 562.505665 323.979159 
L 565.913199 298.791738 
L 569.320733 298.248242 
L 572.728267 310.302916 
L 576.135801 296.308657 
L 579.543335 296.8174 
L 582.950869 250.982427 
L 586.358403 287.799171 
L 589.765937 265.546905 
L 593.173471 295.479719 
L 596.581005 258.436049 
L 599.988538 318.01602 
L 603.396072 300.924726 
L 606.803606 291.213109 
L 610.21114 304.166943 
L 613.618674 288.231243 
L 617.026208 325.255594 
L 620.433742 274.880078 
L 623.841276 273.452501 
L 627.24881 287.084411 
L 630.656344 279.12146 
L 634.063877 284.536902 
L 637.471411 269.624552 
L 640.878945 270.373281 
L 647.694013 315.539013 
L 651.101547 301.869829 
L 654.509081 261.552588 
L 657.916615 304.363495 
L 661.324149 284.806136 
L 664.731683 295.950376 
L 668.139216 309.787629 
L 671.54675 272.22497 
L 674.954284 286.895615 
L 678.361818 321.57636 
L 678.361818 321.57636 
" clip-path="url(#p4e034c323d)" style="fill: none; stroke: #58a6ff; stroke-width: 1.2; stroke-linecap: square"/>
   </g>
   <g id="patch_8">
    <path d="M 30.76 335.2 
L 30.76 200.76 
" style="fill: none; stroke: #30363d; stroke-width: 0.8; stroke-linejoin: miter; stroke-linecap: square"/>
   </g>
   <g id="patch_9">
    <path d="M 709.2 335.2 
L 709.2 200.76 
" style="fill: none; stroke: #30363d; stroke-width: 0.8; stroke-linejoin: miter; stroke-linecap: square"/>
   </g>
   <g id="patch_10">
    <path d="M 30.76 335.2 
L 709.2 335.2 
" style="fill: none; stroke: #30363d; stroke-width: 0.8; stroke-linejoin: miter; stroke-linecap: square"/>
   </g>
   <g id="patch_11">
    <path d="M 30.76 200.76 
L 709.2 200.76 
" style="fill: none; stroke: #30363d; stroke-width: 0.8; stroke-linejoin: miter; stroke-linecap: square"/>
   </g>
   <g id="text_30">
    <!-- Commit rhythm — frequency spectrum (FFT) -->
    <g style="fill: #ffffff" transform="translate(235.533125 194.76) scale(0.12 -0.12)">
     <defs>
      <path id="DejaVuSans-4b" d="M 3513 2113 
L 3513 0 
L 2938 0 
L 2938 2094 
Q 2938 2591 2744 2837 
Q 2550 3084 2163 3084 
Q 1697 3084 1428 2787 
Q 1159 2491 1159 1978 
L 1159 0 
L 581 0 
L 581 4863 
L 1159 4863 
L 1159 2956 
Q 1366 3272 1645 3428 
Q 1925 3584 2291 3584 
Q 2894 3584 3203 3211 
Q 3513 2838 3513 2113 
z
" transform="scale(0.015625)"/>
      <path id="DejaVuSans-49" d="M 2375 4863 
L 2375 4384 
L 1825 4384 
Q 1516 4384 1395 4259 
Q 1275 4134 1275 3809 
L 1275 3500 
L 2222 3500 
L 2222 3053 
L 1275 3053 
L 1275 0 
L 697 0 
L 697 3053 
L 147 3053 
L 147 3500 
L 697 3500 
L 697 3744 
Q 697 4328 969 4595 
Q 1241 4863 1831 4863 
L 2375 4863 
z
" transform="scale(0.015625)"/>
      <path id="DejaVuSans-54" d="M 947 1747 
Q 947 1113 1208 752 
Q 1469 391 1925 391 
Q 2381 391 2643 752 
Q 2906 1113 2906 1747 
Q 2906 2381 2643 2742 
Q 2381 3103 1925 3103 
Q 1469 3103 1208 2742 
Q 947 2381 947 1747 
z
M 2906 525 
Q 2725 213 2448 61 
Q 2172 -91 1784 -91 
Q 1150 -91 751 415 
Q 353 922 353 1747 
Q 353 2572 751 3078 
Q 1150 3584 1784 3584 
Q 2172 3584 2448 3432 
Q 2725 3281 2906 2969 
L 2906 3500 
L 3481 3500 
L 3481 -1331 
L 2906 -1331 
L 2906 525 
z
" transform="scale(0.015625)"/>
      <path id="DejaVuSans-58" d="M 544 1381 
L 544 3500 
L 1119 3500 
L 1119 1403 
Q 1119 906 1312 657 
Q 1506 409 1894 409 
Q 2359 409 2629 706 
Q 2900 1003 2900 1516 
L 2900 3500 
L 3475 3500 
L 3475 0 
L 2900 0 
L 2900 538 
Q 2691 219 2414 64 
Q 2138 -91 1772 -91 
Q 1169 -91 856 284 
Q 544 659 544 1381 
z
M 1991 3584 
L 1991 3584 
z
" transform="scale(0.015625)"/>
      <path id="DejaVuSans-56" d="M 2834 3397 
L 2834 2853 
Q 2591 2978 2328 3040 
Q 2066 3103 1784 3103 
Q 1356 3103 1142 2972 
Q 928 2841 928 2578 
Q 928 2378 1081 2264 
Q 1234 2150 1697 2047 
L 1894 2003 
Q 2506 1872 2764 1633 
Q 3022 1394 3022 966 
Q 3022 478 2636 193 
Q 2250 -91 1575 -91 
Q 1294 -91 989 -36 
Q 684 19 347 128 
L 347 722 
Q 666 556 975 473 
Q 1284 391 1588 391 
Q 1994 391 2212 530 
Q 2431 669 2431 922 
Q 2431 1156 2273 1281 
Q 2116 1406 1581 1522 
L 1381 1569 
Q 847 1681 609 1914 
Q 372 2147 372 2553 
Q 372 3047 722 3315 
Q 1072 3584 1716 3584 
Q 2034 3584 2315 3537 
Q 2597 3491 2834 3397 
z
" transform="scale(0.015625)"/>
      <path id="DejaVuSans-53" d="M 1159 525 
L 1159 -1331 
L 581 -1331 
L 581 3500 
L 1159 3500 
L 1159 2969 
Q 1341 3281 1617 3432 
Q 1894 3584 2278 3584 
Q 2916 3584 3314 3078 
Q 3713 2572 3713 1747 
Q 3713 922 3314 415 
Q 2916 -91 2278 -91 
Q 1894 -91 1617 61 
Q 1341 213 1159 525 
z
M 3116 1747 
Q 3116 2381 2855 2742 
Q 2594 3103 2138 3103 
Q 1681 3103 1420 2742 
Q 1159 2381 1159 1747 
Q 1159 1113 1420 752 
Q 1681 391 2138 391 
Q 2594 391 2855 752 
Q 3116 1113 3116 1747 
z
" transform="scale(0.015625)"/>
      <path id="DejaVuSans-b" d="M 1984 4856 
Q 1566 4138 1362 3434 
Q 1159 2731 1159 2009 
Q 1159 1288 1364 580 
Q 1569 -128 1984 -844 
L 1484 -844 
Q 1016 -109 783 600 
Q 550 1309 550 2009 
Q 550 2706 781 3412 
Q 1013 4119 1484 4856 
L 1984 4856 
z
" transform="scale(0.015625)"/>
      <path id="DejaVuSans-29" d="M 628 4666 
L 3309 4666 
L 3309 4134 
L 1259 4134 
L 1259 2759 
L 3109 2759 
L 3109 2228 
L 1259 2228 
L 1259 0 
L 628 0 
L 628 4666 
z
" transform="scale(0.015625)"/>
      <path id="DejaVuSans-37" d="M -19 4666 
L 3928 4666 
L 3928 4134 
L 2272 4134 
L 2272 0 
L 1638 0 
L 1638 4134 
L -19 4134 
L -19 4666 
z
" transform="scale(0.015625)"/>
      <path id="DejaVuSans-c" d="M 513 4856 
L 1013 4856 
Q 1481 4119 1714 3412 
Q 1947 2706 1947 2009 
Q 1947 1309 1714 600 
Q 1481 -109 1013 -844 
L 513 -844 
Q 928 -128 1133 580 
Q 1338 1288 1338 2009 
Q 1338 2731 1133 3434 
Q 928 4138 513 4856 
z
" transform="scale(0.015625)"/>
     </defs>
     <use xlink:href="#DejaVuSans-26"/>
     <use xlink:href="#DejaVuSans-52" transform="translate(69.828125 0)"/>
     <use xlink:href="#DejaVuSans-50" transform="translate(131.015625 0)"/>
     <use xlink:href="#DejaVuSans-50" transform="translate(228.421875 0)"/>
     <use xlink:href="#DejaVuSans-4c" transform="translate(325.828125 0)"/>
     <use xlink:href="#DejaVuSans-57" transform="translate(353.609375 0)"/>
     <use xlink:href="#DejaVuSans-3" transform="translate(392.8125 0)"/>
     <use xlink:href="#DejaVuSans-55" transform="translate(424.59375 0)"/>
     <use xlink:href="#DejaVuSans-4b" transform="translate(463.953125 0)"/>
     <use xlink:href="#DejaVuSans-5c" transform="translate(527.328125 0)"/>
     <use xlink:href="#DejaVuSans-57" transform="translate(586.515625 0)"/>
     <use xlink:href="#DejaVuSans-4b" transform="translate(625.71875 0)"/>
     <use xlink:href="#DejaVuSans-50" transform="translate(689.09375 0)"/>
     <use xlink:href="#DejaVuSans-3" transform="translate(786.5 0)"/>
     <use xlink:href="#DejaVuSans-af6" transform="translate(818.28125 0)"/>
     <use xlink:href="#DejaVuSans-3" transform="translate(918.28125 0)"/>
     <use xlink:href="#DejaVuSans-49" transform="translate(950.0625 0)"/>
     <use xlink:href="#DejaVuSans-55" transform="translate(985.265625 0)"/>
     <use xlink:href="#DejaVuSans-48" transform="translate(1024.171875 0)"/>
     <use xlink:href="#DejaVuSans-54" transform="translate(1085.703125 0)"/>
     <use xlink:href="#DejaVuSans-58" transform="translate(1149.1875 0)"/>
     <use xlink:href="#DejaVuSans-48" transform="translate(1212.5625 0)"/>
     <use xlink:href="#DejaVuSans-51" transform="translate(1274.09375 0)"/>
     <use xlink:href="#DejaVuSans-46" transform="translate(1337.46875 0)"/>
     <use xlink:href="#DejaVuSans-5c" transform="translate(1392.453125 0)"/>
     <use xlink:href="#DejaVuSans-3" transform="translate(1451.640625 0)"/>
     <use xlink:href="#DejaVuSans-56" transform="translate(1483.421875 0)"/>
     <use xlink:href="#DejaVuSans-53" transform="translate(1535.515625 0)"/>
     <use xlink:href="#DejaVuSans-48" transform="translate(1599 0)"/>
     <use xlink:href="#DejaVuSans-46" transform="translate(1660.53125 0)"/>
     <use xlink:href="#DejaVuSans-57" transform="translate(1715.515625 0)"/>
     <use xlink:href="#DejaVuSans-55" transform="translate(1754.71875 0)"/>
     <use xlink:href="#DejaVuSans-58" transform="translate(1795.828125 0)"/>
     <use xlink:href="#DejaVuSans-50" transform="translate(1859.203125 0)"/>
     <use xlink:href="#DejaVuSans-3" transform="translate(1956.609375 0)"/>
     <use xlink:href="#DejaVuSans-b" transform="translate(1988.390625 0)"/>
     <use xlink:href="#DejaVuSans-29" transform="translate(2027.40625 0)"/>
     <use xlink:href="#DejaVuSans-29" transform="translate(2084.921875 0)"/>
     <use xlink:href="#DejaVuSans-37" transform="translate(2140.6875 0)"/>
     <use xlink:href="#DejaVuSans-c" transform="translate(2201.765625 0)"/>
    </g>
   </g>
  </g>
 </g>
 <defs>
  <clipPath id="p6e827d8a96">
   <rect x="30.76" y="26.16" width="678.44" height="134.44"/>
  </clipPath>
  <clipPath id="p4e034c323d">
   <rect x="30.76" y="200.76" width="678.44" height="134.44"/>
  </clipPath>
 </defs>
</svg>
